<svg width="82" height="80" viewBox="0 0 82 80" fill="none" xmlns="http://www.w3.org/2000/svg">
<circle cx="37.5" cy="41.6571" r="37.5" fill="#13594E"/>
<mask id="path-2-inside-1_9_314" fill="white">
<path fill-rule="evenodd" clip-rule="evenodd" d="M74.4646 1.87453C69.9518 -1.3092 63.5659 -0.339633 60.2014 4.0401L33.2441 39.1318L24.3153 32.8327C19.8024 29.649 13.4166 30.6185 10.0521 34.9983L7.83214 37.8881C4.46765 42.2679 5.39857 48.3992 9.91141 51.583L27.0016 63.6398C27.0049 63.6421 27.0082 63.6444 27.0114 63.6467L30.2349 65.9209C34.7478 69.1046 41.1336 68.135 44.4981 63.7553L46.7181 60.8654L79.7674 17.8435C83.1319 13.4638 82.2009 7.33238 77.6881 4.14865L74.4646 1.87453Z"/>
</mask>
<path fill-rule="evenodd" clip-rule="evenodd" d="M74.4646 1.87453C69.9518 -1.3092 63.5659 -0.339633 60.2014 4.0401L33.2441 39.1318L24.3153 32.8327C19.8024 29.649 13.4166 30.6185 10.0521 34.9983L7.83214 37.8881C4.46765 42.2679 5.39857 48.3992 9.91141 51.583L27.0016 63.6398C27.0049 63.6421 27.0082 63.6444 27.0114 63.6467L30.2349 65.9209C34.7478 69.1046 41.1336 68.135 44.4981 63.7553L46.7181 60.8654L79.7674 17.8435C83.1319 13.4638 82.2009 7.33238 77.6881 4.14865L74.4646 1.87453Z" fill="white"/>
<path d="M60.2014 4.0401L63.3735 6.47688V6.47688L60.2014 4.0401ZM74.4646 1.87453L76.7705 -1.39396L74.4646 1.87453ZM33.2441 39.1318L30.9382 42.4003L34.0765 44.6143L36.4162 41.5686L33.2441 39.1318ZM24.3153 32.8327L26.6211 29.5642L24.3153 32.8327ZM10.0521 34.9983L13.2242 37.435H13.2242L10.0521 34.9983ZM7.83214 37.8881L11.0042 40.3249H11.0042L7.83214 37.8881ZM9.91141 51.583L7.60555 54.8515L7.60555 54.8515L9.91141 51.583ZM27.0016 63.6398L29.3116 60.3742L29.3075 60.3713L27.0016 63.6398ZM27.0114 63.6467L29.3173 60.3783L29.3171 60.3781L27.0114 63.6467ZM30.2349 65.9209L27.9291 69.1894H27.9291L30.2349 65.9209ZM44.4981 63.7553L47.6702 66.1921L47.6702 66.1921L44.4981 63.7553ZM46.7181 60.8654L43.546 58.4287L43.546 58.4287L46.7181 60.8654ZM79.7674 17.8435L76.5953 15.4067V15.4067L79.7674 17.8435ZM77.6881 4.14865L75.3822 7.41714L77.6881 4.14865ZM63.3735 6.47688C65.4307 3.79889 69.3994 3.19633 72.1587 5.14302L76.7705 -1.39396C70.5042 -5.81473 61.7011 -4.47815 57.0293 1.60332L63.3735 6.47688ZM36.4162 41.5686L63.3735 6.47688L57.0293 1.60332L30.072 36.695L36.4162 41.5686ZM22.0094 36.1012L30.9382 42.4003L35.55 35.8633L26.6211 29.5642L22.0094 36.1012ZM13.2242 37.435C15.2814 34.7571 19.2501 34.1545 22.0094 36.1012L26.6211 29.5642C20.3548 25.1435 11.5518 26.48 6.88003 32.5615L13.2242 37.435ZM11.0042 40.3249L13.2242 37.435L6.88003 32.5615L4.66005 35.4513L11.0042 40.3249ZM12.2173 48.3145C9.56167 46.441 9.02437 42.9022 11.0042 40.3249L4.66005 35.4513C-0.0890813 41.6335 1.23547 50.3575 7.60555 54.8515L12.2173 48.3145ZM29.3075 60.3713L12.2173 48.3145L7.60555 54.8515L24.6957 66.9083L29.3075 60.3713ZM29.3171 60.3781C29.3155 60.377 29.3137 60.3757 29.3116 60.3742L24.6916 66.9053C24.696 66.9085 24.7008 66.9119 24.7058 66.9154L29.3171 60.3781ZM32.5408 62.6524L29.3173 60.3783L24.7056 66.9152L27.9291 69.1894L32.5408 62.6524ZM41.326 61.3185C39.2688 63.9965 35.3002 64.5991 32.5408 62.6524L27.9291 69.1894C34.1954 73.6101 42.9984 72.2736 47.6702 66.1921L41.326 61.3185ZM43.546 58.4287L41.326 61.3185L47.6702 66.1921L49.8902 63.3022L43.546 58.4287ZM76.5953 15.4067L43.546 58.4287L49.8902 63.3022L82.9394 20.2803L76.5953 15.4067ZM75.3822 7.41714C78.0378 9.29061 78.5751 12.8294 76.5953 15.4067L82.9394 20.2803C87.6886 14.0981 86.3641 5.37414 79.994 0.880161L75.3822 7.41714ZM72.1587 5.14302L75.3822 7.41714L79.994 0.880161L76.7705 -1.39396L72.1587 5.14302Z" fill="#13594E" mask="url(#path-2-inside-1_9_314)"/>
</svg>
