<svg width="326" height="187" viewBox="0 0 326 187" fill="none" xmlns="http://www.w3.org/2000/svg">
<path fill-rule="evenodd" clip-rule="evenodd" d="M58.4308 13.8606L62.7637 16.9001L73.4958 3.00867C74.3402 1.91567 75.9767 1.66773 77.108 2.46136C78.1828 3.2153 78.398 4.6305 77.5958 5.66883L65.3941 21.4625L65.3836 21.476L65.3754 21.4865L65.3672 21.4972L65.357 21.5105C64.5331 22.577 62.9355 22.819 61.8316 22.0446L61.7915 22.0165L61.7871 22.0135L61.7817 22.0097L61.7768 22.0062L55.3806 17.5194C54.3332 16.7847 54.1236 15.4066 54.9053 14.3947C55.7293 13.3282 57.3268 13.0862 58.4308 13.8606ZM52.4818 15.1116C52.5871 14.4337 52.8639 13.7681 53.3215 13.1757C54.799 11.2633 57.6013 10.8387 59.5808 12.2273L62.3483 14.1687V14.1688L59.5808 12.2274C57.6013 10.8388 54.799 11.2634 53.3215 13.1757C52.8639 13.7681 52.5871 14.4337 52.4818 15.1116ZM76.846 9.90838L79.1796 6.88782C80.6775 4.94897 80.2649 2.23596 78.258 0.828149C76.2511 -0.579664 73.4099 -0.149169 71.912 1.78968L62.3483 14.1687L70.8956 3.10523C68.8464 1.92608 66.467 1.25117 63.9291 1.25117C56.2363 1.25117 50 7.45212 50 15.1014C50 22.7506 56.2363 28.9516 63.9291 28.9516C71.6219 28.9516 77.8582 22.7506 77.8582 15.1014C77.8582 13.265 77.4987 11.5121 76.846 9.90838Z" fill="#13594E"/>
<path fill-rule="evenodd" clip-rule="evenodd" d="M275.63 15.2456C275.63 17.5087 275.06 19.6393 274.055 21.5029L274.503 21.9487C275.991 23.4295 275.991 25.8304 274.503 27.3112C273.015 28.792 270.602 28.792 269.114 27.3112L268.684 26.8838C266.792 27.9111 264.622 28.4949 262.315 28.4949C260.041 28.4949 257.9 27.9275 256.027 26.9271L255.641 27.3112C254.153 28.792 251.74 28.792 250.252 27.3112C248.763 25.8304 248.763 23.4295 250.252 21.9487L250.619 21.583C249.587 19.7004 249 17.5412 249 15.2456C249 12.9499 249.587 10.7907 250.619 8.90816L250.252 8.54242C248.763 7.0616 248.763 4.66072 250.252 3.17991C251.74 1.69909 254.153 1.69909 255.641 3.17991L256.027 3.564C257.9 2.56365 260.041 1.99622 262.315 1.99622C264.622 1.99622 266.792 2.58004 268.684 3.60731L269.114 3.17994C270.602 1.69913 273.015 1.69913 274.503 3.17994C275.991 4.66076 275.991 7.06164 274.503 8.54245L274.055 8.98818C275.06 10.8518 275.63 12.9824 275.63 15.2456ZM251.668 23.3581L259.821 15.2456L251.668 7.13304C250.962 6.4306 250.962 5.29172 251.668 4.58928C252.374 3.88684 253.518 3.88684 254.224 4.58928L262.377 12.7018L270.53 4.58932C271.236 3.88688 272.381 3.88688 273.086 4.58932C273.792 5.29176 273.792 6.43064 273.086 7.13308L264.934 15.2456L273.086 23.3581C273.792 24.0605 273.792 25.1994 273.086 25.9018C272.381 26.6043 271.236 26.6043 270.53 25.9018L262.377 17.7893L254.224 25.9019C253.518 26.6043 252.374 26.6043 251.668 25.9019C250.962 25.1994 250.962 24.0605 251.668 23.3581Z" fill="#83323F"/>
<rect y="38.9335" width="128.394" height="146.722" rx="10" fill="#D6F9F3"/>
<rect x="27.0831" y="56.0414" width="73.6522" height="18.7688" rx="5" fill="#13594E"/>
<rect x="27.0831" y="98.813" width="73.6522" height="18.7688" rx="5" fill="#13594E"/>
<rect x="27.0831" y="141.732" width="73.6522" height="18.7688" rx="5" fill="#13594E"/>
<rect x="197.606" y="40.2777" width="128.394" height="146.722" rx="10" fill="#F9D6DC"/>
<path d="M155.63 105.838H153.628L149.458 95.3689H151.304L153.667 101.541C153.785 101.827 153.905 102.146 154.029 102.498C154.153 102.843 154.263 103.178 154.361 103.504C154.465 103.829 154.537 104.099 154.576 104.314H154.664C154.716 104.099 154.794 103.829 154.898 103.504C155.009 103.172 155.129 102.833 155.259 102.488C155.389 102.136 155.51 101.821 155.621 101.541L157.974 95.3689H159.81L155.63 105.838ZM169.039 102.947C169.039 103.963 168.622 104.731 167.789 105.252C166.962 105.773 165.861 106.033 164.488 106.033C163.681 106.033 162.99 105.974 162.417 105.857C161.851 105.747 161.356 105.584 160.933 105.369V103.806C161.356 104.008 161.89 104.2 162.535 104.383C163.186 104.558 163.856 104.646 164.546 104.646C165.536 104.646 166.255 104.506 166.705 104.226C167.154 103.946 167.378 103.572 167.378 103.103C167.378 102.843 167.297 102.608 167.134 102.4C166.978 102.192 166.692 101.983 166.275 101.775C165.865 101.567 165.279 101.332 164.517 101.072C163.768 100.812 163.124 100.551 162.583 100.291C162.043 100.03 161.626 99.7179 161.333 99.3533C161.047 98.9887 160.904 98.5199 160.904 97.947C160.904 97.0551 161.298 96.3715 162.085 95.8962C162.873 95.4145 163.905 95.1736 165.181 95.1736C165.871 95.1736 166.516 95.2387 167.115 95.3689C167.714 95.4926 168.274 95.6619 168.794 95.8767L168.189 97.2439C167.714 97.0551 167.212 96.8988 166.685 96.7751C166.164 96.6449 165.614 96.5798 165.035 96.5798C164.227 96.5798 163.609 96.6938 163.179 96.9216C162.756 97.1495 162.544 97.4587 162.544 97.8494C162.544 98.1423 162.639 98.3897 162.828 98.5916C163.023 98.7934 163.339 98.9887 163.775 99.1775C164.218 99.3663 164.813 99.5876 165.562 99.8416C166.298 100.089 166.923 100.346 167.437 100.613C167.958 100.873 168.355 101.189 168.628 101.56C168.902 101.925 169.039 102.387 169.039 102.947ZM171.685 104.783C171.685 104.301 171.822 103.963 172.095 103.767C172.375 103.572 172.714 103.474 173.111 103.474C173.528 103.474 173.889 103.572 174.195 103.767C174.501 103.963 174.654 104.301 174.654 104.783C174.654 105.252 174.501 105.59 174.195 105.799C173.889 106.007 173.528 106.111 173.111 106.111C172.714 106.111 172.375 106.007 172.095 105.799C171.822 105.59 171.685 105.252 171.685 104.783Z" fill="black"/>
<rect x="222.683" y="141.732" width="79.0414" height="23.2375" rx="5" fill="#F0CED3"/>
<rect x="222.683" y="97.8149" width="79.0414" height="23.2375" rx="5" fill="#F0CED3"/>
<rect x="222.683" y="54.2539" width="79.0414" height="23.2375" rx="5" fill="#F0CED3"/>
</svg>
