<svg width="326" height="187" viewBox="0 0 326 187" fill="none" xmlns="http://www.w3.org/2000/svg">
<path d="M155.172 114.547H153.17L149 104.078H150.846L153.209 110.25C153.326 110.536 153.447 110.855 153.57 111.207C153.694 111.552 153.805 111.887 153.902 112.213C154.007 112.538 154.078 112.809 154.117 113.023H154.205C154.257 112.809 154.335 112.538 154.439 112.213C154.55 111.881 154.671 111.542 154.801 111.197C154.931 110.846 155.051 110.53 155.162 110.25L157.516 104.078H159.352L155.172 114.547ZM168.58 111.656C168.58 112.672 168.163 113.44 167.33 113.961C166.503 114.482 165.403 114.742 164.029 114.742C163.222 114.742 162.532 114.684 161.959 114.566C161.393 114.456 160.898 114.293 160.475 114.078V112.516C160.898 112.717 161.432 112.91 162.076 113.092C162.727 113.268 163.398 113.355 164.088 113.355C165.077 113.355 165.797 113.215 166.246 112.936C166.695 112.656 166.92 112.281 166.92 111.812C166.92 111.552 166.839 111.318 166.676 111.109C166.52 110.901 166.233 110.693 165.816 110.484C165.406 110.276 164.82 110.042 164.059 109.781C163.31 109.521 162.665 109.26 162.125 109C161.585 108.74 161.168 108.427 160.875 108.062C160.589 107.698 160.445 107.229 160.445 106.656C160.445 105.764 160.839 105.081 161.627 104.605C162.415 104.124 163.447 103.883 164.723 103.883C165.413 103.883 166.057 103.948 166.656 104.078C167.255 104.202 167.815 104.371 168.336 104.586L167.73 105.953C167.255 105.764 166.754 105.608 166.227 105.484C165.706 105.354 165.156 105.289 164.576 105.289C163.769 105.289 163.15 105.403 162.721 105.631C162.298 105.859 162.086 106.168 162.086 106.559C162.086 106.852 162.18 107.099 162.369 107.301C162.564 107.503 162.88 107.698 163.316 107.887C163.759 108.076 164.355 108.297 165.104 108.551C165.839 108.798 166.464 109.055 166.979 109.322C167.499 109.583 167.896 109.898 168.17 110.27C168.443 110.634 168.58 111.096 168.58 111.656ZM171.227 113.492C171.227 113.01 171.363 112.672 171.637 112.477C171.917 112.281 172.255 112.184 172.652 112.184C173.069 112.184 173.43 112.281 173.736 112.477C174.042 112.672 174.195 113.01 174.195 113.492C174.195 113.961 174.042 114.299 173.736 114.508C173.43 114.716 173.069 114.82 172.652 114.82C172.255 114.82 171.917 114.716 171.637 114.508C171.363 114.299 171.227 113.961 171.227 113.492Z" fill="black"/>
<rect y="37.6527" width="128" height="149.347" rx="10" fill="#F2F2F2"/>
<rect x="198" y="37.6527" width="128" height="149.347" rx="10" fill="#F2F2F2"/>
<rect x="17" y="71.1796" width="14.25" height="14.4775" rx="2" fill="#878787"/>
<rect x="34.1" y="71.1796" width="14.25" height="14.4775" rx="2" fill="#878787"/>
<rect x="34.1" y="88.5527" width="14.25" height="14.4775" rx="2" fill="#878787"/>
<rect x="17" y="88.5527" width="14.25" height="14.4775" rx="2" fill="#878787"/>
<rect x="17" y="122.334" width="14.25" height="14.4775" rx="2" fill="#878787"/>
<rect x="34.1" y="122.334" width="14.25" height="14.4775" rx="2" fill="#878787"/>
<rect x="34.1" y="139.707" width="14.25" height="14.4775" rx="2" fill="#878787"/>
<rect x="17" y="139.707" width="14.25" height="14.4775" rx="2" fill="#878787"/>
<rect x="79.7" y="71.1796" width="14.25" height="14.4775" rx="2" fill="#878787"/>
<rect x="96.8" y="71.1796" width="14.25" height="14.4775" rx="2" fill="#878787"/>
<rect x="96.8" y="88.5527" width="14.25" height="14.4775" rx="2" fill="#878787"/>
<rect x="79.7" y="88.5527" width="14.25" height="14.4775" rx="2" fill="#878787"/>
<rect x="79.7" y="122.334" width="14.25" height="14.4775" rx="2" fill="#878787"/>
<rect x="96.8" y="122.334" width="14.25" height="14.4775" rx="2" fill="#878787"/>
<rect x="96.8" y="139.707" width="14.25" height="14.4775" rx="2" fill="#878787"/>
<rect x="79.7" y="139.707" width="14.25" height="14.4775" rx="2" fill="#878787"/>
<rect x="214" y="65.0837" width="14.25" height="14.4775" rx="2" fill="#878787"/>
<rect x="241.55" y="65.0837" width="14.25" height="14.4775" rx="2" fill="#878787"/>
<rect x="269.1" y="65.0837" width="14.25" height="14.4775" rx="2" fill="#878787"/>
<rect x="296.65" y="65.0837" width="14.25" height="14.4775" rx="2" fill="#878787"/>
<rect x="241.55" y="92.1085" width="14.25" height="14.4775" rx="2" fill="#878787"/>
<rect x="214" y="92.1085" width="14.25" height="14.4775" rx="2" fill="#878787"/>
<rect x="296.65" y="92.1085" width="14.25" height="14.4775" rx="2" fill="#878787"/>
<rect x="269.1" y="92.1085" width="14.25" height="14.4775" rx="2" fill="#878787"/>
<rect x="214.95" y="119.133" width="14.25" height="14.4775" rx="2" fill="#878787"/>
<rect x="241.55" y="119.133" width="14.25" height="14.4775" rx="2" fill="#878787"/>
<rect x="268.15" y="119.133" width="14.25" height="14.4775" rx="2" fill="#878787"/>
<rect x="296.65" y="119.133" width="14.25" height="14.4775" rx="2" fill="#878787"/>
<rect x="241.55" y="146.158" width="14.25" height="14.4775" rx="2" fill="#878787"/>
<rect x="214.95" y="146.158" width="14.25" height="14.4775" rx="2" fill="#878787"/>
<rect x="296.65" y="146.158" width="14.25" height="14.4775" rx="2" fill="#878787"/>
<rect x="268.15" y="146.158" width="14.25" height="14.4775" rx="2" fill="#878787"/>
<path fill-rule="evenodd" clip-rule="evenodd" d="M56.4307 14.0369L60.7637 17.1151L71.4958 3.04695C72.3402 1.94005 73.9766 1.68895 75.108 2.49267C76.1828 3.25621 76.398 4.68941 75.5958 5.74096L63.3941 21.7356L63.3836 21.7492L63.3753 21.7599L63.3672 21.7707L63.357 21.7842C62.5331 22.8643 60.9355 23.1094 59.8315 22.3251L59.7915 22.2966L59.7871 22.2936L59.7817 22.2897L59.7768 22.2862L53.3805 17.7423C52.3332 16.9982 52.1236 15.6026 52.9053 14.5779C53.7292 13.4978 55.3268 13.2527 56.4307 14.0369ZM68.8956 3.14474L69.912 1.81245C71.4099 -0.151067 74.2511 -0.587039 76.258 0.838686C78.2649 2.26441 78.6775 5.01194 77.1796 6.97545L74.846 10.0345C75.4988 11.6585 75.8582 13.4338 75.8582 15.2935C75.8582 23.0401 69.6219 29.32 61.9291 29.32C54.2363 29.32 48 23.0401 48 15.2935C48 7.54694 54.2363 1.26709 61.9291 1.26709C64.467 1.26709 66.8464 1.95058 68.8956 3.14474Z" fill="#13594E"/>
<path fill-rule="evenodd" clip-rule="evenodd" d="M274.083 13.4179C274.083 15.7099 273.513 17.8676 272.508 19.7549L272.956 20.2063C274.444 21.706 274.444 24.1374 272.956 25.6371C271.467 27.1367 269.054 27.1367 267.566 25.6371L267.137 25.2042C265.245 26.2446 263.075 26.8358 260.768 26.8358C258.493 26.8358 256.352 26.2612 254.479 25.2481L254.093 25.6371C252.605 27.1368 250.192 27.1368 248.704 25.6371C247.216 24.1374 247.216 21.706 248.704 20.2064L249.072 19.836C248.039 17.9295 247.453 15.7427 247.453 13.4179C247.453 11.0931 248.039 8.90636 249.072 6.99988L248.704 6.62948C247.216 5.12983 247.216 2.6984 248.704 1.19875C250.192 -0.30091 252.605 -0.300911 254.093 1.19874L254.479 1.58773C256.352 0.574651 258.493 0 260.768 0C263.075 0 265.245 0.591252 267.137 1.63159L267.566 1.19878C269.055 -0.300876 271.467 -0.300872 272.956 1.19878C274.444 2.69844 274.444 5.12986 272.956 6.62952L272.508 7.08092C273.513 8.96822 274.083 11.126 274.083 13.4179ZM250.121 21.6337L258.273 13.4179L250.121 5.20218C249.415 4.4908 249.415 3.33743 250.121 2.62605C250.826 1.91467 251.971 1.91467 252.677 2.62605L260.83 10.8418L268.983 2.62609C269.689 1.91471 270.833 1.91471 271.539 2.62609C272.245 3.33747 272.245 4.49084 271.539 5.20221L263.386 13.4179L271.539 21.6336C272.245 22.345 272.245 23.4984 271.539 24.2098C270.833 24.9211 269.689 24.9211 268.983 24.2098L260.83 15.994L252.677 24.2098C251.971 24.9212 250.826 24.9212 250.121 24.2098C249.415 23.4984 249.415 22.345 250.121 21.6337Z" fill="#83323F"/>
</svg>
