<svg width="326" height="187" viewBox="0 0 326 187" fill="none" xmlns="http://www.w3.org/2000/svg">
<rect y="40.8135" width="128.394" height="146.187" rx="10" fill="#F2F2F2"/>
<rect x="12.0369" y="50.7582" width="46.95" height="58.6735" rx="5" fill="white"/>
<ellipse cx="24.0681" cy="71.9026" rx="5.32404" ry="5.70878" fill="#13594E"/>
<mask id="path-4-inside-1_242_239" fill="white">
<path fill-rule="evenodd" clip-rule="evenodd" d="M29.5449 66.0193C28.7779 65.439 27.7019 65.6024 27.1417 66.3843L23.4638 71.5181L22.4363 70.7408C21.663 70.1558 20.5783 70.3206 20.0136 71.1088C19.4489 71.8971 19.618 73.0103 20.3913 73.5952L22.7965 75.4147C22.8023 75.4191 22.8081 75.4234 22.8138 75.4276C23.5803 76.0023 24.6517 75.838 25.2105 75.0588C25.2134 75.0548 25.2163 75.0507 25.2192 75.0467C25.2221 75.0427 25.225 75.0386 25.2278 75.0346L29.9196 68.4857C30.4798 67.7038 30.312 66.5995 29.5449 66.0193Z"/>
</mask>
<path fill-rule="evenodd" clip-rule="evenodd" d="M29.5449 66.0193C28.7779 65.439 27.7019 65.6024 27.1417 66.3843L23.4638 71.5181L22.4363 70.7408C21.663 70.1558 20.5783 70.3206 20.0136 71.1088C19.4489 71.8971 19.618 73.0103 20.3913 73.5952L22.7965 75.4147C22.8023 75.4191 22.8081 75.4234 22.8138 75.4276C23.5803 76.0023 24.6517 75.838 25.2105 75.0588C25.2134 75.0548 25.2163 75.0507 25.2192 75.0467C25.2221 75.0427 25.225 75.0386 25.2278 75.0346L29.9196 68.4857C30.4798 67.7038 30.312 66.5995 29.5449 66.0193Z" fill="white"/>
<path d="M27.1417 66.3843L27.5482 66.6755L27.5482 66.6755L27.1417 66.3843ZM29.5449 66.0193L29.8466 65.6205L29.8466 65.6205L29.5449 66.0193ZM23.4638 71.5181L23.1621 71.9169L23.5714 72.2264L23.8703 71.8093L23.4638 71.5181ZM22.4363 70.7408L22.1346 71.1396L22.1346 71.1396L22.4363 70.7408ZM20.0136 71.1088L19.6071 70.8176L19.6071 70.8176L20.0136 71.1088ZM20.3913 73.5952L20.6929 73.1965L20.6929 73.1965L20.3913 73.5952ZM22.7965 75.4147L22.4949 75.8135L22.4949 75.8135L22.7965 75.4147ZM22.8138 75.4276L23.1138 75.0276L23.1106 75.0253L22.8138 75.4276ZM25.2105 75.0588L24.8064 74.7642L24.8042 74.7674L25.2105 75.0588ZM25.2192 75.0467L25.6257 75.3379L25.6257 75.3379L25.2192 75.0467ZM25.2278 75.0346L24.8214 74.7434L24.819 74.7468L25.2278 75.0346ZM29.9196 68.4857L30.3261 68.7769L30.3261 68.7769L29.9196 68.4857ZM27.5482 66.6755C27.9446 66.1222 28.7005 66.0074 29.2433 66.418L29.8466 65.6205C28.8552 64.8706 27.4592 65.0826 26.7353 66.0931L27.5482 66.6755ZM23.8703 71.8093L27.5482 66.6755L26.7353 66.0931L23.0573 71.2269L23.8703 71.8093ZM22.1346 71.1396L23.1621 71.9169L23.7654 71.1193L22.7379 70.342L22.1346 71.1396ZM20.42 71.4C20.821 70.8404 21.5856 70.7243 22.1346 71.1396L22.7379 70.342C21.7403 69.5874 20.3356 69.8008 19.6071 70.8176L20.42 71.4ZM20.6929 73.1965C20.1358 72.775 20.0132 71.9679 20.42 71.4L19.6071 70.8176C18.8845 71.8262 19.1001 73.2455 20.0896 73.994L20.6929 73.1965ZM23.0982 75.016L20.6929 73.1965L20.0896 73.994L22.4949 75.8135L23.0982 75.016ZM23.1106 75.0253C23.1065 75.0222 23.1023 75.0191 23.0982 75.0159L22.4949 75.8135C22.5022 75.819 22.5096 75.8245 22.517 75.83L23.1106 75.0253ZM24.8042 74.7674C24.4087 75.3188 23.656 75.4342 23.1138 75.0276L22.5139 75.8277C23.5045 76.5705 24.8946 76.3572 25.6168 75.3502L24.8042 74.7674ZM24.8128 74.7555C24.8107 74.7584 24.8086 74.7613 24.8065 74.7642L25.6145 75.3533C25.6182 75.3482 25.622 75.3431 25.6257 75.3379L24.8128 74.7555ZM24.819 74.7468C24.8169 74.7497 24.8149 74.7526 24.8127 74.7555L25.6257 75.3379C25.6294 75.3327 25.633 75.3276 25.6367 75.3224L24.819 74.7468ZM29.5132 68.1945L24.8214 74.7434L25.6343 75.3258L30.3261 68.7769L29.5132 68.1945ZM29.2433 66.418C29.7942 66.8348 29.9154 67.633 29.5132 68.1945L30.3261 68.7769C31.0441 67.7746 30.8299 66.3643 29.8466 65.6205L29.2433 66.418Z" fill="#13594E" mask="url(#path-4-inside-1_242_239)"/>
<ellipse cx="46.9842" cy="72.1392" rx="5.52386" ry="5.73315" fill="#83323F"/>
<mask id="path-7-inside-2_242_239" fill="white">
<path fill-rule="evenodd" clip-rule="evenodd" d="M41.9795 66.9183C41.3622 67.5591 41.3622 68.598 41.9795 69.2387L44.7742 72.1393L41.9795 75.0398C41.3622 75.6806 41.3622 76.7195 41.9795 77.3602C42.5969 78.001 43.5979 78.001 44.2152 77.3602L47.0099 74.4597L49.8045 77.3602C50.4219 78.001 51.4229 78.001 52.0402 77.3602C52.6576 76.7194 52.6576 75.6806 52.0402 75.0398L49.2456 72.1393L52.0402 69.2388C52.6576 68.598 52.6576 67.5591 52.0402 66.9184C51.4229 66.2776 50.4219 66.2776 49.8045 66.9184L47.0099 69.8189L44.2152 66.9183C43.5979 66.2775 42.5969 66.2775 41.9795 66.9183Z"/>
</mask>
<path fill-rule="evenodd" clip-rule="evenodd" d="M41.9795 66.9183C41.3622 67.5591 41.3622 68.598 41.9795 69.2387L44.7742 72.1393L41.9795 75.0398C41.3622 75.6806 41.3622 76.7195 41.9795 77.3602C42.5969 78.001 43.5979 78.001 44.2152 77.3602L47.0099 74.4597L49.8045 77.3602C50.4219 78.001 51.4229 78.001 52.0402 77.3602C52.6576 76.7194 52.6576 75.6806 52.0402 75.0398L49.2456 72.1393L52.0402 69.2388C52.6576 68.598 52.6576 67.5591 52.0402 66.9184C51.4229 66.2776 50.4219 66.2776 49.8045 66.9184L47.0099 69.8189L44.2152 66.9183C43.5979 66.2775 42.5969 66.2775 41.9795 66.9183Z" fill="white"/>
<path d="M41.9795 69.2387L41.6326 69.5988L41.9795 69.2387ZM41.9795 66.9183L42.3265 67.2784L41.9795 66.9183ZM44.7742 72.1393L45.1211 72.4993L45.468 72.1393L45.1211 71.7792L44.7742 72.1393ZM41.9795 77.3602L42.3265 77.0002L41.9795 77.3602ZM44.2152 77.3602L43.8683 77.0002L44.2152 77.3602ZM47.0099 74.4597L47.3568 74.0996L47.0099 73.7396L46.663 74.0996L47.0099 74.4597ZM49.8045 77.3602L50.1515 77.0001L49.8045 77.3602ZM52.0402 75.0398L51.6933 75.3999L52.0402 75.0398ZM49.2456 72.1393L48.8987 71.7792L48.5518 72.1393L48.8987 72.4993L49.2456 72.1393ZM47.0099 69.8189L46.663 70.1789L47.0099 70.539L47.3568 70.1789L47.0099 69.8189ZM44.2152 66.9183L44.5622 66.5583L44.2152 66.9183ZM42.3265 68.8787C41.9007 68.4368 41.9007 67.7203 42.3265 67.2784L41.6326 66.5583C40.8236 67.3979 40.8236 68.7592 41.6326 69.5988L42.3265 68.8787ZM45.1211 71.7792L42.3265 68.8787L41.6326 69.5988L44.4273 72.4993L45.1211 71.7792ZM42.3265 75.3999L45.1211 72.4993L44.4273 71.7792L41.6326 74.6798L42.3265 75.3999ZM42.3265 77.0002C41.9007 76.5583 41.9007 75.8418 42.3265 75.3999L41.6326 74.6798C40.8236 75.5194 40.8236 76.8807 41.6326 77.7203L42.3265 77.0002ZM43.8683 77.0002C43.4425 77.4421 42.7522 77.4421 42.3265 77.0002L41.6326 77.7203C42.4416 78.5599 43.7532 78.5599 44.5622 77.7203L43.8683 77.0002ZM46.663 74.0996L43.8683 77.0002L44.5622 77.7203L47.3568 74.8198L46.663 74.0996ZM50.1515 77.0001L47.3568 74.0996L46.663 74.8198L49.4576 77.7203L50.1515 77.0001ZM51.6933 77.0001C51.2675 77.4421 50.5772 77.4421 50.1515 77.0001L49.4576 77.7203C50.2666 78.5599 51.5782 78.5599 52.3872 77.7203L51.6933 77.0001ZM51.6933 75.3999C52.1191 75.8418 52.1191 76.5582 51.6933 77.0001L52.3872 77.7203C53.1961 76.8806 53.1961 75.5193 52.3872 74.6797L51.6933 75.3999ZM48.8987 72.4993L51.6933 75.3999L52.3872 74.6797L49.5925 71.7792L48.8987 72.4993ZM51.6933 68.8787L48.8987 71.7792L49.5925 72.4993L52.3872 69.5988L51.6933 68.8787ZM51.6933 67.2784C52.1191 67.7203 52.1191 68.4368 51.6933 68.8787L52.3872 69.5988C53.1961 68.7592 53.1961 67.3979 52.3872 66.5583L51.6933 67.2784ZM50.1515 67.2784C50.5772 66.8365 51.2675 66.8365 51.6933 67.2784L52.3872 66.5583C51.5782 65.7187 50.2666 65.7187 49.4576 66.5583L50.1515 67.2784ZM47.3568 70.1789L50.1515 67.2784L49.4576 66.5583L46.663 69.4588L47.3568 70.1789ZM43.8683 67.2784L46.663 70.1789L47.3568 69.4588L44.5622 66.5583L43.8683 67.2784ZM42.3265 67.2784C42.7522 66.8365 43.4425 66.8365 43.8683 67.2784L44.5622 66.5583C43.7532 65.7186 42.4416 65.7186 41.6326 66.5583L42.3265 67.2784Z" fill="#83323F" mask="url(#path-7-inside-2_242_239)"/>
<rect x="19.7022" y="55.7305" width="32.5775" height="5.9668" fill="#878787"/>
<rect x="16.8278" y="81.5867" width="16.2888" height="22.8727" rx="2" fill="#878787"/>
<rect x="38.8655" y="81.5867" width="16.2888" height="22.8727" rx="2" fill="#878787"/>
<rect x="69.5267" y="50.7582" width="46.95" height="58.6735" rx="5" fill="white"/>
<ellipse cx="81.5579" cy="71.9026" rx="5.32404" ry="5.70878" fill="#13594E"/>
<mask id="path-14-inside-3_242_239" fill="white">
<path fill-rule="evenodd" clip-rule="evenodd" d="M87.0347 66.0193C86.2676 65.439 85.1917 65.6024 84.6315 66.3843L80.9536 71.5181L79.9261 70.7408C79.1528 70.1558 78.0681 70.3206 77.5034 71.1088C76.9387 71.8971 77.1078 73.0103 77.8811 73.5952L80.2863 75.4147C81.054 75.9954 82.1285 75.8373 82.6966 75.0639C82.7007 75.0582 82.7049 75.0525 82.709 75.0467C82.7129 75.0413 82.7167 75.0358 82.7206 75.0304L87.4094 68.4857C87.9695 67.7038 87.8018 66.5995 87.0347 66.0193Z"/>
</mask>
<path fill-rule="evenodd" clip-rule="evenodd" d="M87.0347 66.0193C86.2676 65.439 85.1917 65.6024 84.6315 66.3843L80.9536 71.5181L79.9261 70.7408C79.1528 70.1558 78.0681 70.3206 77.5034 71.1088C76.9387 71.8971 77.1078 73.0103 77.8811 73.5952L80.2863 75.4147C81.054 75.9954 82.1285 75.8373 82.6966 75.0639C82.7007 75.0582 82.7049 75.0525 82.709 75.0467C82.7129 75.0413 82.7167 75.0358 82.7206 75.0304L87.4094 68.4857C87.9695 67.7038 87.8018 66.5995 87.0347 66.0193Z" fill="white"/>
<path d="M84.6315 66.3843L85.0379 66.6755L85.0379 66.6755L84.6315 66.3843ZM87.0347 66.0193L87.3363 65.6205L87.3363 65.6205L87.0347 66.0193ZM80.9536 71.5181L80.6519 71.9168L81.0612 72.2264L81.36 71.8093L80.9536 71.5181ZM79.9261 70.7408L79.6244 71.1396L79.6244 71.1396L79.9261 70.7408ZM77.5034 71.1088L77.0969 70.8176L77.0969 70.8176L77.5034 71.1088ZM77.8811 73.5952L78.1827 73.1965L78.1827 73.1965L77.8811 73.5952ZM80.2863 75.4147L80.588 75.016L80.588 75.016L80.2863 75.4147ZM82.6966 75.0639L83.0995 75.3599L83.0995 75.3599L82.6966 75.0639ZM82.709 75.0467L82.3026 74.7555L82.3026 74.7555L82.709 75.0467ZM82.7206 75.0304L82.3141 74.7392L82.3109 74.7437L82.7206 75.0304ZM87.4094 68.4857L87.8158 68.7769L87.8158 68.7769L87.4094 68.4857ZM85.0379 66.6755C85.4343 66.1222 86.1902 66.0074 86.733 66.418L87.3363 65.6205C86.345 64.8706 84.949 65.0826 84.225 66.0931L85.0379 66.6755ZM81.36 71.8093L85.0379 66.6755L84.225 66.0931L80.5471 71.2269L81.36 71.8093ZM79.6244 71.1396L80.6519 71.9168L81.2552 71.1193L80.2277 70.342L79.6244 71.1396ZM77.9099 71.4C78.3108 70.8404 79.0754 70.7243 79.6244 71.1396L80.2277 70.342C79.2301 69.5874 77.8254 69.8008 77.0969 70.8176L77.9099 71.4ZM78.1827 73.1965C77.6256 72.775 77.503 71.9679 77.9099 71.4L77.0969 70.8176C76.3744 71.8262 76.5899 73.2455 77.5794 73.994L78.1827 73.1965ZM80.588 75.016L78.1827 73.1965L77.5794 73.994L79.9847 75.8135L80.588 75.016ZM82.2936 74.7679C81.8905 75.3167 81.1331 75.4283 80.588 75.016L79.9847 75.8135C80.9749 76.5626 82.3665 76.3579 83.0995 75.3599L82.2936 74.7679ZM82.3026 74.7555C82.2996 74.7597 82.2966 74.7638 82.2936 74.7679L83.0995 75.3599C83.1049 75.3526 83.1102 75.3452 83.1155 75.3379L82.3026 74.7555ZM82.3109 74.7437C82.3081 74.7477 82.3054 74.7516 82.3026 74.7555L83.1155 75.3379C83.1204 75.331 83.1254 75.324 83.1302 75.317L82.3109 74.7437ZM87.0029 68.1945L82.3141 74.7392L83.127 75.3216L87.8158 68.7769L87.0029 68.1945ZM86.733 66.418C87.2839 66.8348 87.4052 67.633 87.0029 68.1945L87.8158 68.7769C88.5338 67.7746 88.3196 66.3643 87.3363 65.6205L86.733 66.418Z" fill="#13594E" mask="url(#path-14-inside-3_242_239)"/>
<ellipse cx="104.474" cy="72.1392" rx="5.52386" ry="5.73315" fill="#83323F"/>
<mask id="path-17-inside-4_242_239" fill="white">
<path fill-rule="evenodd" clip-rule="evenodd" d="M99.4693 66.9183C98.8519 67.5591 98.8519 68.598 99.4693 69.2387L102.264 72.1393L99.4693 75.0398C98.8519 75.6806 98.8519 76.7195 99.4693 77.3602C100.087 78.001 101.088 78.001 101.705 77.3602L104.5 74.4597L107.294 77.3602C107.912 78.001 108.913 78.001 109.53 77.3602C110.147 76.7194 110.147 75.6806 109.53 75.0398L106.735 72.1393L109.53 69.2388C110.147 68.598 110.147 67.5591 109.53 66.9184C108.913 66.2776 107.912 66.2776 107.294 66.9184L104.5 69.8189L101.705 66.9183C101.088 66.2775 100.087 66.2775 99.4693 66.9183Z"/>
</mask>
<path fill-rule="evenodd" clip-rule="evenodd" d="M99.4693 66.9183C98.8519 67.5591 98.8519 68.598 99.4693 69.2387L102.264 72.1393L99.4693 75.0398C98.8519 75.6806 98.8519 76.7195 99.4693 77.3602C100.087 78.001 101.088 78.001 101.705 77.3602L104.5 74.4597L107.294 77.3602C107.912 78.001 108.913 78.001 109.53 77.3602C110.147 76.7194 110.147 75.6806 109.53 75.0398L106.735 72.1393L109.53 69.2388C110.147 68.598 110.147 67.5591 109.53 66.9184C108.913 66.2776 107.912 66.2776 107.294 66.9184L104.5 69.8189L101.705 66.9183C101.088 66.2775 100.087 66.2775 99.4693 66.9183Z" fill="white"/>
<path d="M99.4693 66.9183L99.8162 67.2784L99.4693 66.9183ZM102.264 72.1393L102.611 72.4993L102.958 72.1393L102.611 71.7792L102.264 72.1393ZM99.4693 77.3602L99.8162 77.0002L99.4693 77.3602ZM101.705 77.3602L101.358 77.0002L101.705 77.3602ZM104.5 74.4597L104.847 74.0996L104.5 73.7396L104.153 74.0996L104.5 74.4597ZM106.735 72.1393L106.388 71.7792L106.042 72.1393L106.388 72.4993L106.735 72.1393ZM104.5 69.8189L104.153 70.1789L104.5 70.539L104.847 70.1789L104.5 69.8189ZM101.705 66.9183L102.052 66.5583L101.705 66.9183ZM99.8162 68.8787C99.3904 68.4368 99.3904 67.7203 99.8162 67.2784L99.1224 66.5583C98.3134 67.3979 98.3134 68.7592 99.1224 69.5988L99.8162 68.8787ZM102.611 71.7792L99.8162 68.8787L99.1224 69.5988L101.917 72.4993L102.611 71.7792ZM99.8162 75.3999L102.611 72.4993L101.917 71.7792L99.1224 74.6798L99.8162 75.3999ZM99.8162 77.0002C99.3904 76.5583 99.3904 75.8418 99.8162 75.3999L99.1224 74.6798C98.3134 75.5194 98.3134 76.8807 99.1224 77.7203L99.8162 77.0002ZM101.358 77.0002C100.932 77.4421 100.242 77.4421 99.8162 77.0002L99.1224 77.7203C99.9313 78.5599 101.243 78.5599 102.052 77.7203L101.358 77.0002ZM104.153 74.0996L101.358 77.0002L102.052 77.7203L104.847 74.8198L104.153 74.0996ZM107.641 77.0001L104.847 74.0996L104.153 74.8198L106.947 77.7203L107.641 77.0001ZM109.183 77.0001C108.757 77.4421 108.067 77.4421 107.641 77.0001L106.947 77.7203C107.756 78.5599 109.068 78.5599 109.877 77.7203L109.183 77.0001ZM109.183 75.3999C109.609 75.8418 109.609 76.5582 109.183 77.0001L109.877 77.7203C110.686 76.8806 110.686 75.5193 109.877 74.6797L109.183 75.3999ZM106.388 72.4993L109.183 75.3999L109.877 74.6797L107.082 71.7792L106.388 72.4993ZM109.183 68.8787L106.388 71.7792L107.082 72.4993L109.877 69.5988L109.183 68.8787ZM109.183 67.2784C109.609 67.7203 109.609 68.4368 109.183 68.8787L109.877 69.5988C110.686 68.7592 110.686 67.3979 109.877 66.5583L109.183 67.2784ZM107.641 67.2784C108.067 66.8365 108.757 66.8365 109.183 67.2784L109.877 66.5583C109.068 65.7187 107.756 65.7187 106.947 66.5583L107.641 67.2784ZM104.847 70.1789L107.641 67.2784L106.947 66.5583L104.153 69.4588L104.847 70.1789ZM101.358 67.2784L104.153 70.1789L104.847 69.4588L102.052 66.5583L101.358 67.2784ZM99.8162 67.2784C100.242 66.8365 100.932 66.8365 101.358 67.2784L102.052 66.5583C101.243 65.7186 99.9313 65.7186 99.1224 66.5583L99.8162 67.2784Z" fill="#83323F" mask="url(#path-17-inside-4_242_239)"/>
<rect x="77.192" y="55.7305" width="32.5775" height="5.9668" fill="#878787"/>
<rect x="74.3175" y="81.5867" width="16.2888" height="22.8727" rx="2" fill="#878787"/>
<rect x="96.3553" y="81.5867" width="16.2888" height="22.8727" rx="2" fill="#878787"/>
<rect x="69.5267" y="119.376" width="46.95" height="58.6735" rx="5" fill="white"/>
<ellipse cx="81.5579" cy="140.521" rx="5.32404" ry="5.70878" fill="#13594E"/>
<mask id="path-24-inside-5_242_239" fill="white">
<path fill-rule="evenodd" clip-rule="evenodd" d="M87.0347 134.637C86.2676 134.057 85.1917 134.22 84.6315 135.002L80.9536 140.136L79.9261 139.359C79.1528 138.774 78.0681 138.939 77.5034 139.727C76.9387 140.515 77.1078 141.628 77.8811 142.213L80.2863 144.033C81.054 144.613 82.1285 144.455 82.6966 143.682C82.7007 143.676 82.7049 143.67 82.709 143.665C82.7129 143.659 82.7167 143.654 82.7206 143.648L87.4094 137.104C87.9695 136.322 87.8018 135.218 87.0347 134.637Z"/>
</mask>
<path fill-rule="evenodd" clip-rule="evenodd" d="M87.0347 134.637C86.2676 134.057 85.1917 134.22 84.6315 135.002L80.9536 140.136L79.9261 139.359C79.1528 138.774 78.0681 138.939 77.5034 139.727C76.9387 140.515 77.1078 141.628 77.8811 142.213L80.2863 144.033C81.054 144.613 82.1285 144.455 82.6966 143.682C82.7007 143.676 82.7049 143.67 82.709 143.665C82.7129 143.659 82.7167 143.654 82.7206 143.648L87.4094 137.104C87.9695 136.322 87.8018 135.218 87.0347 134.637Z" fill="white"/>
<path d="M84.6315 135.002L85.0379 135.294L85.0379 135.294L84.6315 135.002ZM87.0347 134.637L87.3363 134.239L87.3363 134.239L87.0347 134.637ZM80.9536 140.136L80.6519 140.535L81.0612 140.844L81.36 140.427L80.9536 140.136ZM79.9261 139.359L79.6244 139.758L79.6244 139.758L79.9261 139.359ZM77.5034 139.727L77.0969 139.436L77.0969 139.436L77.5034 139.727ZM77.8811 142.213L78.1827 141.815L78.1827 141.815L77.8811 142.213ZM80.2863 144.033L80.588 143.634L80.588 143.634L80.2863 144.033ZM82.6966 143.682L83.0995 143.978L83.0995 143.978L82.6966 143.682ZM82.709 143.665L82.3026 143.374L82.3026 143.374L82.709 143.665ZM82.7206 143.648L82.3141 143.357L82.3109 143.362L82.7206 143.648ZM87.4094 137.104L87.8158 137.395L87.8158 137.395L87.4094 137.104ZM85.0379 135.294C85.4343 134.74 86.1902 134.625 86.733 135.036L87.3363 134.239C86.345 133.489 84.949 133.701 84.225 134.711L85.0379 135.294ZM81.36 140.427L85.0379 135.294L84.225 134.711L80.5471 139.845L81.36 140.427ZM79.6244 139.758L80.6519 140.535L81.2552 139.737L80.2277 138.96L79.6244 139.758ZM77.9099 140.018C78.3108 139.458 79.0754 139.342 79.6244 139.758L80.2277 138.96C79.2301 138.205 77.8254 138.419 77.0969 139.436L77.9099 140.018ZM78.1827 141.815C77.6256 141.393 77.503 140.586 77.9099 140.018L77.0969 139.436C76.3744 140.444 76.5899 141.864 77.5794 142.612L78.1827 141.815ZM80.588 143.634L78.1827 141.815L77.5794 142.612L79.9847 144.432L80.588 143.634ZM82.2936 143.386C81.8905 143.935 81.1331 144.046 80.588 143.634L79.9847 144.432C80.9749 145.181 82.3665 144.976 83.0995 143.978L82.2936 143.386ZM82.3026 143.374C82.2996 143.378 82.2966 143.382 82.2936 143.386L83.0995 143.978C83.1049 143.971 83.1102 143.963 83.1155 143.956L82.3026 143.374ZM82.3109 143.362C82.3081 143.366 82.3054 143.37 82.3026 143.374L83.1155 143.956C83.1204 143.949 83.1254 143.942 83.1302 143.935L82.3109 143.362ZM87.0029 136.813L82.3141 143.357L83.127 143.94L87.8158 137.395L87.0029 136.813ZM86.733 135.036C87.2839 135.453 87.4052 136.251 87.0029 136.813L87.8158 137.395C88.5338 136.393 88.3196 134.982 87.3363 134.239L86.733 135.036Z" fill="#13594E" mask="url(#path-24-inside-5_242_239)"/>
<ellipse cx="104.474" cy="140.757" rx="5.52386" ry="5.73315" fill="#83323F"/>
<mask id="path-27-inside-6_242_239" fill="white">
<path fill-rule="evenodd" clip-rule="evenodd" d="M99.4693 135.536C98.8519 136.177 98.8519 137.216 99.4693 137.857L102.264 140.757L99.4693 143.658C98.8519 144.299 98.8519 145.338 99.4693 145.978C100.087 146.619 101.088 146.619 101.705 145.978L104.5 143.078L107.294 145.978C107.912 146.619 108.913 146.619 109.53 145.978C110.147 145.337 110.147 144.299 109.53 143.658L106.735 140.757L109.53 137.857C110.147 137.216 110.147 136.177 109.53 135.536C108.913 134.896 107.912 134.896 107.294 135.536L104.5 138.437L101.705 135.536C101.088 134.896 100.087 134.896 99.4693 135.536Z"/>
</mask>
<path fill-rule="evenodd" clip-rule="evenodd" d="M99.4693 135.536C98.8519 136.177 98.8519 137.216 99.4693 137.857L102.264 140.757L99.4693 143.658C98.8519 144.299 98.8519 145.338 99.4693 145.978C100.087 146.619 101.088 146.619 101.705 145.978L104.5 143.078L107.294 145.978C107.912 146.619 108.913 146.619 109.53 145.978C110.147 145.337 110.147 144.299 109.53 143.658L106.735 140.757L109.53 137.857C110.147 137.216 110.147 136.177 109.53 135.536C108.913 134.896 107.912 134.896 107.294 135.536L104.5 138.437L101.705 135.536C101.088 134.896 100.087 134.896 99.4693 135.536Z" fill="white"/>
<path d="M99.4693 137.857L99.8162 137.497L99.4693 137.857ZM99.4693 135.536L99.1224 135.176L99.4693 135.536ZM102.264 140.757L102.611 141.117L102.958 140.757L102.611 140.397L102.264 140.757ZM104.5 143.078L104.847 142.718L104.5 142.358L104.153 142.718L104.5 143.078ZM106.735 140.757L106.388 140.397L106.042 140.757L106.388 141.117L106.735 140.757ZM104.5 138.437L104.153 138.797L104.5 139.157L104.847 138.797L104.5 138.437ZM101.705 135.536L101.358 135.896L101.705 135.536ZM99.8162 137.497C99.3904 137.055 99.3904 136.338 99.8162 135.896L99.1224 135.176C98.3134 136.016 98.3134 137.377 99.1224 138.217L99.8162 137.497ZM102.611 140.397L99.8162 137.497L99.1224 138.217L101.917 141.117L102.611 140.397ZM99.8162 144.018L102.611 141.117L101.917 140.397L99.1224 143.298L99.8162 144.018ZM99.8162 145.618C99.3904 145.176 99.3904 144.46 99.8162 144.018L99.1224 143.298C98.3134 144.137 98.3134 145.499 99.1224 146.338L99.8162 145.618ZM101.358 145.618C100.932 146.06 100.242 146.06 99.8162 145.618L99.1224 146.338C99.9313 147.178 101.243 147.178 102.052 146.338L101.358 145.618ZM104.153 142.718L101.358 145.618L102.052 146.338L104.847 143.438L104.153 142.718ZM107.641 145.618L104.847 142.718L104.153 143.438L106.947 146.338L107.641 145.618ZM109.183 145.618C108.757 146.06 108.067 146.06 107.641 145.618L106.947 146.338C107.756 147.178 109.068 147.178 109.877 146.338L109.183 145.618ZM109.183 144.018C109.609 144.46 109.609 145.176 109.183 145.618L109.877 146.338C110.686 145.499 110.686 144.137 109.877 143.298L109.183 144.018ZM106.388 141.117L109.183 144.018L109.877 143.298L107.082 140.397L106.388 141.117ZM109.183 137.497L106.388 140.397L107.082 141.117L109.877 138.217L109.183 137.497ZM109.183 135.896C109.609 136.338 109.609 137.055 109.183 137.497L109.877 138.217C110.686 137.377 110.686 136.016 109.877 135.176L109.183 135.896ZM107.641 135.896C108.067 135.455 108.757 135.455 109.183 135.896L109.877 135.176C109.068 134.337 107.756 134.337 106.947 135.176L107.641 135.896ZM104.847 138.797L107.641 135.896L106.947 135.176L104.153 138.077L104.847 138.797ZM101.358 135.896L104.153 138.797L104.847 138.077L102.052 135.176L101.358 135.896ZM99.8162 135.896C100.242 135.455 100.932 135.455 101.358 135.896L102.052 135.176C101.243 134.337 99.9313 134.337 99.1224 135.176L99.8162 135.896Z" fill="#83323F" mask="url(#path-27-inside-6_242_239)"/>
<rect x="77.192" y="124.349" width="32.5775" height="5.9668" fill="#878787"/>
<rect x="74.3175" y="150.205" width="16.2888" height="22.8727" rx="2" fill="#878787"/>
<rect x="96.3553" y="150.205" width="16.2888" height="22.8727" rx="2" fill="#878787"/>
<rect x="13.9532" y="119.376" width="46.95" height="58.6735" rx="5" fill="white"/>
<ellipse cx="25.9844" cy="140.521" rx="5.32404" ry="5.70878" fill="#13594E"/>
<mask id="path-34-inside-7_242_239" fill="white">
<path fill-rule="evenodd" clip-rule="evenodd" d="M31.4613 134.637C30.6942 134.057 29.6182 134.22 29.0581 135.002L25.3801 140.136L24.3527 139.359C23.5793 138.774 22.4947 138.939 21.93 139.727C21.3653 140.515 21.5344 141.628 22.3077 142.213L24.7129 144.033C25.4806 144.613 26.5551 144.455 27.1231 143.682C27.1273 143.676 27.1315 143.67 27.1356 143.665C27.1395 143.659 27.1433 143.654 27.1471 143.648L31.8359 137.104C32.3961 136.322 32.2283 135.218 31.4613 134.637Z"/>
</mask>
<path fill-rule="evenodd" clip-rule="evenodd" d="M31.4613 134.637C30.6942 134.057 29.6182 134.22 29.0581 135.002L25.3801 140.136L24.3527 139.359C23.5793 138.774 22.4947 138.939 21.93 139.727C21.3653 140.515 21.5344 141.628 22.3077 142.213L24.7129 144.033C25.4806 144.613 26.5551 144.455 27.1231 143.682C27.1273 143.676 27.1315 143.67 27.1356 143.665C27.1395 143.659 27.1433 143.654 27.1471 143.648L31.8359 137.104C32.3961 136.322 32.2283 135.218 31.4613 134.637Z" fill="white"/>
<path d="M29.0581 135.002L29.4645 135.294L29.4645 135.294L29.0581 135.002ZM31.4613 134.637L31.7629 134.239L31.7629 134.239L31.4613 134.637ZM25.3801 140.136L25.0785 140.535L25.4877 140.844L25.7866 140.427L25.3801 140.136ZM24.3527 139.359L24.051 139.758L24.051 139.758L24.3527 139.359ZM21.93 139.727L21.5235 139.436L21.5235 139.436L21.93 139.727ZM22.3077 142.213L22.6093 141.815L22.6093 141.815L22.3077 142.213ZM24.7129 144.033L25.0146 143.634L25.0146 143.634L24.7129 144.033ZM27.1231 143.682L27.5261 143.978L27.5261 143.978L27.1231 143.682ZM27.1356 143.665L26.7291 143.374L26.7291 143.374L27.1356 143.665ZM27.1471 143.648L26.7407 143.357L26.7375 143.362L27.1471 143.648ZM31.8359 137.104L32.2424 137.395L32.2424 137.395L31.8359 137.104ZM29.4645 135.294C29.8609 134.74 30.6168 134.625 31.1596 135.036L31.7629 134.239C30.7715 133.489 29.3756 133.701 28.6516 134.711L29.4645 135.294ZM25.7866 140.427L29.4645 135.294L28.6516 134.711L24.9737 139.845L25.7866 140.427ZM24.051 139.758L25.0785 140.535L25.6818 139.737L24.6543 138.96L24.051 139.758ZM22.3364 140.018C22.7373 139.458 23.502 139.342 24.051 139.758L24.6543 138.96C23.6567 138.205 22.252 138.419 21.5235 139.436L22.3364 140.018ZM22.6093 141.815C22.0522 141.393 21.9296 140.586 22.3364 140.018L21.5235 139.436C20.8009 140.444 21.0165 141.864 22.006 142.612L22.6093 141.815ZM25.0146 143.634L22.6093 141.815L22.006 142.612L24.4113 144.432L25.0146 143.634ZM26.7202 143.386C26.3171 143.935 25.5596 144.046 25.0146 143.634L24.4113 144.432C25.4015 145.181 26.793 144.976 27.5261 143.978L26.7202 143.386ZM26.7291 143.374C26.7262 143.378 26.7232 143.382 26.7202 143.386L27.5261 143.978C27.5315 143.971 27.5368 143.963 27.5421 143.956L26.7291 143.374ZM26.7375 143.362C26.7347 143.366 26.7319 143.37 26.7291 143.374L27.5421 143.956C27.547 143.949 27.5519 143.942 27.5568 143.935L26.7375 143.362ZM31.4295 136.813L26.7407 143.357L27.5536 143.94L32.2424 137.395L31.4295 136.813ZM31.1596 135.036C31.7105 135.453 31.8318 136.251 31.4295 136.813L32.2424 137.395C32.9604 136.393 32.7462 134.982 31.7629 134.239L31.1596 135.036Z" fill="#13594E" mask="url(#path-34-inside-7_242_239)"/>
<ellipse cx="48.9005" cy="140.757" rx="5.52386" ry="5.73315" fill="#83323F"/>
<mask id="path-37-inside-8_242_239" fill="white">
<path fill-rule="evenodd" clip-rule="evenodd" d="M43.8959 135.536C43.2785 136.177 43.2785 137.216 43.8959 137.857L46.6905 140.757L43.8959 143.658C43.2785 144.299 43.2785 145.338 43.8959 145.978C44.5132 146.619 45.5142 146.619 46.1316 145.978L48.9262 143.078L51.7209 145.978C52.3382 146.619 53.3392 146.619 53.9566 145.978C54.5739 145.337 54.5739 144.299 53.9566 143.658L51.1619 140.757L53.9566 137.857C54.5739 137.216 54.5739 136.177 53.9566 135.536C53.3392 134.896 52.3382 134.896 51.7209 135.536L48.9262 138.437L46.1316 135.536C45.5142 134.896 44.5132 134.896 43.8959 135.536Z"/>
</mask>
<path fill-rule="evenodd" clip-rule="evenodd" d="M43.8959 135.536C43.2785 136.177 43.2785 137.216 43.8959 137.857L46.6905 140.757L43.8959 143.658C43.2785 144.299 43.2785 145.338 43.8959 145.978C44.5132 146.619 45.5142 146.619 46.1316 145.978L48.9262 143.078L51.7209 145.978C52.3382 146.619 53.3392 146.619 53.9566 145.978C54.5739 145.337 54.5739 144.299 53.9566 143.658L51.1619 140.757L53.9566 137.857C54.5739 137.216 54.5739 136.177 53.9566 135.536C53.3392 134.896 52.3382 134.896 51.7209 135.536L48.9262 138.437L46.1316 135.536C45.5142 134.896 44.5132 134.896 43.8959 135.536Z" fill="white"/>
<path d="M43.8959 137.857L44.2428 137.497L43.8959 137.857ZM43.8959 135.536L43.5489 135.176L43.8959 135.536ZM46.6905 140.757L47.0374 141.117L47.3844 140.757L47.0374 140.397L46.6905 140.757ZM48.9262 143.078L49.2731 142.718L48.9262 142.358L48.5793 142.718L48.9262 143.078ZM51.1619 140.757L50.815 140.397L50.4681 140.757L50.815 141.117L51.1619 140.757ZM48.9262 138.437L48.5793 138.797L48.9262 139.157L49.2731 138.797L48.9262 138.437ZM46.1316 135.536L45.7846 135.896L46.1316 135.536ZM44.2428 137.497C43.817 137.055 43.817 136.338 44.2428 135.896L43.5489 135.176C42.74 136.016 42.74 137.377 43.5489 138.217L44.2428 137.497ZM47.0374 140.397L44.2428 137.497L43.5489 138.217L46.3436 141.117L47.0374 140.397ZM44.2428 144.018L47.0374 141.117L46.3436 140.397L43.5489 143.298L44.2428 144.018ZM44.2428 145.618C43.817 145.176 43.817 144.46 44.2428 144.018L43.5489 143.298C42.74 144.137 42.74 145.499 43.5489 146.338L44.2428 145.618ZM45.7846 145.618C45.3589 146.06 44.6686 146.06 44.2428 145.618L43.5489 146.338C44.3579 147.178 45.6695 147.178 46.4785 146.338L45.7846 145.618ZM48.5793 142.718L45.7846 145.618L46.4785 146.338L49.2731 143.438L48.5793 142.718ZM52.0678 145.618L49.2731 142.718L48.5793 143.438L51.3739 146.338L52.0678 145.618ZM53.6096 145.618C53.1839 146.06 52.4935 146.06 52.0678 145.618L51.3739 146.338C52.1829 147.178 53.4945 147.178 54.3035 146.338L53.6096 145.618ZM53.6096 144.018C54.0354 144.46 54.0354 145.176 53.6096 145.618L54.3035 146.338C55.1125 145.499 55.1125 144.137 54.3035 143.298L53.6096 144.018ZM50.815 141.117L53.6096 144.018L54.3035 143.298L51.5089 140.397L50.815 141.117ZM53.6096 137.497L50.815 140.397L51.5089 141.117L54.3035 138.217L53.6096 137.497ZM53.6096 135.896C54.0354 136.338 54.0354 137.055 53.6096 137.497L54.3035 138.217C55.1125 137.377 55.1125 136.016 54.3035 135.176L53.6096 135.896ZM52.0678 135.896C52.4935 135.455 53.1839 135.455 53.6096 135.896L54.3035 135.176C53.4945 134.337 52.1829 134.337 51.3739 135.176L52.0678 135.896ZM49.2731 138.797L52.0678 135.896L51.3739 135.176L48.5793 138.077L49.2731 138.797ZM45.7846 135.896L48.5793 138.797L49.2731 138.077L46.4785 135.176L45.7846 135.896ZM44.2428 135.896C44.6686 135.455 45.3589 135.455 45.7846 135.896L46.4785 135.176C45.6695 134.337 44.3579 134.337 43.5489 135.176L44.2428 135.896Z" fill="#83323F" mask="url(#path-37-inside-8_242_239)"/>
<rect x="21.6185" y="124.349" width="32.5775" height="5.9668" fill="#878787"/>
<rect x="18.7441" y="150.205" width="16.2888" height="22.8727" rx="2" fill="#878787"/>
<rect x="40.7818" y="150.205" width="16.2888" height="22.8727" rx="2" fill="#878787"/>
<rect x="197.606" y="40.8135" width="128.394" height="146.187" rx="10" fill="#F2F2F2"/>
<rect x="209.643" y="50.7582" width="46.95" height="58.6735" rx="5" fill="white"/>
<ellipse cx="221.674" cy="71.9026" rx="5.32404" ry="5.70878" fill="#13594E"/>
<mask id="path-45-inside-9_242_239" fill="white">
<path fill-rule="evenodd" clip-rule="evenodd" d="M227.151 66.0193C226.384 65.439 225.308 65.6024 224.748 66.3843L221.07 71.5181L220.042 70.7408C219.269 70.1558 218.184 70.3206 217.62 71.1088C217.055 71.8971 217.224 73.0103 217.997 73.5952L220.403 75.4147C221.17 75.9954 222.245 75.8373 222.813 75.0639C222.817 75.0582 222.821 75.0525 222.825 75.0467C222.829 75.0413 222.833 75.0358 222.837 75.0304L227.526 68.4857C228.086 67.7038 227.918 66.5995 227.151 66.0193Z"/>
</mask>
<path fill-rule="evenodd" clip-rule="evenodd" d="M227.151 66.0193C226.384 65.439 225.308 65.6024 224.748 66.3843L221.07 71.5181L220.042 70.7408C219.269 70.1558 218.184 70.3206 217.62 71.1088C217.055 71.8971 217.224 73.0103 217.997 73.5952L220.403 75.4147C221.17 75.9954 222.245 75.8373 222.813 75.0639C222.817 75.0582 222.821 75.0525 222.825 75.0467C222.829 75.0413 222.833 75.0358 222.837 75.0304L227.526 68.4857C228.086 67.7038 227.918 66.5995 227.151 66.0193Z" fill="white"/>
<path d="M224.748 66.3843L225.154 66.6755L225.154 66.6755L224.748 66.3843ZM227.151 66.0193L227.453 65.6205L227.453 65.6205L227.151 66.0193ZM221.07 71.5181L220.768 71.9168L221.178 72.2264L221.476 71.8093L221.07 71.5181ZM220.042 70.7408L219.741 71.1396L219.741 71.1396L220.042 70.7408ZM217.62 71.1088L217.213 70.8176L217.213 70.8176L217.62 71.1088ZM217.997 73.5952L218.299 73.1965L218.299 73.1965L217.997 73.5952ZM220.403 75.4147L220.704 75.016L220.704 75.016L220.403 75.4147ZM222.813 75.0639L223.216 75.3599L223.216 75.3599L222.813 75.0639ZM222.825 75.0467L222.419 74.7555L222.419 74.7555L222.825 75.0467ZM222.837 75.0304L222.43 74.7392L222.427 74.7437L222.837 75.0304ZM227.526 68.4857L227.932 68.7769L227.932 68.7769L227.526 68.4857ZM225.154 66.6755C225.551 66.1222 226.307 66.0074 226.849 66.418L227.453 65.6205C226.461 64.8706 225.065 65.0826 224.341 66.0931L225.154 66.6755ZM221.476 71.8093L225.154 66.6755L224.341 66.0931L220.664 71.2269L221.476 71.8093ZM219.741 71.1396L220.768 71.9168L221.372 71.1193L220.344 70.342L219.741 71.1396ZM218.026 71.4C218.427 70.8404 219.192 70.7243 219.741 71.1396L220.344 70.342C219.347 69.5874 217.942 69.8008 217.213 70.8176L218.026 71.4ZM218.299 73.1965C217.742 72.775 217.619 71.9679 218.026 71.4L217.213 70.8176C216.491 71.8262 216.706 73.2455 217.696 73.994L218.299 73.1965ZM220.704 75.016L218.299 73.1965L217.696 73.994L220.101 75.8135L220.704 75.016ZM222.41 74.7679C222.007 75.3167 221.249 75.4283 220.704 75.016L220.101 75.8135C221.091 76.5626 222.483 76.3579 223.216 75.3599L222.41 74.7679ZM222.419 74.7555C222.416 74.7597 222.413 74.7638 222.41 74.7679L223.216 75.3599C223.221 75.3526 223.227 75.3452 223.232 75.3379L222.419 74.7555ZM222.427 74.7437C222.425 74.7477 222.422 74.7516 222.419 74.7555L223.232 75.3379C223.237 75.331 223.242 75.324 223.247 75.317L222.427 74.7437ZM227.119 68.1945L222.431 74.7392L223.243 75.3216L227.932 68.7769L227.119 68.1945ZM226.849 66.418C227.4 66.8348 227.522 67.633 227.119 68.1945L227.932 68.7769C228.65 67.7746 228.436 66.3643 227.453 65.6205L226.849 66.418Z" fill="#13594E" mask="url(#path-45-inside-9_242_239)"/>
<ellipse cx="244.59" cy="72.1392" rx="5.52386" ry="5.73315" fill="#83323F"/>
<mask id="path-48-inside-10_242_239" fill="white">
<path fill-rule="evenodd" clip-rule="evenodd" d="M239.586 66.9183C238.968 67.5591 238.968 68.598 239.586 69.2387L242.38 72.1393L239.586 75.0398C238.968 75.6806 238.968 76.7195 239.586 77.3602C240.203 78.001 241.204 78.001 241.821 77.3602L244.616 74.4597L247.411 77.3602C248.028 78.001 249.029 78.001 249.646 77.3602C250.264 76.7194 250.264 75.6806 249.646 75.0398L246.852 72.1393L249.646 69.2388C250.264 68.598 250.264 67.5591 249.646 66.9184C249.029 66.2776 248.028 66.2776 247.411 66.9184L244.616 69.8189L241.821 66.9183C241.204 66.2775 240.203 66.2775 239.586 66.9183Z"/>
</mask>
<path fill-rule="evenodd" clip-rule="evenodd" d="M239.586 66.9183C238.968 67.5591 238.968 68.598 239.586 69.2387L242.38 72.1393L239.586 75.0398C238.968 75.6806 238.968 76.7195 239.586 77.3602C240.203 78.001 241.204 78.001 241.821 77.3602L244.616 74.4597L247.411 77.3602C248.028 78.001 249.029 78.001 249.646 77.3602C250.264 76.7194 250.264 75.6806 249.646 75.0398L246.852 72.1393L249.646 69.2388C250.264 68.598 250.264 67.5591 249.646 66.9184C249.029 66.2776 248.028 66.2776 247.411 66.9184L244.616 69.8189L241.821 66.9183C241.204 66.2775 240.203 66.2775 239.586 66.9183Z" fill="white"/>
<path d="M239.586 69.2387L239.239 69.5988L239.586 69.2387ZM239.586 66.9183L239.239 66.5583L239.586 66.9183ZM242.38 72.1393L242.727 72.4993L243.074 72.1393L242.727 71.7792L242.38 72.1393ZM239.586 75.0398L239.933 75.3999L239.586 75.0398ZM239.586 77.3602L239.239 77.7203L239.586 77.3602ZM241.821 77.3602L241.475 77.0002L241.821 77.3602ZM244.616 74.4597L244.963 74.0996L244.616 73.7396L244.269 74.0996L244.616 74.4597ZM249.646 75.0398L249.3 75.3999L249.646 75.0398ZM246.852 72.1393L246.505 71.7792L246.158 72.1393L246.505 72.4993L246.852 72.1393ZM249.646 69.2388L249.3 68.8787L249.646 69.2388ZM247.411 66.9184L247.064 66.5583L247.411 66.9184ZM244.616 69.8189L244.269 70.1789L244.616 70.539L244.963 70.1789L244.616 69.8189ZM239.933 68.8787C239.507 68.4368 239.507 67.7203 239.933 67.2784L239.239 66.5583C238.43 67.3979 238.43 68.7592 239.239 69.5988L239.933 68.8787ZM242.727 71.7792L239.933 68.8787L239.239 69.5988L242.033 72.4993L242.727 71.7792ZM239.933 75.3999L242.727 72.4993L242.033 71.7792L239.239 74.6798L239.933 75.3999ZM239.933 77.0002C239.507 76.5583 239.507 75.8418 239.933 75.3999L239.239 74.6798C238.43 75.5194 238.43 76.8807 239.239 77.7203L239.933 77.0002ZM241.475 77.0002C241.049 77.4421 240.358 77.4421 239.933 77.0002L239.239 77.7203C240.048 78.5599 241.359 78.5599 242.168 77.7203L241.475 77.0002ZM244.269 74.0996L241.475 77.0002L242.168 77.7203L244.963 74.8198L244.269 74.0996ZM247.758 77.0001L244.963 74.0996L244.269 74.8198L247.064 77.7203L247.758 77.0001ZM249.3 77.0001C248.874 77.4421 248.183 77.4421 247.758 77.0001L247.064 77.7203C247.873 78.5599 249.184 78.5599 249.993 77.7203L249.3 77.0001ZM249.3 75.3999C249.725 75.8418 249.725 76.5582 249.3 77.0001L249.993 77.7203C250.802 76.8806 250.802 75.5193 249.993 74.6797L249.3 75.3999ZM246.505 72.4993L249.3 75.3999L249.993 74.6797L247.199 71.7792L246.505 72.4993ZM249.3 68.8787L246.505 71.7792L247.199 72.4993L249.993 69.5988L249.3 68.8787ZM249.3 67.2784C249.725 67.7203 249.725 68.4368 249.3 68.8787L249.993 69.5988C250.802 68.7592 250.802 67.3979 249.993 66.5583L249.3 67.2784ZM247.758 67.2784C248.183 66.8365 248.874 66.8365 249.3 67.2784L249.993 66.5583C249.184 65.7187 247.873 65.7187 247.064 66.5583L247.758 67.2784ZM244.963 70.1789L247.758 67.2784L247.064 66.5583L244.269 69.4588L244.963 70.1789ZM241.475 67.2784L244.269 70.1789L244.963 69.4588L242.168 66.5583L241.475 67.2784ZM239.933 67.2784C240.358 66.8365 241.049 66.8365 241.475 67.2784L242.168 66.5583C241.359 65.7186 240.048 65.7186 239.239 66.5583L239.933 67.2784Z" fill="#83323F" mask="url(#path-48-inside-10_242_239)"/>
<rect x="217.308" y="55.7305" width="32.5775" height="5.9668" fill="#878787"/>
<rect x="214.434" y="81.5867" width="16.2888" height="22.8727" rx="2" fill="#878787"/>
<rect x="236.472" y="81.5867" width="16.2888" height="22.8727" rx="2" fill="#878787"/>
<rect x="267.133" y="50.7582" width="46.95" height="58.6735" rx="5" fill="white"/>
<ellipse cx="279.164" cy="61.9578" rx="5.32404" ry="5.70878" fill="#83323F"/>
<mask id="path-55-inside-11_242_239" fill="white">
<path fill-rule="evenodd" clip-rule="evenodd" d="M284.641 56.0744C283.874 55.4942 282.798 55.6576 282.238 56.4395L278.56 61.5733L277.532 60.796C276.759 60.211 275.674 60.3758 275.109 61.164C274.545 61.9522 274.714 63.0654 275.487 63.6504L277.892 65.4699C277.899 65.4752 277.906 65.4804 277.913 65.4856C278.68 66.0572 279.749 65.8918 280.307 65.1132L280.311 65.1072C280.312 65.1054 280.314 65.1036 280.315 65.1019C280.316 65.1001 280.318 65.0983 280.319 65.0965L285.015 58.5409C285.576 57.759 285.408 56.6547 284.641 56.0744Z"/>
</mask>
<path fill-rule="evenodd" clip-rule="evenodd" d="M284.641 56.0744C283.874 55.4942 282.798 55.6576 282.238 56.4395L278.56 61.5733L277.532 60.796C276.759 60.211 275.674 60.3758 275.109 61.164C274.545 61.9522 274.714 63.0654 275.487 63.6504L277.892 65.4699C277.899 65.4752 277.906 65.4804 277.913 65.4856C278.68 66.0572 279.749 65.8918 280.307 65.1132L280.311 65.1072C280.312 65.1054 280.314 65.1036 280.315 65.1019C280.316 65.1001 280.318 65.0983 280.319 65.0965L285.015 58.5409C285.576 57.759 285.408 56.6547 284.641 56.0744Z" fill="white"/>
<path d="M282.238 56.4395L282.644 56.7307L282.644 56.7307L282.238 56.4395ZM284.641 56.0744L284.942 55.6757L284.942 55.6757L284.641 56.0744ZM278.56 61.5733L278.258 61.9721L278.667 62.2816L278.966 61.8645L278.56 61.5733ZM277.532 60.796L277.23 61.1947L277.23 61.1947L277.532 60.796ZM275.109 61.164L274.703 60.8728L274.703 60.8728L275.109 61.164ZM275.487 63.6504L275.789 63.2517L275.789 63.2517L275.487 63.6504ZM277.892 65.4699L278.194 65.0711L278.194 65.0711L277.892 65.4699ZM277.913 65.4856L278.212 65.0848L278.209 65.0824L277.913 65.4856ZM280.307 65.1132L280.713 65.4044L280.713 65.4044L280.307 65.1132ZM280.311 65.1072L279.906 64.8144L279.905 64.816L280.311 65.1072ZM280.319 65.0965L279.912 64.8053L279.911 64.8069L280.319 65.0965ZM285.015 58.5409L285.422 58.832L285.422 58.832L285.015 58.5409ZM282.644 56.7307C283.04 56.1774 283.796 56.0626 284.339 56.4732L284.942 55.6757C283.951 54.9258 282.555 55.1378 281.831 56.1483L282.644 56.7307ZM278.966 61.8645L282.644 56.7307L281.831 56.1483L278.153 61.2821L278.966 61.8645ZM277.23 61.1947L278.258 61.9721L278.861 61.1745L277.834 60.3972L277.23 61.1947ZM275.516 61.4552C275.917 60.8956 276.681 60.7794 277.23 61.1947L277.834 60.3972C276.836 59.6426 275.431 59.856 274.703 60.8728L275.516 61.4552ZM275.789 63.2517C275.232 62.8302 275.109 62.0231 275.516 61.4552L274.703 60.8728C273.98 61.8814 274.196 63.3006 275.185 64.0492L275.789 63.2517ZM278.194 65.0711L275.789 63.2517L275.185 64.0492L277.591 65.8686L278.194 65.0711ZM278.209 65.0824C278.204 65.0787 278.199 65.0749 278.194 65.0711L277.591 65.8686C277.6 65.8754 277.609 65.8821 277.618 65.8887L278.209 65.0824ZM279.9 64.822C279.506 65.373 278.754 65.4891 278.212 65.0848L277.614 65.8864C278.605 66.6252 279.992 66.4106 280.713 65.4044L279.9 64.822ZM279.905 64.816L279.9 64.822L280.713 65.4044L280.718 65.3984L279.905 64.816ZM279.909 64.8106C279.908 64.812 279.907 64.8132 279.906 64.8144L280.716 65.3999C280.718 65.3976 280.72 65.3953 280.721 65.3931L279.909 64.8106ZM279.911 64.8069C279.91 64.8081 279.909 64.8093 279.909 64.8106L280.721 65.3931C280.723 65.3909 280.725 65.3886 280.726 65.3862L279.911 64.8069ZM284.609 58.2497L279.912 64.8053L280.725 65.3877L285.422 58.832L284.609 58.2497ZM284.339 56.4732C284.89 56.8899 285.011 57.6881 284.609 58.2497L285.422 58.832C286.14 57.8298 285.926 56.4195 284.942 55.6757L284.339 56.4732Z" fill="#83323F" mask="url(#path-55-inside-11_242_239)"/>
<ellipse cx="302.08" cy="62.1945" rx="5.52386" ry="5.73315" fill="#13594E"/>
<mask id="path-58-inside-12_242_239" fill="white">
<path fill-rule="evenodd" clip-rule="evenodd" d="M297.075 56.9736C296.458 57.6144 296.458 58.6533 297.075 59.294L299.87 62.1946L297.075 65.0951C296.458 65.7359 296.458 66.7748 297.075 67.4155C297.693 68.0563 298.694 68.0563 299.311 67.4155L302.106 64.515L304.9 67.4155C305.518 68.0563 306.519 68.0563 307.136 67.4155C307.754 66.7747 307.754 65.7359 307.136 65.0951L304.342 62.1946L307.136 59.2941C307.754 58.6533 307.754 57.6144 307.136 56.9737C306.519 56.3329 305.518 56.3329 304.9 56.9737L302.106 59.8742L299.311 56.9736C298.694 56.3328 297.693 56.3328 297.075 56.9736Z"/>
</mask>
<path fill-rule="evenodd" clip-rule="evenodd" d="M297.075 56.9736C296.458 57.6144 296.458 58.6533 297.075 59.294L299.87 62.1946L297.075 65.0951C296.458 65.7359 296.458 66.7748 297.075 67.4155C297.693 68.0563 298.694 68.0563 299.311 67.4155L302.106 64.515L304.9 67.4155C305.518 68.0563 306.519 68.0563 307.136 67.4155C307.754 66.7747 307.754 65.7359 307.136 65.0951L304.342 62.1946L307.136 59.2941C307.754 58.6533 307.754 57.6144 307.136 56.9737C306.519 56.3329 305.518 56.3329 304.9 56.9737L302.106 59.8742L299.311 56.9736C298.694 56.3328 297.693 56.3328 297.075 56.9736Z" fill="white"/>
<path d="M297.075 59.294L297.422 58.934L297.075 59.294ZM297.075 56.9736L297.422 57.3337L297.075 56.9736ZM299.87 62.1946L300.217 62.5546L300.564 62.1946L300.217 61.8345L299.87 62.1946ZM297.075 67.4155L296.728 67.7756L297.075 67.4155ZM302.106 64.515L302.453 64.1549L302.106 63.7949L301.759 64.1549L302.106 64.515ZM304.9 67.4155L305.247 67.0554L304.9 67.4155ZM307.136 65.0951L306.789 65.4552L307.136 65.0951ZM304.342 62.1946L303.995 61.8345L303.648 62.1946L303.995 62.5546L304.342 62.1946ZM302.106 59.8742L301.759 60.2342L302.106 60.5943L302.453 60.2342L302.106 59.8742ZM299.311 56.9736L298.964 57.3337L299.311 56.9736ZM297.422 58.934C296.997 58.4921 296.997 57.7756 297.422 57.3337L296.728 56.6135C295.92 57.4532 295.92 58.8145 296.728 59.6541L297.422 58.934ZM300.217 61.8345L297.422 58.934L296.728 59.6541L299.523 62.5546L300.217 61.8345ZM297.422 65.4552L300.217 62.5546L299.523 61.8345L296.728 64.7351L297.422 65.4552ZM297.422 67.0555C296.997 66.6136 296.997 65.8971 297.422 65.4552L296.728 64.7351C295.92 65.5747 295.92 66.936 296.728 67.7756L297.422 67.0555ZM298.964 67.0555C298.538 67.4974 297.848 67.4974 297.422 67.0555L296.728 67.7756C297.537 68.6152 298.849 68.6152 299.658 67.7756L298.964 67.0555ZM301.759 64.1549L298.964 67.0555L299.658 67.7756L302.453 64.8751L301.759 64.1549ZM305.247 67.0554L302.453 64.1549L301.759 64.8751L304.553 67.7756L305.247 67.0554ZM306.789 67.0554C306.363 67.4974 305.673 67.4974 305.247 67.0554L304.553 67.7756C305.362 68.6152 306.674 68.6152 307.483 67.7756L306.789 67.0554ZM306.789 65.4552C307.215 65.8971 307.215 66.6135 306.789 67.0554L307.483 67.7756C308.292 66.9359 308.292 65.5746 307.483 64.735L306.789 65.4552ZM303.995 62.5546L306.789 65.4552L307.483 64.735L304.688 61.8345L303.995 62.5546ZM306.789 58.934L303.995 61.8345L304.688 62.5546L307.483 59.6541L306.789 58.934ZM306.789 57.3337C307.215 57.7756 307.215 58.4921 306.789 58.934L307.483 59.6541C308.292 58.8145 308.292 57.4532 307.483 56.6136L306.789 57.3337ZM305.247 57.3337C305.673 56.8918 306.363 56.8918 306.789 57.3337L307.483 56.6136C306.674 55.774 305.362 55.774 304.553 56.6136L305.247 57.3337ZM302.453 60.2342L305.247 57.3337L304.553 56.6136L301.759 59.5141L302.453 60.2342ZM298.964 57.3337L301.759 60.2342L302.453 59.5141L299.658 56.6135L298.964 57.3337ZM297.422 57.3337C297.848 56.8918 298.538 56.8918 298.964 57.3337L299.658 56.6135C298.849 55.7739 297.537 55.7739 296.728 56.6135L297.422 57.3337Z" fill="#13594E" mask="url(#path-58-inside-12_242_239)"/>
<rect x="274.798" y="71.642" width="32.5775" height="5.9668" fill="#878787"/>
<rect x="271.924" y="81.5867" width="16.2888" height="22.8727" rx="2" fill="#878787"/>
<rect x="293.961" y="81.5867" width="16.2888" height="22.8727" rx="2" fill="#878787"/>
<rect x="209.643" y="119.376" width="46.95" height="58.6735" rx="5" fill="white"/>
<ellipse cx="221.674" cy="166.377" rx="5.32404" ry="5.70878" fill="#13594E"/>
<mask id="path-65-inside-13_242_239" fill="white">
<path fill-rule="evenodd" clip-rule="evenodd" d="M227.151 160.494C226.384 159.913 225.308 160.077 224.748 160.859L221.07 165.992L220.042 165.215C219.269 164.63 218.184 164.795 217.62 165.583C217.055 166.371 217.224 167.485 217.997 168.07L220.403 169.889C221.17 170.47 222.245 170.312 222.813 169.538C222.817 169.533 222.821 169.527 222.825 169.521C222.829 169.516 222.833 169.51 222.837 169.505L227.526 162.96C228.086 162.178 227.918 161.074 227.151 160.494Z"/>
</mask>
<path fill-rule="evenodd" clip-rule="evenodd" d="M227.151 160.494C226.384 159.913 225.308 160.077 224.748 160.859L221.07 165.992L220.042 165.215C219.269 164.63 218.184 164.795 217.62 165.583C217.055 166.371 217.224 167.485 217.997 168.07L220.403 169.889C221.17 170.47 222.245 170.312 222.813 169.538C222.817 169.533 222.821 169.527 222.825 169.521C222.829 169.516 222.833 169.51 222.837 169.505L227.526 162.96C228.086 162.178 227.918 161.074 227.151 160.494Z" fill="white"/>
<path d="M224.748 160.859L225.154 161.15L225.154 161.15L224.748 160.859ZM227.151 160.494L227.453 160.095L227.453 160.095L227.151 160.494ZM221.07 165.992L220.768 166.391L221.178 166.701L221.476 166.284L221.07 165.992ZM220.042 165.215L219.741 165.614L219.741 165.614L220.042 165.215ZM217.62 165.583L217.213 165.292L217.213 165.292L217.62 165.583ZM217.997 168.07L218.299 167.671L218.299 167.671L217.997 168.07ZM220.403 169.889L220.704 169.49L220.704 169.49L220.403 169.889ZM222.813 169.538L223.216 169.834L223.216 169.834L222.813 169.538ZM222.825 169.521L222.419 169.23L222.419 169.23L222.825 169.521ZM222.837 169.505L222.43 169.214L222.427 169.218L222.837 169.505ZM227.526 162.96L227.932 163.251L227.932 163.251L227.526 162.96ZM225.154 161.15C225.551 160.597 226.307 160.482 226.849 160.892L227.453 160.095C226.461 159.345 225.065 159.557 224.341 160.567L225.154 161.15ZM221.476 166.284L225.154 161.15L224.341 160.567L220.664 165.701L221.476 166.284ZM219.741 165.614L220.768 166.391L221.372 165.594L220.344 164.816L219.741 165.614ZM218.026 165.874C218.427 165.315 219.192 165.199 219.741 165.614L220.344 164.816C219.347 164.062 217.942 164.275 217.213 165.292L218.026 165.874ZM218.299 167.671C217.742 167.249 217.619 166.442 218.026 165.874L217.213 165.292C216.491 166.301 216.706 167.72 217.696 168.468L218.299 167.671ZM220.704 169.49L218.299 167.671L217.696 168.468L220.101 170.288L220.704 169.49ZM222.41 169.242C222.007 169.791 221.249 169.903 220.704 169.49L220.101 170.288C221.091 171.037 222.483 170.832 223.216 169.834L222.41 169.242ZM222.419 169.23C222.416 169.234 222.413 169.238 222.41 169.242L223.216 169.834C223.221 169.827 223.227 169.82 223.232 169.812L222.419 169.23ZM222.427 169.218C222.425 169.222 222.422 169.226 222.419 169.23L223.232 169.812C223.237 169.805 223.242 169.798 223.247 169.791L222.427 169.218ZM227.119 162.669L222.431 169.214L223.243 169.796L227.932 163.251L227.119 162.669ZM226.849 160.892C227.4 161.309 227.522 162.107 227.119 162.669L227.932 163.251C228.65 162.249 228.436 160.839 227.453 160.095L226.849 160.892Z" fill="#13594E" mask="url(#path-65-inside-13_242_239)"/>
<ellipse cx="244.59" cy="166.613" rx="5.52386" ry="5.73315" fill="#83323F"/>
<mask id="path-68-inside-14_242_239" fill="white">
<path fill-rule="evenodd" clip-rule="evenodd" d="M239.586 161.392C238.968 162.033 238.968 163.072 239.586 163.713L242.38 166.613L239.586 169.514C238.968 170.155 238.968 171.194 239.586 171.834C240.203 172.475 241.204 172.475 241.821 171.834L244.616 168.934L247.411 171.834C248.028 172.475 249.029 172.475 249.646 171.834C250.264 171.194 250.264 170.155 249.646 169.514L246.852 166.613L249.646 163.713C250.264 163.072 250.264 162.033 249.646 161.392C249.029 160.752 248.028 160.752 247.411 161.392L244.616 164.293L241.821 161.392C241.204 160.752 240.203 160.752 239.586 161.392Z"/>
</mask>
<path fill-rule="evenodd" clip-rule="evenodd" d="M239.586 161.392C238.968 162.033 238.968 163.072 239.586 163.713L242.38 166.613L239.586 169.514C238.968 170.155 238.968 171.194 239.586 171.834C240.203 172.475 241.204 172.475 241.821 171.834L244.616 168.934L247.411 171.834C248.028 172.475 249.029 172.475 249.646 171.834C250.264 171.194 250.264 170.155 249.646 169.514L246.852 166.613L249.646 163.713C250.264 163.072 250.264 162.033 249.646 161.392C249.029 160.752 248.028 160.752 247.411 161.392L244.616 164.293L241.821 161.392C241.204 160.752 240.203 160.752 239.586 161.392Z" fill="white"/>
<path d="M239.586 163.713L239.933 163.353L239.586 163.713ZM239.586 161.392L239.933 161.753L239.586 161.392ZM242.38 166.613L242.727 166.973L243.074 166.613L242.727 166.253L242.38 166.613ZM239.586 169.514L239.933 169.874L239.586 169.514ZM241.821 171.834L242.168 172.194L241.821 171.834ZM244.616 168.934L244.963 168.574L244.616 168.214L244.269 168.574L244.616 168.934ZM247.411 171.834L247.064 172.194L247.411 171.834ZM249.646 169.514L249.3 169.874L249.646 169.514ZM246.852 166.613L246.505 166.253L246.158 166.613L246.505 166.973L246.852 166.613ZM249.646 163.713L249.3 163.353L249.646 163.713ZM244.616 164.293L244.269 164.653L244.616 165.013L244.963 164.653L244.616 164.293ZM239.933 163.353C239.507 162.911 239.507 162.194 239.933 161.753L239.239 161.032C238.43 161.872 238.43 163.233 239.239 164.073L239.933 163.353ZM242.727 166.253L239.933 163.353L239.239 164.073L242.033 166.973L242.727 166.253ZM239.933 169.874L242.727 166.973L242.033 166.253L239.239 169.154L239.933 169.874ZM239.933 171.474C239.507 171.032 239.507 170.316 239.933 169.874L239.239 169.154C238.43 169.994 238.43 171.355 239.239 172.194L239.933 171.474ZM241.475 171.474C241.049 171.916 240.358 171.916 239.933 171.474L239.239 172.194C240.048 173.034 241.359 173.034 242.168 172.194L241.475 171.474ZM244.269 168.574L241.475 171.474L242.168 172.194L244.963 169.294L244.269 168.574ZM247.758 171.474L244.963 168.574L244.269 169.294L247.064 172.194L247.758 171.474ZM249.3 171.474C248.874 171.916 248.183 171.916 247.758 171.474L247.064 172.194C247.873 173.034 249.184 173.034 249.993 172.194L249.3 171.474ZM249.3 169.874C249.725 170.316 249.725 171.032 249.3 171.474L249.993 172.194C250.802 171.355 250.802 169.993 249.993 169.154L249.3 169.874ZM246.505 166.973L249.3 169.874L249.993 169.154L247.199 166.253L246.505 166.973ZM249.3 163.353L246.505 166.253L247.199 166.973L249.993 164.073L249.3 163.353ZM249.3 161.753C249.725 162.194 249.725 162.911 249.3 163.353L249.993 164.073C250.802 163.233 250.802 161.872 249.993 161.032L249.3 161.753ZM247.758 161.753C248.183 161.311 248.874 161.311 249.3 161.753L249.993 161.032C249.184 160.193 247.873 160.193 247.064 161.032L247.758 161.753ZM244.963 164.653L247.758 161.753L247.064 161.032L244.269 163.933L244.963 164.653ZM241.475 161.752L244.269 164.653L244.963 163.933L242.168 161.032L241.475 161.752ZM239.933 161.753C240.358 161.311 241.049 161.311 241.475 161.752L242.168 161.032C241.359 160.193 240.048 160.193 239.239 161.032L239.933 161.753Z" fill="#83323F" mask="url(#path-68-inside-14_242_239)"/>
<rect x="217.308" y="124.349" width="32.5775" height="5.9668" fill="#878787"/>
<rect x="214.434" y="134.293" width="16.2888" height="22.8727" rx="2" fill="#878787"/>
<rect x="236.472" y="134.293" width="16.2888" height="22.8727" rx="2" fill="#878787"/>
<rect x="267.133" y="119.376" width="46.95" height="58.6735" rx="5" fill="white"/>
<ellipse cx="302.16" cy="140.521" rx="5.32404" ry="5.70878" fill="#13594E"/>
<mask id="path-75-inside-15_242_239" fill="white">
<path fill-rule="evenodd" clip-rule="evenodd" d="M307.637 134.637C306.87 134.057 305.794 134.22 305.233 135.002L301.555 140.136L300.528 139.359C299.755 138.774 298.67 138.939 298.105 139.727C297.54 140.515 297.71 141.628 298.483 142.213L300.888 144.033C300.895 144.038 300.902 144.043 300.909 144.048C301.676 144.62 302.745 144.455 303.303 143.676L303.307 143.67C303.308 143.668 303.31 143.667 303.311 143.665C303.312 143.663 303.313 143.661 303.315 143.659L308.011 137.104C308.571 136.322 308.404 135.218 307.637 134.637Z"/>
</mask>
<path fill-rule="evenodd" clip-rule="evenodd" d="M307.637 134.637C306.87 134.057 305.794 134.22 305.233 135.002L301.555 140.136L300.528 139.359C299.755 138.774 298.67 138.939 298.105 139.727C297.54 140.515 297.71 141.628 298.483 142.213L300.888 144.033C300.895 144.038 300.902 144.043 300.909 144.048C301.676 144.62 302.745 144.455 303.303 143.676L303.307 143.67C303.308 143.668 303.31 143.667 303.311 143.665C303.312 143.663 303.313 143.661 303.315 143.659L308.011 137.104C308.571 136.322 308.404 135.218 307.637 134.637Z" fill="white"/>
<path d="M305.233 135.002L305.64 135.294L305.64 135.294L305.233 135.002ZM307.637 134.637L307.938 134.239L307.938 134.239L307.637 134.637ZM301.555 140.136L301.254 140.535L301.663 140.845L301.962 140.427L301.555 140.136ZM300.528 139.359L300.226 139.758L300.226 139.758L300.528 139.359ZM298.105 139.727L297.699 139.436L297.699 139.436L298.105 139.727ZM298.483 142.213L298.785 141.815L298.785 141.815L298.483 142.213ZM300.888 144.033L301.19 143.634L301.19 143.634L300.888 144.033ZM300.909 144.048L301.208 143.648L301.205 143.645L300.909 144.048ZM303.303 143.676L303.709 143.967L303.709 143.967L303.303 143.676ZM303.307 143.67L302.902 143.377L302.901 143.379L303.307 143.67ZM303.315 143.659L302.908 143.368L302.907 143.37L303.315 143.659ZM308.011 137.104L308.418 137.395L308.418 137.395L308.011 137.104ZM305.64 135.294C306.036 134.74 306.792 134.625 307.335 135.036L307.938 134.239C306.947 133.489 305.551 133.701 304.827 134.711L305.64 135.294ZM301.962 140.427L305.64 135.294L304.827 134.711L301.149 139.845L301.962 140.427ZM300.226 139.758L301.254 140.535L301.857 139.737L300.83 138.96L300.226 139.758ZM298.512 140.018C298.913 139.458 299.677 139.342 300.226 139.758L300.83 138.96C299.832 138.205 298.427 138.419 297.699 139.436L298.512 140.018ZM298.785 141.815C298.227 141.393 298.105 140.586 298.512 140.018L297.699 139.436C296.976 140.444 297.192 141.864 298.181 142.612L298.785 141.815ZM301.19 143.634L298.785 141.815L298.181 142.612L300.586 144.432L301.19 143.634ZM301.205 143.645C301.2 143.642 301.195 143.638 301.19 143.634L300.586 144.432C300.595 144.438 300.604 144.445 300.613 144.452L301.205 143.645ZM302.896 143.385C302.501 143.936 301.75 144.052 301.208 143.648L300.61 144.449C301.601 145.188 302.988 144.973 303.709 143.967L302.896 143.385ZM302.901 143.379L302.896 143.385L303.709 143.967L303.713 143.961L302.901 143.379ZM302.904 143.374C302.903 143.375 302.903 143.376 302.902 143.377L303.712 143.963C303.714 143.96 303.716 143.958 303.717 143.956L302.904 143.374ZM302.907 143.37C302.906 143.371 302.905 143.372 302.904 143.374L303.717 143.956C303.719 143.954 303.72 143.951 303.722 143.949L302.907 143.37ZM307.605 136.813L302.908 143.368L303.721 143.951L308.418 137.395L307.605 136.813ZM307.335 135.036C307.886 135.453 308.007 136.251 307.605 136.813L308.418 137.395C309.136 136.393 308.922 134.982 307.938 134.239L307.335 135.036Z" fill="#13594E" mask="url(#path-75-inside-15_242_239)"/>
<ellipse cx="280.042" cy="140.757" rx="5.52386" ry="5.73315" fill="#83323F"/>
<mask id="path-78-inside-16_242_239" fill="white">
<path fill-rule="evenodd" clip-rule="evenodd" d="M275.038 135.536C274.42 136.177 274.42 137.216 275.038 137.857L277.832 140.757L275.038 143.658C274.42 144.299 274.42 145.338 275.038 145.978C275.655 146.619 276.656 146.619 277.273 145.978L280.068 143.078L282.863 145.978C283.48 146.619 284.481 146.619 285.098 145.978C285.716 145.337 285.716 144.299 285.098 143.658L282.304 140.757L285.098 137.857C285.716 137.216 285.716 136.177 285.098 135.536C284.481 134.896 283.48 134.896 282.863 135.536L280.068 138.437L277.273 135.536C276.656 134.896 275.655 134.896 275.038 135.536Z"/>
</mask>
<path fill-rule="evenodd" clip-rule="evenodd" d="M275.038 135.536C274.42 136.177 274.42 137.216 275.038 137.857L277.832 140.757L275.038 143.658C274.42 144.299 274.42 145.338 275.038 145.978C275.655 146.619 276.656 146.619 277.273 145.978L280.068 143.078L282.863 145.978C283.48 146.619 284.481 146.619 285.098 145.978C285.716 145.337 285.716 144.299 285.098 143.658L282.304 140.757L285.098 137.857C285.716 137.216 285.716 136.177 285.098 135.536C284.481 134.896 283.48 134.896 282.863 135.536L280.068 138.437L277.273 135.536C276.656 134.896 275.655 134.896 275.038 135.536Z" fill="white"/>
<path d="M275.038 135.536L275.384 135.896L275.038 135.536ZM277.832 140.757L278.179 141.117L278.526 140.757L278.179 140.397L277.832 140.757ZM275.038 145.978L275.384 145.618L275.038 145.978ZM280.068 143.078L280.415 142.718L280.068 142.358L279.721 142.718L280.068 143.078ZM285.098 143.658L284.751 144.018L285.098 143.658ZM282.304 140.757L281.957 140.397L281.61 140.757L281.957 141.117L282.304 140.757ZM285.098 137.857L284.751 137.497L285.098 137.857ZM280.068 138.437L279.721 138.797L280.068 139.157L280.415 138.797L280.068 138.437ZM277.273 135.536L276.926 135.896L277.273 135.536ZM275.384 137.497C274.959 137.055 274.959 136.338 275.384 135.896L274.691 135.176C273.882 136.016 273.882 137.377 274.691 138.217L275.384 137.497ZM278.179 140.397L275.384 137.497L274.691 138.217L277.485 141.117L278.179 140.397ZM275.384 144.018L278.179 141.117L277.485 140.397L274.691 143.298L275.384 144.018ZM275.384 145.618C274.959 145.176 274.959 144.46 275.384 144.018L274.691 143.298C273.882 144.137 273.882 145.499 274.691 146.338L275.384 145.618ZM276.926 145.618C276.501 146.06 275.81 146.06 275.384 145.618L274.691 146.338C275.5 147.178 276.811 147.178 277.62 146.338L276.926 145.618ZM279.721 142.718L276.926 145.618L277.62 146.338L280.415 143.438L279.721 142.718ZM283.209 145.618L280.415 142.718L279.721 143.438L282.516 146.338L283.209 145.618ZM284.751 145.618C284.326 146.06 283.635 146.06 283.209 145.618L282.516 146.338C283.325 147.178 284.636 147.178 285.445 146.338L284.751 145.618ZM284.751 144.018C285.177 144.46 285.177 145.176 284.751 145.618L285.445 146.338C286.254 145.499 286.254 144.137 285.445 143.298L284.751 144.018ZM281.957 141.117L284.751 144.018L285.445 143.298L282.651 140.397L281.957 141.117ZM284.751 137.497L281.957 140.397L282.651 141.117L285.445 138.217L284.751 137.497ZM284.751 135.896C285.177 136.338 285.177 137.055 284.751 137.497L285.445 138.217C286.254 137.377 286.254 136.016 285.445 135.176L284.751 135.896ZM283.209 135.896C283.635 135.455 284.326 135.455 284.751 135.896L285.445 135.176C284.636 134.337 283.325 134.337 282.516 135.176L283.209 135.896ZM280.415 138.797L283.209 135.896L282.516 135.176L279.721 138.077L280.415 138.797ZM276.926 135.896L279.721 138.797L280.415 138.077L277.62 135.176L276.926 135.896ZM275.384 135.896C275.81 135.455 276.501 135.455 276.926 135.896L277.62 135.176C276.811 134.337 275.5 134.337 274.691 135.176L275.384 135.896Z" fill="#83323F" mask="url(#path-78-inside-16_242_239)"/>
<rect x="274.798" y="124.349" width="32.5775" height="5.9668" fill="#878787"/>
<rect x="271.924" y="150.205" width="16.2888" height="22.8727" rx="2" fill="#878787"/>
<rect x="293.961" y="150.205" width="16.2888" height="22.8727" rx="2" fill="#878787"/>
<path d="M155.63 107.553H153.628L149.458 97.0846H151.304L153.667 103.256C153.785 103.543 153.905 103.862 154.029 104.214C154.153 104.559 154.263 104.894 154.361 105.219C154.465 105.545 154.537 105.815 154.576 106.03H154.664C154.716 105.815 154.794 105.545 154.898 105.219C155.009 104.887 155.129 104.549 155.259 104.204C155.389 103.852 155.51 103.536 155.621 103.256L157.974 97.0846H159.81L155.63 107.553ZM169.039 104.663C169.039 105.678 168.622 106.447 167.789 106.967C166.962 107.488 165.861 107.749 164.488 107.749C163.681 107.749 162.99 107.69 162.417 107.573C161.851 107.462 161.356 107.299 160.933 107.085V105.522C161.356 105.724 161.89 105.916 162.535 106.098C163.186 106.274 163.856 106.362 164.546 106.362C165.536 106.362 166.255 106.222 166.705 105.942C167.154 105.662 167.378 105.288 167.378 104.819C167.378 104.559 167.297 104.324 167.134 104.116C166.978 103.908 166.692 103.699 166.275 103.491C165.865 103.283 165.279 103.048 164.517 102.788C163.768 102.527 163.124 102.267 162.583 102.006C162.043 101.746 161.626 101.434 161.333 101.069C161.047 100.704 160.904 100.236 160.904 99.6627C160.904 98.7708 161.298 98.0872 162.085 97.6119C162.873 97.1302 163.905 96.8893 165.181 96.8893C165.871 96.8893 166.516 96.9544 167.115 97.0846C167.714 97.2083 168.274 97.3776 168.794 97.5924L168.189 98.9596C167.714 98.7708 167.212 98.6145 166.685 98.4908C166.164 98.3606 165.614 98.2955 165.035 98.2955C164.227 98.2955 163.609 98.4095 163.179 98.6373C162.756 98.8652 162.544 99.1744 162.544 99.5651C162.544 99.858 162.639 100.105 162.828 100.307C163.023 100.509 163.339 100.704 163.775 100.893C164.218 101.082 164.813 101.303 165.562 101.557C166.298 101.805 166.923 102.062 167.437 102.329C167.958 102.589 168.355 102.905 168.628 103.276C168.902 103.641 169.039 104.103 169.039 104.663ZM171.685 106.499C171.685 106.017 171.822 105.678 172.095 105.483C172.375 105.288 172.714 105.19 173.111 105.19C173.528 105.19 173.889 105.288 174.195 105.483C174.501 105.678 174.654 106.017 174.654 106.499C174.654 106.967 174.501 107.306 174.195 107.514C173.889 107.723 173.528 107.827 173.111 107.827C172.714 107.827 172.375 107.723 172.095 107.514C171.822 107.306 171.685 106.967 171.685 106.499Z" fill="black"/>
<path fill-rule="evenodd" clip-rule="evenodd" d="M56.4307 13.7398L60.7637 16.7529L71.4958 2.98246C72.3402 1.89899 73.9766 1.6532 75.108 2.43992C76.1828 3.18729 76.398 4.59016 75.5958 5.61946L63.3941 21.2756L63.3836 21.2889L63.3753 21.2994L63.3672 21.31L63.357 21.3232C62.5331 22.3804 60.9355 22.6203 59.8315 21.8526L59.7915 21.8248L59.7871 21.8217L59.7817 21.818L59.7768 21.8145L53.3805 17.3668C52.3332 16.6385 52.1236 15.2724 52.9053 14.2693C53.7292 13.2121 55.3268 12.9722 56.4307 13.7398ZM68.8957 3.07816L69.912 1.77409C71.4099 -0.14787 74.2511 -0.574615 76.258 0.820936C78.2649 2.21649 78.6775 4.90586 77.1796 6.82783L74.846 9.82207C75.4988 11.4118 75.8582 13.1494 75.8582 14.9698C75.8582 22.5525 69.6219 28.6994 61.9291 28.6994C54.2363 28.6994 48 22.5525 48 14.9698C48 7.38718 54.2363 1.24023 61.9291 1.24023C64.467 1.24023 66.8464 1.90927 68.8957 3.07816Z" fill="#13594E"/>
<path fill-rule="evenodd" clip-rule="evenodd" d="M274.083 15.1127C274.083 17.3561 273.513 19.4682 272.508 21.3155L272.956 21.7574C274.444 23.2253 274.444 25.6053 272.956 27.0732C271.467 28.5411 269.055 28.5411 267.566 27.0732L267.137 26.6496C265.245 27.6679 263.075 28.2466 260.768 28.2466C258.493 28.2466 256.352 27.6841 254.479 26.6925L254.093 27.0732C252.605 28.5411 250.192 28.5411 248.704 27.0732C247.216 25.6053 247.216 23.2253 248.704 21.7574L249.072 21.3949C248.039 19.5288 247.453 17.3883 247.453 15.1127C247.453 12.8371 248.039 10.6966 249.072 8.83047L248.704 8.46789C247.216 6.99997 247.216 4.62001 248.704 3.15209C250.192 1.68417 252.605 1.68417 254.093 3.15209L254.479 3.53287C256.352 2.54124 258.493 1.97876 260.768 1.97876C263.075 1.97876 265.245 2.55749 267.137 3.57581L267.566 3.15212C269.055 1.6842 271.467 1.68421 272.956 3.15212C274.444 4.62004 274.444 7.00001 272.956 8.46792L272.508 8.90979C273.513 10.7572 274.083 12.8692 274.083 15.1127ZM250.121 23.1545L258.273 15.1127L250.121 7.07079C249.415 6.37447 249.415 5.24551 250.121 4.54919C250.826 3.85286 251.971 3.85286 252.677 4.54918L260.83 12.5911L268.983 4.54922C269.689 3.8529 270.833 3.8529 271.539 4.54922C272.245 5.24554 272.245 6.37451 271.539 7.07083L263.386 15.1127L271.539 23.1545C272.245 23.8508 272.245 24.9798 271.539 25.6761C270.833 26.3724 269.689 26.3724 268.983 25.6761L260.83 17.6343L252.677 25.6761C251.971 26.3724 250.826 26.3725 250.121 25.6761C249.415 24.9798 249.415 23.8508 250.121 23.1545Z" fill="#83323F"/>
</svg>
