<svg width="326" height="187" viewBox="0 0 326 187" fill="none" xmlns="http://www.w3.org/2000/svg">
<rect x="198" y="40.3534" width="128" height="146.647" rx="10" fill="#F2F2F2"/>
<path d="M155.172 112.776H153.17L149 102.308H150.846L153.209 108.479C153.326 108.766 153.447 109.085 153.57 109.437C153.694 109.782 153.805 110.117 153.902 110.442C154.007 110.768 154.078 111.038 154.117 111.253H154.205C154.257 111.038 154.335 110.768 154.439 110.442C154.55 110.11 154.671 109.772 154.801 109.427C154.931 109.075 155.051 108.759 155.162 108.479L157.516 102.308H159.352L155.172 112.776ZM168.58 109.886C168.58 110.901 168.163 111.67 167.33 112.19C166.503 112.711 165.403 112.972 164.029 112.972C163.222 112.972 162.532 112.913 161.959 112.796C161.393 112.685 160.898 112.522 160.475 112.308V110.745C160.898 110.947 161.432 111.139 162.076 111.321C162.727 111.497 163.398 111.585 164.088 111.585C165.077 111.585 165.797 111.445 166.246 111.165C166.695 110.885 166.92 110.511 166.92 110.042C166.92 109.782 166.839 109.547 166.676 109.339C166.52 109.131 166.233 108.922 165.816 108.714C165.406 108.506 164.82 108.271 164.059 108.011C163.31 107.75 162.665 107.49 162.125 107.229C161.585 106.969 161.168 106.657 160.875 106.292C160.589 105.927 160.445 105.459 160.445 104.886C160.445 103.994 160.839 103.31 161.627 102.835C162.415 102.353 163.447 102.112 164.723 102.112C165.413 102.112 166.057 102.177 166.656 102.308C167.255 102.431 167.815 102.601 168.336 102.815L167.73 104.183C167.255 103.994 166.754 103.838 166.227 103.714C165.706 103.584 165.156 103.519 164.576 103.519C163.769 103.519 163.15 103.632 162.721 103.86C162.298 104.088 162.086 104.397 162.086 104.788C162.086 105.081 162.18 105.328 162.369 105.53C162.564 105.732 162.88 105.927 163.316 106.116C163.759 106.305 164.355 106.526 165.104 106.78C165.839 107.028 166.464 107.285 166.979 107.552C167.499 107.812 167.896 108.128 168.17 108.499C168.443 108.864 168.58 109.326 168.58 109.886ZM171.227 111.722C171.227 111.24 171.363 110.901 171.637 110.706C171.917 110.511 172.255 110.413 172.652 110.413C173.069 110.413 173.43 110.511 173.736 110.706C174.042 110.901 174.195 111.24 174.195 111.722C174.195 112.19 174.042 112.529 173.736 112.737C173.43 112.946 173.069 113.05 172.652 113.05C172.255 113.05 171.917 112.946 171.637 112.737C171.363 112.529 171.227 112.19 171.227 111.722Z" fill="black"/>
<rect y="38.9127" width="128" height="146.647" rx="10" fill="#F2F2F2"/>
<rect x="21" y="51.5259" width="85.5" height="11.3726" fill="#878787"/>
<rect x="21" y="130.186" width="85.5" height="11.3726" fill="#878787"/>
<rect x="21" y="74.271" width="69.35" height="11.3726" fill="#878787"/>
<rect x="21" y="151.036" width="69.35" height="11.3726" fill="#878787"/>
<rect x="21" y="95.1207" width="49.4" height="11.3726" fill="#878787"/>
<rect x="208" y="130.186" width="85.5" height="11.3726" fill="#878787"/>
<rect x="248.85" y="151.036" width="54.15" height="11.3726" fill="#878787"/>
<rect x="208" y="51.5259" width="85.5" height="11.3726" fill="#878787"/>
<rect x="246.95" y="74.271" width="69.35" height="11.3726" fill="#878787"/>
<rect x="222.25" y="95.1207" width="49.4" height="11.3726" fill="#878787"/>
<path fill-rule="evenodd" clip-rule="evenodd" d="M58.4308 13.8534L62.7637 16.8914L73.4958 3.00711C74.3402 1.91468 75.9767 1.66687 77.108 2.46008C78.1828 3.21364 78.398 4.6281 77.5958 5.6659L65.3941 21.4514L65.3836 21.4649L65.3754 21.4754L65.3672 21.4861L65.357 21.4994C64.5331 22.5653 62.9355 22.8072 61.8316 22.0333L61.7915 22.0051L61.7871 22.0021L61.7817 21.9983L61.7768 21.9949L55.3806 17.5103C54.3332 16.776 54.1236 15.3986 54.9053 14.3873C55.7293 13.3214 57.3268 13.0794 58.4308 13.8534ZM60.6816 23.6656L60.6415 23.6375L60.6319 23.6308L60.6223 23.6241L54.2306 19.1427C53.4883 18.6222 52.9671 17.9208 52.6835 17.1466C52.9671 17.9209 53.4882 18.6222 54.2306 19.1427L60.6223 23.6241L60.6319 23.6309L60.6415 23.6376L60.6816 23.6657C62.6611 25.0535 65.4634 24.6291 66.9408 22.7178V22.7178C65.4634 24.6291 62.6611 25.0535 60.6816 23.6656ZM76.846 9.90331C77.4988 11.5062 77.8582 13.2582 77.8582 15.0936C77.8582 22.7389 71.6219 28.9366 63.9291 28.9366C56.2363 28.9366 50 22.7389 50 15.0936C50 7.44827 56.2363 1.25053 63.9291 1.25053C66.467 1.25053 68.8464 1.92509 70.8957 3.10365L71.912 1.78876C73.4099 -0.149092 76.2511 -0.579364 78.258 0.827721C80.2649 2.23481 80.6775 4.94641 79.1796 6.88426L76.846 9.90331Z" fill="#13594E"/>
<path fill-rule="evenodd" clip-rule="evenodd" d="M275.63 13.2425C275.63 15.5045 275.06 17.634 274.055 19.4966L274.503 19.9422C275.991 21.4222 275.991 23.8218 274.503 25.3019C273.015 26.7819 270.602 26.7819 269.114 25.3019L268.684 24.8747C266.792 25.9015 264.622 26.485 262.315 26.485C260.041 26.485 257.9 25.9178 256.027 24.918L255.641 25.3019C254.153 26.782 251.74 26.782 250.252 25.3019C248.763 23.8219 248.763 21.4222 250.252 19.9422L250.619 19.5766C249.587 17.6951 249 15.5369 249 13.2425C249 10.9481 249.587 8.78992 250.619 6.90837L250.252 6.54281C248.763 5.06276 248.763 2.66313 250.252 1.18308C251.74 -0.296976 254.153 -0.296977 255.641 1.18307L256.027 1.56697C257.9 0.567138 260.041 0 262.315 0C264.622 0 266.792 0.583523 268.684 1.61026L269.114 1.18311C270.602 -0.296943 273.015 -0.296939 274.503 1.18311C275.991 2.66316 275.991 5.0628 274.503 6.54285L274.055 6.98835C275.06 8.85097 275.63 10.9805 275.63 13.2425ZM251.668 21.3508L259.821 13.2425L251.668 5.13417C250.962 4.43209 250.962 3.2938 251.668 2.59172C252.374 1.88964 253.518 1.88964 254.224 2.59172L262.377 10.7L270.53 2.59175C271.236 1.88968 272.381 1.88968 273.086 2.59175C273.792 3.29383 273.792 4.43213 273.086 5.1342L264.934 13.2425L273.086 21.3508C273.792 22.0529 273.792 23.1912 273.086 23.8932C272.381 24.5953 271.236 24.5953 270.53 23.8932L262.377 15.7849L254.224 23.8933C253.518 24.5954 252.374 24.5954 251.668 23.8933C250.962 23.1912 250.962 22.0529 251.668 21.3508Z" fill="#83323F"/>
</svg>
