<svg width="132" height="75" viewBox="0 0 132 75" fill="none" xmlns="http://www.w3.org/2000/svg">
<line y1="46.5" x2="132" y2="46.5" stroke="#13594E"/>
<path d="M20.003 15.4062C17.2556 15.4062 15.0942 16.2656 13.5186 17.9844C11.9431 19.7031 11.1554 22.0794 11.1554 25.1133C11.1554 28.1341 11.9041 30.4909 13.4014 32.1836C14.9119 33.8633 17.184 34.7031 20.2179 34.7031C21.6111 34.7031 22.9457 34.5664 24.2218 34.293C25.5108 34.0065 26.7869 33.6615 28.0499 33.2578V38.0234C26.7608 38.4922 25.4327 38.8372 24.0655 39.0586C22.6983 39.2799 21.1619 39.3906 19.4561 39.3906C16.0968 39.3906 13.3233 38.7982 11.1358 37.6133C8.96134 36.4154 7.34025 34.7422 6.27254 32.5938C5.21785 30.4453 4.69051 27.9388 4.69051 25.0742C4.69051 22.2617 5.28296 19.7812 6.46785 17.6328C7.65275 15.4714 9.39103 13.7786 11.6827 12.5547C13.9744 11.3307 16.7673 10.7188 20.0616 10.7188C21.6501 10.7188 23.2452 10.8685 24.8468 11.168C26.4613 11.4544 27.9652 11.9036 29.3585 12.5156L27.2686 17.0273C26.2009 16.5846 25.0681 16.207 23.8702 15.8945C22.6853 15.569 21.3962 15.4062 20.003 15.4062Z" fill="#13594E"/>
<mask id="mask0_4_2" style="mask-type:alpha" maskUnits="userSpaceOnUse" x="0" y="5" width="30" height="20">
<rect y="5" width="30" height="20" fill="#D9D9D9"/>
</mask>
<g mask="url(#mask0_4_2)">
<mask id="path-4-inside-1_4_2" fill="white">
<path d="M20.003 15.4062C17.2556 15.4062 15.0942 16.2656 13.5186 17.9844C11.9431 19.7031 11.1554 22.0794 11.1554 25.1133C11.1554 28.1341 11.9041 30.4909 13.4014 32.1836C14.9119 33.8633 17.184 34.7031 20.2179 34.7031C21.6111 34.7031 22.9457 34.5664 24.2218 34.293C25.5108 34.0065 26.7869 33.6615 28.0499 33.2578V38.0234C26.7608 38.4922 25.4327 38.8372 24.0655 39.0586C22.6983 39.2799 21.1619 39.3906 19.4561 39.3906C16.0968 39.3906 13.3233 38.7982 11.1358 37.6133C8.96134 36.4154 7.34025 34.7422 6.27254 32.5938C5.21785 30.4453 4.69051 27.9388 4.69051 25.0742C4.69051 22.2617 5.28296 19.7812 6.46785 17.6328C7.65275 15.4714 9.39103 13.7786 11.6827 12.5547C13.9744 11.3307 16.7673 10.7188 20.0616 10.7188C21.6501 10.7188 23.2452 10.8685 24.8468 11.168C26.4613 11.4544 27.9652 11.9036 29.3585 12.5156L27.2686 17.0273C26.2009 16.5846 25.0681 16.207 23.8702 15.8945C22.6853 15.569 21.3962 15.4062 20.003 15.4062Z"/>
</mask>
<path d="M20.003 15.4062C17.2556 15.4062 15.0942 16.2656 13.5186 17.9844C11.9431 19.7031 11.1554 22.0794 11.1554 25.1133C11.1554 28.1341 11.9041 30.4909 13.4014 32.1836C14.9119 33.8633 17.184 34.7031 20.2179 34.7031C21.6111 34.7031 22.9457 34.5664 24.2218 34.293C25.5108 34.0065 26.7869 33.6615 28.0499 33.2578V38.0234C26.7608 38.4922 25.4327 38.8372 24.0655 39.0586C22.6983 39.2799 21.1619 39.3906 19.4561 39.3906C16.0968 39.3906 13.3233 38.7982 11.1358 37.6133C8.96134 36.4154 7.34025 34.7422 6.27254 32.5938C5.21785 30.4453 4.69051 27.9388 4.69051 25.0742C4.69051 22.2617 5.28296 19.7812 6.46785 17.6328C7.65275 15.4714 9.39103 13.7786 11.6827 12.5547C13.9744 11.3307 16.7673 10.7188 20.0616 10.7188C21.6501 10.7188 23.2452 10.8685 24.8468 11.168C26.4613 11.4544 27.9652 11.9036 29.3585 12.5156L27.2686 17.0273C26.2009 16.5846 25.0681 16.207 23.8702 15.8945C22.6853 15.569 21.3962 15.4062 20.003 15.4062Z" fill="#D6F9F3"/>
<path d="M13.4014 32.1836L12.6524 32.8462L12.6579 32.8522L13.4014 32.1836ZM24.2218 34.293L24.4313 35.2708L24.4387 35.2692L24.2218 34.293ZM28.0499 33.2578H29.0499V31.8884L27.7455 32.3053L28.0499 33.2578ZM28.0499 38.0234L28.3916 38.9632L29.0499 38.7239V38.0234H28.0499ZM11.1358 37.6133L10.6533 38.4892L10.6595 38.4926L11.1358 37.6133ZM6.27254 32.5938L5.37486 33.0344L5.37703 33.0388L6.27254 32.5938ZM6.46785 17.6328L7.34351 18.1158L7.34474 18.1135L6.46785 17.6328ZM11.6827 12.5547L11.2116 11.6726L11.6827 12.5547ZM24.8468 11.168L24.6629 12.151L24.6721 12.1526L24.8468 11.168ZM29.3585 12.5156L30.2659 12.9359L30.6946 12.0103L29.7606 11.6001L29.3585 12.5156ZM27.2686 17.0273L26.8856 17.9511L27.7725 18.3188L28.176 17.4476L27.2686 17.0273ZM23.8702 15.8945L23.6053 16.8589L23.6178 16.8621L23.8702 15.8945ZM20.003 14.4062C17.0299 14.4062 14.5804 15.3462 12.7815 17.3087L14.2558 18.6601C15.6079 17.185 17.4814 16.4062 20.003 16.4062V14.4062ZM12.7815 17.3087C10.991 19.2619 10.1554 21.9067 10.1554 25.1133H12.1554C12.1554 22.2521 12.8953 20.1443 14.2558 18.6601L12.7815 17.3087ZM10.1554 25.1133C10.1554 28.2949 10.9455 30.9166 12.6525 32.8462L14.1504 31.521C12.8626 30.0651 12.1554 27.9733 12.1554 25.1133H10.1554ZM12.6579 32.8522C14.4168 34.8083 17.0024 35.7031 20.2179 35.7031V33.7031C17.3656 33.7031 15.4069 32.9182 14.145 31.5149L12.6579 32.8522ZM20.2179 35.7031C21.6768 35.7031 23.0819 35.5599 24.4313 35.2708L24.0122 33.3152C22.8095 33.5729 21.5454 33.7031 20.2179 33.7031V35.7031ZM24.4387 35.2692C25.7574 34.9761 27.0626 34.6232 28.3543 34.2104L27.7455 32.3053C26.5111 32.6998 25.2643 33.0369 24.0048 33.3168L24.4387 35.2692ZM27.0499 33.2578V38.0234H29.0499V33.2578H27.0499ZM27.7081 37.0836C26.4787 37.5307 25.2115 37.86 23.9057 38.0714L24.2253 40.0457C25.6539 39.8144 27.043 39.4537 28.3916 38.9632L27.7081 37.0836ZM23.9057 38.0714C22.6018 38.2826 21.1201 38.3906 19.4561 38.3906V40.3906C21.2037 40.3906 22.7949 40.2773 24.2253 40.0457L23.9057 38.0714ZM19.4561 38.3906C16.2073 38.3906 13.6111 37.8168 11.6121 36.734L10.6595 38.4926C13.0355 39.7796 15.9862 40.3906 19.4561 40.3906V38.3906ZM11.6183 36.7374C9.61557 35.6341 8.14186 34.1082 7.16805 32.1487L5.37703 33.0388C6.53863 35.3762 8.30711 37.1967 10.6533 38.4892L11.6183 36.7374ZM7.17021 32.1531C6.19484 30.1662 5.69051 27.8158 5.69051 25.0742H3.69051C3.69051 28.0618 4.24087 30.7244 5.37487 33.0344L7.17021 32.1531ZM5.69051 25.0742C5.69051 22.4056 6.25145 20.0959 7.34351 18.1157L5.5922 17.1499C4.31447 19.4666 3.69051 22.1178 3.69051 25.0742H5.69051ZM7.34474 18.1135C8.43107 16.1318 10.0238 14.5744 12.1538 13.4368L11.2116 11.6726C8.75828 12.9829 6.87443 14.8109 5.59097 17.1521L7.34474 18.1135ZM12.1538 13.4368C14.2668 12.3082 16.8886 11.7188 20.0616 11.7188V9.71875C16.646 9.71875 13.6819 10.3532 11.2116 11.6726L12.1538 13.4368ZM20.0616 11.7188C21.5869 11.7188 23.1204 11.8625 24.663 12.1509L25.0306 10.185C23.3699 9.87448 21.7134 9.71875 20.0616 9.71875V11.7188ZM24.6721 12.1526C26.2144 12.4262 27.6413 12.8536 28.9563 13.4312L29.7606 11.6001C28.2892 10.9537 26.7083 10.4826 25.0215 10.1833L24.6721 12.1526ZM28.4511 12.0953L26.3613 16.607L28.176 17.4476L30.2659 12.9359L28.4511 12.0953ZM27.6516 16.1036C26.5386 15.6421 25.3619 15.2502 24.1226 14.9269L23.6178 16.8621C24.7743 17.1639 25.8633 17.5272 26.8856 17.9511L27.6516 16.1036ZM24.1351 14.9303C22.8533 14.5781 21.474 14.4062 20.003 14.4062V16.4062C21.3185 16.4062 22.5173 16.5599 23.6053 16.8588L24.1351 14.9303Z" fill="#13594E" mask="url(#path-4-inside-1_4_2)"/>
</g>
<path d="M35.5938 11.1094H45.0273C53.0742 11.1094 57.0977 13.8047 57.0977 19.1953C57.0977 21.1484 56.5378 22.7174 55.418 23.9023C54.3112 25.0872 52.9505 26.0117 51.3359 26.6758L60.1641 39H53.0352L45.9648 28.1797H41.8242V39H35.5938V11.1094ZM44.8711 15.5234H41.8242V23.8047H44.9297C46.8307 23.8047 48.276 23.4596 49.2656 22.7695C50.2682 22.0794 50.7695 20.9727 50.7695 19.4492C50.7695 18.1081 50.2943 17.1185 49.3438 16.4805C48.3932 15.8424 46.9023 15.5234 44.8711 15.5234Z" fill="#39E1C6"/>
<path d="M39.5938 11.1094H49.0273C57.0742 11.1094 61.0977 13.8047 61.0977 19.1953C61.0977 21.1484 60.5378 22.7174 59.418 23.9023C58.3112 25.0872 56.9505 26.0117 55.3359 26.6758L64.1641 39H57.0352L49.9648 28.1797H45.8242V39H39.5938V11.1094ZM48.8711 15.5234H45.8242V23.8047H48.9297C50.8307 23.8047 52.276 23.4596 53.2656 22.7695C54.2682 22.0794 54.7695 20.9727 54.7695 19.4492C54.7695 18.1081 54.2943 17.1185 53.3438 16.4805C52.3932 15.8424 50.9023 15.5234 48.8711 15.5234Z" fill="#27A28F"/>
<path d="M43.5938 11.1094H53.0273C61.0742 11.1094 65.0977 13.8047 65.0977 19.1953C65.0977 21.1484 64.5378 22.7174 63.418 23.9023C62.3112 25.0872 60.9505 26.0117 59.3359 26.6758L68.1641 39H61.0352L53.9648 28.1797H49.8242V39H43.5938V11.1094ZM52.8711 15.5234H49.8242V23.8047H52.9297C54.8307 23.8047 56.276 23.4596 57.2656 22.7695C58.2682 22.0794 58.7695 20.9727 58.7695 19.4492C58.7695 18.1081 58.2943 17.1185 57.3438 16.4805C56.3932 15.8424 54.9023 15.5234 52.8711 15.5234Z" fill="#13594E"/>
<path d="M101.453 39H94.7539L92.2344 32.125H81.2188L78.6992 39H72L82.957 10.9922H90.457L101.453 39ZM90.7695 27.418L88.4453 20.9922C88.3411 20.6276 88.1719 20.0742 87.9375 19.332C87.7161 18.5898 87.4883 17.8216 87.2539 17.0273C87.0195 16.2331 86.8438 15.5951 86.7266 15.1133C86.5964 15.6992 86.4271 16.3633 86.2188 17.1055C86.0234 17.8477 85.8216 18.5638 85.6133 19.2539C85.418 19.944 85.2487 20.5234 85.1055 20.9922L82.7617 27.418H90.7695Z" fill="#13594E"/>
<mask id="mask1_4_2" style="mask-type:alpha" maskUnits="userSpaceOnUse" x="107" y="11" width="20" height="28">
<path d="M107.594 11.1094H116.422C119.951 11.1094 122.561 11.8516 124.254 13.3359C125.96 14.8203 126.812 16.9232 126.812 19.6445C126.812 21.2591 126.48 22.776 125.816 24.1953C125.165 25.6146 124.065 26.7669 122.516 27.6523C120.979 28.5247 118.883 28.9609 116.227 28.9609H113.805V39H107.594V11.1094ZM116.227 15.7188H113.805V24.332H115.68C117.151 24.332 118.329 23.9935 119.215 23.3164C120.113 22.6393 120.562 21.474 120.562 19.8203C120.562 18.5052 120.211 17.4961 119.508 16.793C118.805 16.0768 117.711 15.7188 116.227 15.7188Z" fill="#13594E"/>
</mask>
<g mask="url(#mask1_4_2)">
<path d="M106.27 10.9082H106.932C107.196 10.9082 107.392 10.9639 107.519 11.0752C107.647 11.1865 107.711 11.3442 107.711 11.5483C107.711 11.6694 107.686 11.7832 107.636 11.8896C107.587 11.9961 107.505 12.0825 107.389 12.1489C107.273 12.2144 107.116 12.2471 106.917 12.2471H106.735V13H106.27V10.9082ZM106.917 11.2539H106.735V11.8999H106.876C106.986 11.8999 107.075 11.8745 107.141 11.8237C107.208 11.7729 107.242 11.6855 107.242 11.5615C107.242 11.4629 107.216 11.3872 107.163 11.3345C107.11 11.2808 107.028 11.2539 106.917 11.2539Z" fill="#13594E"/>
<path d="M106.27 12.9082H106.932C107.196 12.9082 107.392 12.9639 107.519 13.0752C107.647 13.1865 107.711 13.3442 107.711 13.5483C107.711 13.6694 107.686 13.7832 107.636 13.8896C107.587 13.9961 107.505 14.0825 107.389 14.1489C107.273 14.2144 107.116 14.2471 106.917 14.2471H106.735V15H106.27V12.9082ZM106.917 13.2539H106.735V13.8999H106.876C106.986 13.8999 107.075 13.8745 107.141 13.8237C107.208 13.7729 107.242 13.6855 107.242 13.5615C107.242 13.4629 107.216 13.3872 107.163 13.3345C107.11 13.2808 107.028 13.2539 106.917 13.2539Z" fill="#13594E"/>
<path d="M106.27 14.9082H106.932C107.196 14.9082 107.392 14.9639 107.519 15.0752C107.647 15.1865 107.711 15.3442 107.711 15.5483C107.711 15.6694 107.686 15.7832 107.636 15.8896C107.587 15.9961 107.505 16.0825 107.389 16.1489C107.273 16.2144 107.116 16.2471 106.917 16.2471H106.735V17H106.27V14.9082ZM106.917 15.2539H106.735V15.8999H106.876C106.986 15.8999 107.075 15.8745 107.141 15.8237C107.208 15.7729 107.242 15.6855 107.242 15.5615C107.242 15.4629 107.216 15.3872 107.163 15.3345C107.11 15.2808 107.028 15.2539 106.917 15.2539Z" fill="#13594E"/>
<path d="M106.27 16.9082H106.932C107.196 16.9082 107.392 16.9639 107.519 17.0752C107.647 17.1865 107.711 17.3442 107.711 17.5483C107.711 17.6694 107.686 17.7832 107.636 17.8896C107.587 17.9961 107.505 18.0825 107.389 18.1489C107.273 18.2144 107.116 18.2471 106.917 18.2471H106.735V19H106.27V16.9082ZM106.917 17.2539H106.735V17.8999H106.876C106.986 17.8999 107.075 17.8745 107.141 17.8237C107.208 17.7729 107.242 17.6855 107.242 17.5615C107.242 17.4629 107.216 17.3872 107.163 17.3345C107.11 17.2808 107.028 17.2539 106.917 17.2539Z" fill="#13594E"/>
<path d="M106.27 18.9082H106.932C107.196 18.9082 107.392 18.9639 107.519 19.0752C107.647 19.1865 107.711 19.3442 107.711 19.5483C107.711 19.6694 107.686 19.7832 107.636 19.8896C107.587 19.9961 107.505 20.0825 107.389 20.1489C107.273 20.2144 107.116 20.2471 106.917 20.2471H106.735V21H106.27V18.9082ZM106.917 19.2539H106.735V19.8999H106.876C106.986 19.8999 107.075 19.8745 107.141 19.8237C107.208 19.7729 107.242 19.6855 107.242 19.5615C107.242 19.4629 107.216 19.3872 107.163 19.3345C107.11 19.2808 107.028 19.2539 106.917 19.2539Z" fill="#13594E"/>
<path d="M106.27 20.9082H106.932C107.196 20.9082 107.392 20.9639 107.519 21.0752C107.647 21.1865 107.711 21.3442 107.711 21.5483C107.711 21.6694 107.686 21.7832 107.636 21.8896C107.587 21.9961 107.505 22.0825 107.389 22.1489C107.273 22.2144 107.116 22.2471 106.917 22.2471H106.735V23H106.27V20.9082ZM106.917 21.2539H106.735V21.8999H106.876C106.986 21.8999 107.075 21.8745 107.141 21.8237C107.208 21.7729 107.242 21.6855 107.242 21.5615C107.242 21.4629 107.216 21.3872 107.163 21.3345C107.11 21.2808 107.028 21.2539 106.917 21.2539Z" fill="#13594E"/>
<path d="M106.27 22.9082H106.932C107.196 22.9082 107.392 22.9639 107.519 23.0752C107.647 23.1865 107.711 23.3442 107.711 23.5483C107.711 23.6694 107.686 23.7832 107.636 23.8896C107.587 23.9961 107.505 24.0825 107.389 24.1489C107.273 24.2144 107.116 24.2471 106.917 24.2471H106.735V25H106.27V22.9082ZM106.917 23.2539H106.735V23.8999H106.876C106.986 23.8999 107.075 23.8745 107.141 23.8237C107.208 23.7729 107.242 23.6855 107.242 23.5615C107.242 23.4629 107.216 23.3872 107.163 23.3345C107.11 23.2808 107.028 23.2539 106.917 23.2539Z" fill="#13594E"/>
<path d="M106.27 24.9082H106.932C107.196 24.9082 107.392 24.9639 107.519 25.0752C107.647 25.1865 107.711 25.3442 107.711 25.5483C107.711 25.6694 107.686 25.7832 107.636 25.8896C107.587 25.9961 107.505 26.0825 107.389 26.1489C107.273 26.2144 107.116 26.2471 106.917 26.2471H106.735V27H106.27V24.9082ZM106.917 25.2539H106.735V25.8999H106.876C106.986 25.8999 107.075 25.8745 107.141 25.8237C107.208 25.7729 107.242 25.6855 107.242 25.5615C107.242 25.4629 107.216 25.3872 107.163 25.3345C107.11 25.2808 107.028 25.2539 106.917 25.2539Z" fill="#13594E"/>
<path d="M106.27 26.9082H106.932C107.196 26.9082 107.392 26.9639 107.519 27.0752C107.647 27.1865 107.711 27.3442 107.711 27.5483C107.711 27.6694 107.686 27.7832 107.636 27.8896C107.587 27.9961 107.505 28.0825 107.389 28.1489C107.273 28.2144 107.116 28.2471 106.917 28.2471H106.735V29H106.27V26.9082ZM106.917 27.2539H106.735V27.8999H106.876C106.986 27.8999 107.075 27.8745 107.141 27.8237C107.208 27.7729 107.242 27.6855 107.242 27.5615C107.242 27.4629 107.216 27.3872 107.163 27.3345C107.11 27.2808 107.028 27.2539 106.917 27.2539Z" fill="#13594E"/>
<path d="M106.27 28.9082H106.932C107.196 28.9082 107.392 28.9639 107.519 29.0752C107.647 29.1865 107.711 29.3442 107.711 29.5483C107.711 29.6694 107.686 29.7832 107.636 29.8896C107.587 29.9961 107.505 30.0825 107.389 30.1489C107.273 30.2144 107.116 30.2471 106.917 30.2471H106.735V31H106.27V28.9082ZM106.917 29.2539H106.735V29.8999H106.876C106.986 29.8999 107.075 29.8745 107.141 29.8237C107.208 29.7729 107.242 29.6855 107.242 29.5615C107.242 29.4629 107.216 29.3872 107.163 29.3345C107.11 29.2808 107.028 29.2539 106.917 29.2539Z" fill="#13594E"/>
<path d="M106.27 30.9082H106.932C107.196 30.9082 107.392 30.9639 107.519 31.0752C107.647 31.1865 107.711 31.3442 107.711 31.5483C107.711 31.6694 107.686 31.7832 107.636 31.8896C107.587 31.9961 107.505 32.0825 107.389 32.1489C107.273 32.2144 107.116 32.2471 106.917 32.2471H106.735V33H106.27V30.9082ZM106.917 31.2539H106.735V31.8999H106.876C106.986 31.8999 107.075 31.8745 107.141 31.8237C107.208 31.7729 107.242 31.6855 107.242 31.5615C107.242 31.4629 107.216 31.3872 107.163 31.3345C107.11 31.2808 107.028 31.2539 106.917 31.2539Z" fill="#13594E"/>
<path d="M106.27 32.9082H106.932C107.196 32.9082 107.392 32.9639 107.519 33.0752C107.647 33.1865 107.711 33.3442 107.711 33.5483C107.711 33.6694 107.686 33.7832 107.636 33.8896C107.587 33.9961 107.505 34.0825 107.389 34.1489C107.273 34.2144 107.116 34.2471 106.917 34.2471H106.735V35H106.27V32.9082ZM106.917 33.2539H106.735V33.8999H106.876C106.986 33.8999 107.075 33.8745 107.141 33.8237C107.208 33.7729 107.242 33.6855 107.242 33.5615C107.242 33.4629 107.216 33.3872 107.163 33.3345C107.11 33.2808 107.028 33.2539 106.917 33.2539Z" fill="#13594E"/>
<path d="M106.27 34.9082H106.932C107.196 34.9082 107.392 34.9639 107.519 35.0752C107.647 35.1865 107.711 35.3442 107.711 35.5483C107.711 35.6694 107.686 35.7832 107.636 35.8896C107.587 35.9961 107.505 36.0825 107.389 36.1489C107.273 36.2144 107.116 36.2471 106.917 36.2471H106.735V37H106.27V34.9082ZM106.917 35.2539H106.735V35.8999H106.876C106.986 35.8999 107.075 35.8745 107.141 35.8237C107.208 35.7729 107.242 35.6855 107.242 35.5615C107.242 35.4629 107.216 35.3872 107.163 35.3345C107.11 35.2808 107.028 35.2539 106.917 35.2539Z" fill="#13594E"/>
<path d="M106.27 36.9082H106.932C107.196 36.9082 107.392 36.9639 107.519 37.0752C107.647 37.1865 107.711 37.3442 107.711 37.5483C107.711 37.6694 107.686 37.7832 107.636 37.8896C107.587 37.9961 107.505 38.0825 107.389 38.1489C107.273 38.2144 107.116 38.2471 106.917 38.2471H106.735V39H106.27V36.9082ZM106.917 37.2539H106.735V37.8999H106.876C106.986 37.8999 107.075 37.8745 107.141 37.8237C107.208 37.7729 107.242 37.6855 107.242 37.5615C107.242 37.4629 107.216 37.3872 107.163 37.3345C107.11 37.2808 107.028 37.2539 106.917 37.2539Z" fill="#13594E"/>
<path d="M108.27 10.9082H108.932C109.196 10.9082 109.392 10.9639 109.519 11.0752C109.647 11.1865 109.711 11.3442 109.711 11.5483C109.711 11.6694 109.686 11.7832 109.636 11.8896C109.587 11.9961 109.505 12.0825 109.389 12.1489C109.273 12.2144 109.116 12.2471 108.917 12.2471H108.735V13H108.27V10.9082ZM108.917 11.2539H108.735V11.8999H108.876C108.986 11.8999 109.075 11.8745 109.141 11.8237C109.208 11.7729 109.242 11.6855 109.242 11.5615C109.242 11.4629 109.216 11.3872 109.163 11.3345C109.11 11.2808 109.028 11.2539 108.917 11.2539Z" fill="#13594E"/>
<path d="M108.27 12.9082H108.932C109.196 12.9082 109.392 12.9639 109.519 13.0752C109.647 13.1865 109.711 13.3442 109.711 13.5483C109.711 13.6694 109.686 13.7832 109.636 13.8896C109.587 13.9961 109.505 14.0825 109.389 14.1489C109.273 14.2144 109.116 14.2471 108.917 14.2471H108.735V15H108.27V12.9082ZM108.917 13.2539H108.735V13.8999H108.876C108.986 13.8999 109.075 13.8745 109.141 13.8237C109.208 13.7729 109.242 13.6855 109.242 13.5615C109.242 13.4629 109.216 13.3872 109.163 13.3345C109.11 13.2808 109.028 13.2539 108.917 13.2539Z" fill="#13594E"/>
<path d="M108.27 14.9082H108.932C109.196 14.9082 109.392 14.9639 109.519 15.0752C109.647 15.1865 109.711 15.3442 109.711 15.5483C109.711 15.6694 109.686 15.7832 109.636 15.8896C109.587 15.9961 109.505 16.0825 109.389 16.1489C109.273 16.2144 109.116 16.2471 108.917 16.2471H108.735V17H108.27V14.9082ZM108.917 15.2539H108.735V15.8999H108.876C108.986 15.8999 109.075 15.8745 109.141 15.8237C109.208 15.7729 109.242 15.6855 109.242 15.5615C109.242 15.4629 109.216 15.3872 109.163 15.3345C109.11 15.2808 109.028 15.2539 108.917 15.2539Z" fill="#13594E"/>
<path d="M108.27 16.9082H108.932C109.196 16.9082 109.392 16.9639 109.519 17.0752C109.647 17.1865 109.711 17.3442 109.711 17.5483C109.711 17.6694 109.686 17.7832 109.636 17.8896C109.587 17.9961 109.505 18.0825 109.389 18.1489C109.273 18.2144 109.116 18.2471 108.917 18.2471H108.735V19H108.27V16.9082ZM108.917 17.2539H108.735V17.8999H108.876C108.986 17.8999 109.075 17.8745 109.141 17.8237C109.208 17.7729 109.242 17.6855 109.242 17.5615C109.242 17.4629 109.216 17.3872 109.163 17.3345C109.11 17.2808 109.028 17.2539 108.917 17.2539Z" fill="#13594E"/>
<path d="M108.27 18.9082H108.932C109.196 18.9082 109.392 18.9639 109.519 19.0752C109.647 19.1865 109.711 19.3442 109.711 19.5483C109.711 19.6694 109.686 19.7832 109.636 19.8896C109.587 19.9961 109.505 20.0825 109.389 20.1489C109.273 20.2144 109.116 20.2471 108.917 20.2471H108.735V21H108.27V18.9082ZM108.917 19.2539H108.735V19.8999H108.876C108.986 19.8999 109.075 19.8745 109.141 19.8237C109.208 19.7729 109.242 19.6855 109.242 19.5615C109.242 19.4629 109.216 19.3872 109.163 19.3345C109.11 19.2808 109.028 19.2539 108.917 19.2539Z" fill="#13594E"/>
<path d="M108.27 20.9082H108.932C109.196 20.9082 109.392 20.9639 109.519 21.0752C109.647 21.1865 109.711 21.3442 109.711 21.5483C109.711 21.6694 109.686 21.7832 109.636 21.8896C109.587 21.9961 109.505 22.0825 109.389 22.1489C109.273 22.2144 109.116 22.2471 108.917 22.2471H108.735V23H108.27V20.9082ZM108.917 21.2539H108.735V21.8999H108.876C108.986 21.8999 109.075 21.8745 109.141 21.8237C109.208 21.7729 109.242 21.6855 109.242 21.5615C109.242 21.4629 109.216 21.3872 109.163 21.3345C109.11 21.2808 109.028 21.2539 108.917 21.2539Z" fill="#13594E"/>
<path d="M108.27 22.9082H108.932C109.196 22.9082 109.392 22.9639 109.519 23.0752C109.647 23.1865 109.711 23.3442 109.711 23.5483C109.711 23.6694 109.686 23.7832 109.636 23.8896C109.587 23.9961 109.505 24.0825 109.389 24.1489C109.273 24.2144 109.116 24.2471 108.917 24.2471H108.735V25H108.27V22.9082ZM108.917 23.2539H108.735V23.8999H108.876C108.986 23.8999 109.075 23.8745 109.141 23.8237C109.208 23.7729 109.242 23.6855 109.242 23.5615C109.242 23.4629 109.216 23.3872 109.163 23.3345C109.11 23.2808 109.028 23.2539 108.917 23.2539Z" fill="#13594E"/>
<path d="M108.27 24.9082H108.932C109.196 24.9082 109.392 24.9639 109.519 25.0752C109.647 25.1865 109.711 25.3442 109.711 25.5483C109.711 25.6694 109.686 25.7832 109.636 25.8896C109.587 25.9961 109.505 26.0825 109.389 26.1489C109.273 26.2144 109.116 26.2471 108.917 26.2471H108.735V27H108.27V24.9082ZM108.917 25.2539H108.735V25.8999H108.876C108.986 25.8999 109.075 25.8745 109.141 25.8237C109.208 25.7729 109.242 25.6855 109.242 25.5615C109.242 25.4629 109.216 25.3872 109.163 25.3345C109.11 25.2808 109.028 25.2539 108.917 25.2539Z" fill="#13594E"/>
<path d="M108.27 26.9082H108.932C109.196 26.9082 109.392 26.9639 109.519 27.0752C109.647 27.1865 109.711 27.3442 109.711 27.5483C109.711 27.6694 109.686 27.7832 109.636 27.8896C109.587 27.9961 109.505 28.0825 109.389 28.1489C109.273 28.2144 109.116 28.2471 108.917 28.2471H108.735V29H108.27V26.9082ZM108.917 27.2539H108.735V27.8999H108.876C108.986 27.8999 109.075 27.8745 109.141 27.8237C109.208 27.7729 109.242 27.6855 109.242 27.5615C109.242 27.4629 109.216 27.3872 109.163 27.3345C109.11 27.2808 109.028 27.2539 108.917 27.2539Z" fill="#13594E"/>
<path d="M108.27 28.9082H108.932C109.196 28.9082 109.392 28.9639 109.519 29.0752C109.647 29.1865 109.711 29.3442 109.711 29.5483C109.711 29.6694 109.686 29.7832 109.636 29.8896C109.587 29.9961 109.505 30.0825 109.389 30.1489C109.273 30.2144 109.116 30.2471 108.917 30.2471H108.735V31H108.27V28.9082ZM108.917 29.2539H108.735V29.8999H108.876C108.986 29.8999 109.075 29.8745 109.141 29.8237C109.208 29.7729 109.242 29.6855 109.242 29.5615C109.242 29.4629 109.216 29.3872 109.163 29.3345C109.11 29.2808 109.028 29.2539 108.917 29.2539Z" fill="#13594E"/>
<path d="M108.27 30.9082H108.932C109.196 30.9082 109.392 30.9639 109.519 31.0752C109.647 31.1865 109.711 31.3442 109.711 31.5483C109.711 31.6694 109.686 31.7832 109.636 31.8896C109.587 31.9961 109.505 32.0825 109.389 32.1489C109.273 32.2144 109.116 32.2471 108.917 32.2471H108.735V33H108.27V30.9082ZM108.917 31.2539H108.735V31.8999H108.876C108.986 31.8999 109.075 31.8745 109.141 31.8237C109.208 31.7729 109.242 31.6855 109.242 31.5615C109.242 31.4629 109.216 31.3872 109.163 31.3345C109.11 31.2808 109.028 31.2539 108.917 31.2539Z" fill="#13594E"/>
<path d="M108.27 32.9082H108.932C109.196 32.9082 109.392 32.9639 109.519 33.0752C109.647 33.1865 109.711 33.3442 109.711 33.5483C109.711 33.6694 109.686 33.7832 109.636 33.8896C109.587 33.9961 109.505 34.0825 109.389 34.1489C109.273 34.2144 109.116 34.2471 108.917 34.2471H108.735V35H108.27V32.9082ZM108.917 33.2539H108.735V33.8999H108.876C108.986 33.8999 109.075 33.8745 109.141 33.8237C109.208 33.7729 109.242 33.6855 109.242 33.5615C109.242 33.4629 109.216 33.3872 109.163 33.3345C109.11 33.2808 109.028 33.2539 108.917 33.2539Z" fill="#13594E"/>
<path d="M108.27 34.9082H108.932C109.196 34.9082 109.392 34.9639 109.519 35.0752C109.647 35.1865 109.711 35.3442 109.711 35.5483C109.711 35.6694 109.686 35.7832 109.636 35.8896C109.587 35.9961 109.505 36.0825 109.389 36.1489C109.273 36.2144 109.116 36.2471 108.917 36.2471H108.735V37H108.27V34.9082ZM108.917 35.2539H108.735V35.8999H108.876C108.986 35.8999 109.075 35.8745 109.141 35.8237C109.208 35.7729 109.242 35.6855 109.242 35.5615C109.242 35.4629 109.216 35.3872 109.163 35.3345C109.11 35.2808 109.028 35.2539 108.917 35.2539Z" fill="#13594E"/>
<path d="M108.27 36.9082H108.932C109.196 36.9082 109.392 36.9639 109.519 37.0752C109.647 37.1865 109.711 37.3442 109.711 37.5483C109.711 37.6694 109.686 37.7832 109.636 37.8896C109.587 37.9961 109.505 38.0825 109.389 38.1489C109.273 38.2144 109.116 38.2471 108.917 38.2471H108.735V39H108.27V36.9082ZM108.917 37.2539H108.735V37.8999H108.876C108.986 37.8999 109.075 37.8745 109.141 37.8237C109.208 37.7729 109.242 37.6855 109.242 37.5615C109.242 37.4629 109.216 37.3872 109.163 37.3345C109.11 37.2808 109.028 37.2539 108.917 37.2539Z" fill="#13594E"/>
<path d="M110.27 10.9082H110.932C111.196 10.9082 111.392 10.9639 111.519 11.0752C111.647 11.1865 111.711 11.3442 111.711 11.5483C111.711 11.6694 111.686 11.7832 111.636 11.8896C111.587 11.9961 111.505 12.0825 111.389 12.1489C111.273 12.2144 111.116 12.2471 110.917 12.2471H110.735V13H110.27V10.9082ZM110.917 11.2539H110.735V11.8999H110.876C110.986 11.8999 111.075 11.8745 111.141 11.8237C111.208 11.7729 111.242 11.6855 111.242 11.5615C111.242 11.4629 111.216 11.3872 111.163 11.3345C111.11 11.2808 111.028 11.2539 110.917 11.2539Z" fill="#13594E"/>
<path d="M110.27 12.9082H110.932C111.196 12.9082 111.392 12.9639 111.519 13.0752C111.647 13.1865 111.711 13.3442 111.711 13.5483C111.711 13.6694 111.686 13.7832 111.636 13.8896C111.587 13.9961 111.505 14.0825 111.389 14.1489C111.273 14.2144 111.116 14.2471 110.917 14.2471H110.735V15H110.27V12.9082ZM110.917 13.2539H110.735V13.8999H110.876C110.986 13.8999 111.075 13.8745 111.141 13.8237C111.208 13.7729 111.242 13.6855 111.242 13.5615C111.242 13.4629 111.216 13.3872 111.163 13.3345C111.11 13.2808 111.028 13.2539 110.917 13.2539Z" fill="#13594E"/>
<path d="M110.27 14.9082H110.932C111.196 14.9082 111.392 14.9639 111.519 15.0752C111.647 15.1865 111.711 15.3442 111.711 15.5483C111.711 15.6694 111.686 15.7832 111.636 15.8896C111.587 15.9961 111.505 16.0825 111.389 16.1489C111.273 16.2144 111.116 16.2471 110.917 16.2471H110.735V17H110.27V14.9082ZM110.917 15.2539H110.735V15.8999H110.876C110.986 15.8999 111.075 15.8745 111.141 15.8237C111.208 15.7729 111.242 15.6855 111.242 15.5615C111.242 15.4629 111.216 15.3872 111.163 15.3345C111.11 15.2808 111.028 15.2539 110.917 15.2539Z" fill="#13594E"/>
<path d="M110.27 16.9082H110.932C111.196 16.9082 111.392 16.9639 111.519 17.0752C111.647 17.1865 111.711 17.3442 111.711 17.5483C111.711 17.6694 111.686 17.7832 111.636 17.8896C111.587 17.9961 111.505 18.0825 111.389 18.1489C111.273 18.2144 111.116 18.2471 110.917 18.2471H110.735V19H110.27V16.9082ZM110.917 17.2539H110.735V17.8999H110.876C110.986 17.8999 111.075 17.8745 111.141 17.8237C111.208 17.7729 111.242 17.6855 111.242 17.5615C111.242 17.4629 111.216 17.3872 111.163 17.3345C111.11 17.2808 111.028 17.2539 110.917 17.2539Z" fill="#13594E"/>
<path d="M110.27 18.9082H110.932C111.196 18.9082 111.392 18.9639 111.519 19.0752C111.647 19.1865 111.711 19.3442 111.711 19.5483C111.711 19.6694 111.686 19.7832 111.636 19.8896C111.587 19.9961 111.505 20.0825 111.389 20.1489C111.273 20.2144 111.116 20.2471 110.917 20.2471H110.735V21H110.27V18.9082ZM110.917 19.2539H110.735V19.8999H110.876C110.986 19.8999 111.075 19.8745 111.141 19.8237C111.208 19.7729 111.242 19.6855 111.242 19.5615C111.242 19.4629 111.216 19.3872 111.163 19.3345C111.11 19.2808 111.028 19.2539 110.917 19.2539Z" fill="#13594E"/>
<path d="M110.27 20.9082H110.932C111.196 20.9082 111.392 20.9639 111.519 21.0752C111.647 21.1865 111.711 21.3442 111.711 21.5483C111.711 21.6694 111.686 21.7832 111.636 21.8896C111.587 21.9961 111.505 22.0825 111.389 22.1489C111.273 22.2144 111.116 22.2471 110.917 22.2471H110.735V23H110.27V20.9082ZM110.917 21.2539H110.735V21.8999H110.876C110.986 21.8999 111.075 21.8745 111.141 21.8237C111.208 21.7729 111.242 21.6855 111.242 21.5615C111.242 21.4629 111.216 21.3872 111.163 21.3345C111.11 21.2808 111.028 21.2539 110.917 21.2539Z" fill="#13594E"/>
<path d="M110.27 22.9082H110.932C111.196 22.9082 111.392 22.9639 111.519 23.0752C111.647 23.1865 111.711 23.3442 111.711 23.5483C111.711 23.6694 111.686 23.7832 111.636 23.8896C111.587 23.9961 111.505 24.0825 111.389 24.1489C111.273 24.2144 111.116 24.2471 110.917 24.2471H110.735V25H110.27V22.9082ZM110.917 23.2539H110.735V23.8999H110.876C110.986 23.8999 111.075 23.8745 111.141 23.8237C111.208 23.7729 111.242 23.6855 111.242 23.5615C111.242 23.4629 111.216 23.3872 111.163 23.3345C111.11 23.2808 111.028 23.2539 110.917 23.2539Z" fill="#13594E"/>
<path d="M110.27 24.9082H110.932C111.196 24.9082 111.392 24.9639 111.519 25.0752C111.647 25.1865 111.711 25.3442 111.711 25.5483C111.711 25.6694 111.686 25.7832 111.636 25.8896C111.587 25.9961 111.505 26.0825 111.389 26.1489C111.273 26.2144 111.116 26.2471 110.917 26.2471H110.735V27H110.27V24.9082ZM110.917 25.2539H110.735V25.8999H110.876C110.986 25.8999 111.075 25.8745 111.141 25.8237C111.208 25.7729 111.242 25.6855 111.242 25.5615C111.242 25.4629 111.216 25.3872 111.163 25.3345C111.11 25.2808 111.028 25.2539 110.917 25.2539Z" fill="#13594E"/>
<path d="M110.27 26.9082H110.932C111.196 26.9082 111.392 26.9639 111.519 27.0752C111.647 27.1865 111.711 27.3442 111.711 27.5483C111.711 27.6694 111.686 27.7832 111.636 27.8896C111.587 27.9961 111.505 28.0825 111.389 28.1489C111.273 28.2144 111.116 28.2471 110.917 28.2471H110.735V29H110.27V26.9082ZM110.917 27.2539H110.735V27.8999H110.876C110.986 27.8999 111.075 27.8745 111.141 27.8237C111.208 27.7729 111.242 27.6855 111.242 27.5615C111.242 27.4629 111.216 27.3872 111.163 27.3345C111.11 27.2808 111.028 27.2539 110.917 27.2539Z" fill="#13594E"/>
<path d="M110.27 28.9082H110.932C111.196 28.9082 111.392 28.9639 111.519 29.0752C111.647 29.1865 111.711 29.3442 111.711 29.5483C111.711 29.6694 111.686 29.7832 111.636 29.8896C111.587 29.9961 111.505 30.0825 111.389 30.1489C111.273 30.2144 111.116 30.2471 110.917 30.2471H110.735V31H110.27V28.9082ZM110.917 29.2539H110.735V29.8999H110.876C110.986 29.8999 111.075 29.8745 111.141 29.8237C111.208 29.7729 111.242 29.6855 111.242 29.5615C111.242 29.4629 111.216 29.3872 111.163 29.3345C111.11 29.2808 111.028 29.2539 110.917 29.2539Z" fill="#13594E"/>
<path d="M110.27 30.9082H110.932C111.196 30.9082 111.392 30.9639 111.519 31.0752C111.647 31.1865 111.711 31.3442 111.711 31.5483C111.711 31.6694 111.686 31.7832 111.636 31.8896C111.587 31.9961 111.505 32.0825 111.389 32.1489C111.273 32.2144 111.116 32.2471 110.917 32.2471H110.735V33H110.27V30.9082ZM110.917 31.2539H110.735V31.8999H110.876C110.986 31.8999 111.075 31.8745 111.141 31.8237C111.208 31.7729 111.242 31.6855 111.242 31.5615C111.242 31.4629 111.216 31.3872 111.163 31.3345C111.11 31.2808 111.028 31.2539 110.917 31.2539Z" fill="#13594E"/>
<path d="M110.27 32.9082H110.932C111.196 32.9082 111.392 32.9639 111.519 33.0752C111.647 33.1865 111.711 33.3442 111.711 33.5483C111.711 33.6694 111.686 33.7832 111.636 33.8896C111.587 33.9961 111.505 34.0825 111.389 34.1489C111.273 34.2144 111.116 34.2471 110.917 34.2471H110.735V35H110.27V32.9082ZM110.917 33.2539H110.735V33.8999H110.876C110.986 33.8999 111.075 33.8745 111.141 33.8237C111.208 33.7729 111.242 33.6855 111.242 33.5615C111.242 33.4629 111.216 33.3872 111.163 33.3345C111.11 33.2808 111.028 33.2539 110.917 33.2539Z" fill="#13594E"/>
<path d="M110.27 34.9082H110.932C111.196 34.9082 111.392 34.9639 111.519 35.0752C111.647 35.1865 111.711 35.3442 111.711 35.5483C111.711 35.6694 111.686 35.7832 111.636 35.8896C111.587 35.9961 111.505 36.0825 111.389 36.1489C111.273 36.2144 111.116 36.2471 110.917 36.2471H110.735V37H110.27V34.9082ZM110.917 35.2539H110.735V35.8999H110.876C110.986 35.8999 111.075 35.8745 111.141 35.8237C111.208 35.7729 111.242 35.6855 111.242 35.5615C111.242 35.4629 111.216 35.3872 111.163 35.3345C111.11 35.2808 111.028 35.2539 110.917 35.2539Z" fill="#13594E"/>
<path d="M110.27 36.9082H110.932C111.196 36.9082 111.392 36.9639 111.519 37.0752C111.647 37.1865 111.711 37.3442 111.711 37.5483C111.711 37.6694 111.686 37.7832 111.636 37.8896C111.587 37.9961 111.505 38.0825 111.389 38.1489C111.273 38.2144 111.116 38.2471 110.917 38.2471H110.735V39H110.27V36.9082ZM110.917 37.2539H110.735V37.8999H110.876C110.986 37.8999 111.075 37.8745 111.141 37.8237C111.208 37.7729 111.242 37.6855 111.242 37.5615C111.242 37.4629 111.216 37.3872 111.163 37.3345C111.11 37.2808 111.028 37.2539 110.917 37.2539Z" fill="#13594E"/>
<path d="M112.27 10.9082H112.932C113.196 10.9082 113.392 10.9639 113.519 11.0752C113.647 11.1865 113.711 11.3442 113.711 11.5483C113.711 11.6694 113.686 11.7832 113.636 11.8896C113.587 11.9961 113.505 12.0825 113.389 12.1489C113.273 12.2144 113.116 12.2471 112.917 12.2471H112.735V13H112.27V10.9082ZM112.917 11.2539H112.735V11.8999H112.876C112.986 11.8999 113.075 11.8745 113.141 11.8237C113.208 11.7729 113.242 11.6855 113.242 11.5615C113.242 11.4629 113.216 11.3872 113.163 11.3345C113.11 11.2808 113.028 11.2539 112.917 11.2539Z" fill="#13594E"/>
<path d="M112.27 12.9082H112.932C113.196 12.9082 113.392 12.9639 113.519 13.0752C113.647 13.1865 113.711 13.3442 113.711 13.5483C113.711 13.6694 113.686 13.7832 113.636 13.8896C113.587 13.9961 113.505 14.0825 113.389 14.1489C113.273 14.2144 113.116 14.2471 112.917 14.2471H112.735V15H112.27V12.9082ZM112.917 13.2539H112.735V13.8999H112.876C112.986 13.8999 113.075 13.8745 113.141 13.8237C113.208 13.7729 113.242 13.6855 113.242 13.5615C113.242 13.4629 113.216 13.3872 113.163 13.3345C113.11 13.2808 113.028 13.2539 112.917 13.2539Z" fill="#13594E"/>
<path d="M112.27 14.9082H112.932C113.196 14.9082 113.392 14.9639 113.519 15.0752C113.647 15.1865 113.711 15.3442 113.711 15.5483C113.711 15.6694 113.686 15.7832 113.636 15.8896C113.587 15.9961 113.505 16.0825 113.389 16.1489C113.273 16.2144 113.116 16.2471 112.917 16.2471H112.735V17H112.27V14.9082ZM112.917 15.2539H112.735V15.8999H112.876C112.986 15.8999 113.075 15.8745 113.141 15.8237C113.208 15.7729 113.242 15.6855 113.242 15.5615C113.242 15.4629 113.216 15.3872 113.163 15.3345C113.11 15.2808 113.028 15.2539 112.917 15.2539Z" fill="#13594E"/>
<path d="M112.27 16.9082H112.932C113.196 16.9082 113.392 16.9639 113.519 17.0752C113.647 17.1865 113.711 17.3442 113.711 17.5483C113.711 17.6694 113.686 17.7832 113.636 17.8896C113.587 17.9961 113.505 18.0825 113.389 18.1489C113.273 18.2144 113.116 18.2471 112.917 18.2471H112.735V19H112.27V16.9082ZM112.917 17.2539H112.735V17.8999H112.876C112.986 17.8999 113.075 17.8745 113.141 17.8237C113.208 17.7729 113.242 17.6855 113.242 17.5615C113.242 17.4629 113.216 17.3872 113.163 17.3345C113.11 17.2808 113.028 17.2539 112.917 17.2539Z" fill="#13594E"/>
<path d="M112.27 18.9082H112.932C113.196 18.9082 113.392 18.9639 113.519 19.0752C113.647 19.1865 113.711 19.3442 113.711 19.5483C113.711 19.6694 113.686 19.7832 113.636 19.8896C113.587 19.9961 113.505 20.0825 113.389 20.1489C113.273 20.2144 113.116 20.2471 112.917 20.2471H112.735V21H112.27V18.9082ZM112.917 19.2539H112.735V19.8999H112.876C112.986 19.8999 113.075 19.8745 113.141 19.8237C113.208 19.7729 113.242 19.6855 113.242 19.5615C113.242 19.4629 113.216 19.3872 113.163 19.3345C113.11 19.2808 113.028 19.2539 112.917 19.2539Z" fill="#13594E"/>
<path d="M112.27 20.9082H112.932C113.196 20.9082 113.392 20.9639 113.519 21.0752C113.647 21.1865 113.711 21.3442 113.711 21.5483C113.711 21.6694 113.686 21.7832 113.636 21.8896C113.587 21.9961 113.505 22.0825 113.389 22.1489C113.273 22.2144 113.116 22.2471 112.917 22.2471H112.735V23H112.27V20.9082ZM112.917 21.2539H112.735V21.8999H112.876C112.986 21.8999 113.075 21.8745 113.141 21.8237C113.208 21.7729 113.242 21.6855 113.242 21.5615C113.242 21.4629 113.216 21.3872 113.163 21.3345C113.11 21.2808 113.028 21.2539 112.917 21.2539Z" fill="#13594E"/>
<path d="M112.27 22.9082H112.932C113.196 22.9082 113.392 22.9639 113.519 23.0752C113.647 23.1865 113.711 23.3442 113.711 23.5483C113.711 23.6694 113.686 23.7832 113.636 23.8896C113.587 23.9961 113.505 24.0825 113.389 24.1489C113.273 24.2144 113.116 24.2471 112.917 24.2471H112.735V25H112.27V22.9082ZM112.917 23.2539H112.735V23.8999H112.876C112.986 23.8999 113.075 23.8745 113.141 23.8237C113.208 23.7729 113.242 23.6855 113.242 23.5615C113.242 23.4629 113.216 23.3872 113.163 23.3345C113.11 23.2808 113.028 23.2539 112.917 23.2539Z" fill="#13594E"/>
<path d="M112.27 24.9082H112.932C113.196 24.9082 113.392 24.9639 113.519 25.0752C113.647 25.1865 113.711 25.3442 113.711 25.5483C113.711 25.6694 113.686 25.7832 113.636 25.8896C113.587 25.9961 113.505 26.0825 113.389 26.1489C113.273 26.2144 113.116 26.2471 112.917 26.2471H112.735V27H112.27V24.9082ZM112.917 25.2539H112.735V25.8999H112.876C112.986 25.8999 113.075 25.8745 113.141 25.8237C113.208 25.7729 113.242 25.6855 113.242 25.5615C113.242 25.4629 113.216 25.3872 113.163 25.3345C113.11 25.2808 113.028 25.2539 112.917 25.2539Z" fill="#13594E"/>
<path d="M112.27 26.9082H112.932C113.196 26.9082 113.392 26.9639 113.519 27.0752C113.647 27.1865 113.711 27.3442 113.711 27.5483C113.711 27.6694 113.686 27.7832 113.636 27.8896C113.587 27.9961 113.505 28.0825 113.389 28.1489C113.273 28.2144 113.116 28.2471 112.917 28.2471H112.735V29H112.27V26.9082ZM112.917 27.2539H112.735V27.8999H112.876C112.986 27.8999 113.075 27.8745 113.141 27.8237C113.208 27.7729 113.242 27.6855 113.242 27.5615C113.242 27.4629 113.216 27.3872 113.163 27.3345C113.11 27.2808 113.028 27.2539 112.917 27.2539Z" fill="#13594E"/>
<path d="M112.27 28.9082H112.932C113.196 28.9082 113.392 28.9639 113.519 29.0752C113.647 29.1865 113.711 29.3442 113.711 29.5483C113.711 29.6694 113.686 29.7832 113.636 29.8896C113.587 29.9961 113.505 30.0825 113.389 30.1489C113.273 30.2144 113.116 30.2471 112.917 30.2471H112.735V31H112.27V28.9082ZM112.917 29.2539H112.735V29.8999H112.876C112.986 29.8999 113.075 29.8745 113.141 29.8237C113.208 29.7729 113.242 29.6855 113.242 29.5615C113.242 29.4629 113.216 29.3872 113.163 29.3345C113.11 29.2808 113.028 29.2539 112.917 29.2539Z" fill="#13594E"/>
<path d="M112.27 30.9082H112.932C113.196 30.9082 113.392 30.9639 113.519 31.0752C113.647 31.1865 113.711 31.3442 113.711 31.5483C113.711 31.6694 113.686 31.7832 113.636 31.8896C113.587 31.9961 113.505 32.0825 113.389 32.1489C113.273 32.2144 113.116 32.2471 112.917 32.2471H112.735V33H112.27V30.9082ZM112.917 31.2539H112.735V31.8999H112.876C112.986 31.8999 113.075 31.8745 113.141 31.8237C113.208 31.7729 113.242 31.6855 113.242 31.5615C113.242 31.4629 113.216 31.3872 113.163 31.3345C113.11 31.2808 113.028 31.2539 112.917 31.2539Z" fill="#13594E"/>
<path d="M112.27 32.9082H112.932C113.196 32.9082 113.392 32.9639 113.519 33.0752C113.647 33.1865 113.711 33.3442 113.711 33.5483C113.711 33.6694 113.686 33.7832 113.636 33.8896C113.587 33.9961 113.505 34.0825 113.389 34.1489C113.273 34.2144 113.116 34.2471 112.917 34.2471H112.735V35H112.27V32.9082ZM112.917 33.2539H112.735V33.8999H112.876C112.986 33.8999 113.075 33.8745 113.141 33.8237C113.208 33.7729 113.242 33.6855 113.242 33.5615C113.242 33.4629 113.216 33.3872 113.163 33.3345C113.11 33.2808 113.028 33.2539 112.917 33.2539Z" fill="#13594E"/>
<path d="M112.27 34.9082H112.932C113.196 34.9082 113.392 34.9639 113.519 35.0752C113.647 35.1865 113.711 35.3442 113.711 35.5483C113.711 35.6694 113.686 35.7832 113.636 35.8896C113.587 35.9961 113.505 36.0825 113.389 36.1489C113.273 36.2144 113.116 36.2471 112.917 36.2471H112.735V37H112.27V34.9082ZM112.917 35.2539H112.735V35.8999H112.876C112.986 35.8999 113.075 35.8745 113.141 35.8237C113.208 35.7729 113.242 35.6855 113.242 35.5615C113.242 35.4629 113.216 35.3872 113.163 35.3345C113.11 35.2808 113.028 35.2539 112.917 35.2539Z" fill="#13594E"/>
<path d="M112.27 36.9082H112.932C113.196 36.9082 113.392 36.9639 113.519 37.0752C113.647 37.1865 113.711 37.3442 113.711 37.5483C113.711 37.6694 113.686 37.7832 113.636 37.8896C113.587 37.9961 113.505 38.0825 113.389 38.1489C113.273 38.2144 113.116 38.2471 112.917 38.2471H112.735V39H112.27V36.9082ZM112.917 37.2539H112.735V37.8999H112.876C112.986 37.8999 113.075 37.8745 113.141 37.8237C113.208 37.7729 113.242 37.6855 113.242 37.5615C113.242 37.4629 113.216 37.3872 113.163 37.3345C113.11 37.2808 113.028 37.2539 112.917 37.2539Z" fill="#13594E"/>
<path d="M114.27 10.9082H114.932C115.196 10.9082 115.392 10.9639 115.519 11.0752C115.647 11.1865 115.711 11.3442 115.711 11.5483C115.711 11.6694 115.686 11.7832 115.636 11.8896C115.587 11.9961 115.505 12.0825 115.389 12.1489C115.273 12.2144 115.116 12.2471 114.917 12.2471H114.735V13H114.27V10.9082ZM114.917 11.2539H114.735V11.8999H114.876C114.986 11.8999 115.075 11.8745 115.141 11.8237C115.208 11.7729 115.242 11.6855 115.242 11.5615C115.242 11.4629 115.216 11.3872 115.163 11.3345C115.11 11.2808 115.028 11.2539 114.917 11.2539Z" fill="#13594E"/>
<path d="M114.27 12.9082H114.932C115.196 12.9082 115.392 12.9639 115.519 13.0752C115.647 13.1865 115.711 13.3442 115.711 13.5483C115.711 13.6694 115.686 13.7832 115.636 13.8896C115.587 13.9961 115.505 14.0825 115.389 14.1489C115.273 14.2144 115.116 14.2471 114.917 14.2471H114.735V15H114.27V12.9082ZM114.917 13.2539H114.735V13.8999H114.876C114.986 13.8999 115.075 13.8745 115.141 13.8237C115.208 13.7729 115.242 13.6855 115.242 13.5615C115.242 13.4629 115.216 13.3872 115.163 13.3345C115.11 13.2808 115.028 13.2539 114.917 13.2539Z" fill="#13594E"/>
<path d="M114.27 14.9082H114.932C115.196 14.9082 115.392 14.9639 115.519 15.0752C115.647 15.1865 115.711 15.3442 115.711 15.5483C115.711 15.6694 115.686 15.7832 115.636 15.8896C115.587 15.9961 115.505 16.0825 115.389 16.1489C115.273 16.2144 115.116 16.2471 114.917 16.2471H114.735V17H114.27V14.9082ZM114.917 15.2539H114.735V15.8999H114.876C114.986 15.8999 115.075 15.8745 115.141 15.8237C115.208 15.7729 115.242 15.6855 115.242 15.5615C115.242 15.4629 115.216 15.3872 115.163 15.3345C115.11 15.2808 115.028 15.2539 114.917 15.2539Z" fill="#13594E"/>
<path d="M114.27 16.9082H114.932C115.196 16.9082 115.392 16.9639 115.519 17.0752C115.647 17.1865 115.711 17.3442 115.711 17.5483C115.711 17.6694 115.686 17.7832 115.636 17.8896C115.587 17.9961 115.505 18.0825 115.389 18.1489C115.273 18.2144 115.116 18.2471 114.917 18.2471H114.735V19H114.27V16.9082ZM114.917 17.2539H114.735V17.8999H114.876C114.986 17.8999 115.075 17.8745 115.141 17.8237C115.208 17.7729 115.242 17.6855 115.242 17.5615C115.242 17.4629 115.216 17.3872 115.163 17.3345C115.11 17.2808 115.028 17.2539 114.917 17.2539Z" fill="#13594E"/>
<path d="M114.27 18.9082H114.932C115.196 18.9082 115.392 18.9639 115.519 19.0752C115.647 19.1865 115.711 19.3442 115.711 19.5483C115.711 19.6694 115.686 19.7832 115.636 19.8896C115.587 19.9961 115.505 20.0825 115.389 20.1489C115.273 20.2144 115.116 20.2471 114.917 20.2471H114.735V21H114.27V18.9082ZM114.917 19.2539H114.735V19.8999H114.876C114.986 19.8999 115.075 19.8745 115.141 19.8237C115.208 19.7729 115.242 19.6855 115.242 19.5615C115.242 19.4629 115.216 19.3872 115.163 19.3345C115.11 19.2808 115.028 19.2539 114.917 19.2539Z" fill="#13594E"/>
<path d="M114.27 20.9082H114.932C115.196 20.9082 115.392 20.9639 115.519 21.0752C115.647 21.1865 115.711 21.3442 115.711 21.5483C115.711 21.6694 115.686 21.7832 115.636 21.8896C115.587 21.9961 115.505 22.0825 115.389 22.1489C115.273 22.2144 115.116 22.2471 114.917 22.2471H114.735V23H114.27V20.9082ZM114.917 21.2539H114.735V21.8999H114.876C114.986 21.8999 115.075 21.8745 115.141 21.8237C115.208 21.7729 115.242 21.6855 115.242 21.5615C115.242 21.4629 115.216 21.3872 115.163 21.3345C115.11 21.2808 115.028 21.2539 114.917 21.2539Z" fill="#13594E"/>
<path d="M114.27 22.9082H114.932C115.196 22.9082 115.392 22.9639 115.519 23.0752C115.647 23.1865 115.711 23.3442 115.711 23.5483C115.711 23.6694 115.686 23.7832 115.636 23.8896C115.587 23.9961 115.505 24.0825 115.389 24.1489C115.273 24.2144 115.116 24.2471 114.917 24.2471H114.735V25H114.27V22.9082ZM114.917 23.2539H114.735V23.8999H114.876C114.986 23.8999 115.075 23.8745 115.141 23.8237C115.208 23.7729 115.242 23.6855 115.242 23.5615C115.242 23.4629 115.216 23.3872 115.163 23.3345C115.11 23.2808 115.028 23.2539 114.917 23.2539Z" fill="#13594E"/>
<path d="M114.27 24.9082H114.932C115.196 24.9082 115.392 24.9639 115.519 25.0752C115.647 25.1865 115.711 25.3442 115.711 25.5483C115.711 25.6694 115.686 25.7832 115.636 25.8896C115.587 25.9961 115.505 26.0825 115.389 26.1489C115.273 26.2144 115.116 26.2471 114.917 26.2471H114.735V27H114.27V24.9082ZM114.917 25.2539H114.735V25.8999H114.876C114.986 25.8999 115.075 25.8745 115.141 25.8237C115.208 25.7729 115.242 25.6855 115.242 25.5615C115.242 25.4629 115.216 25.3872 115.163 25.3345C115.11 25.2808 115.028 25.2539 114.917 25.2539Z" fill="#13594E"/>
<path d="M114.27 26.9082H114.932C115.196 26.9082 115.392 26.9639 115.519 27.0752C115.647 27.1865 115.711 27.3442 115.711 27.5483C115.711 27.6694 115.686 27.7832 115.636 27.8896C115.587 27.9961 115.505 28.0825 115.389 28.1489C115.273 28.2144 115.116 28.2471 114.917 28.2471H114.735V29H114.27V26.9082ZM114.917 27.2539H114.735V27.8999H114.876C114.986 27.8999 115.075 27.8745 115.141 27.8237C115.208 27.7729 115.242 27.6855 115.242 27.5615C115.242 27.4629 115.216 27.3872 115.163 27.3345C115.11 27.2808 115.028 27.2539 114.917 27.2539Z" fill="#13594E"/>
<path d="M114.27 28.9082H114.932C115.196 28.9082 115.392 28.9639 115.519 29.0752C115.647 29.1865 115.711 29.3442 115.711 29.5483C115.711 29.6694 115.686 29.7832 115.636 29.8896C115.587 29.9961 115.505 30.0825 115.389 30.1489C115.273 30.2144 115.116 30.2471 114.917 30.2471H114.735V31H114.27V28.9082ZM114.917 29.2539H114.735V29.8999H114.876C114.986 29.8999 115.075 29.8745 115.141 29.8237C115.208 29.7729 115.242 29.6855 115.242 29.5615C115.242 29.4629 115.216 29.3872 115.163 29.3345C115.11 29.2808 115.028 29.2539 114.917 29.2539Z" fill="#13594E"/>
<path d="M114.27 30.9082H114.932C115.196 30.9082 115.392 30.9639 115.519 31.0752C115.647 31.1865 115.711 31.3442 115.711 31.5483C115.711 31.6694 115.686 31.7832 115.636 31.8896C115.587 31.9961 115.505 32.0825 115.389 32.1489C115.273 32.2144 115.116 32.2471 114.917 32.2471H114.735V33H114.27V30.9082ZM114.917 31.2539H114.735V31.8999H114.876C114.986 31.8999 115.075 31.8745 115.141 31.8237C115.208 31.7729 115.242 31.6855 115.242 31.5615C115.242 31.4629 115.216 31.3872 115.163 31.3345C115.11 31.2808 115.028 31.2539 114.917 31.2539Z" fill="#13594E"/>
<path d="M114.27 32.9082H114.932C115.196 32.9082 115.392 32.9639 115.519 33.0752C115.647 33.1865 115.711 33.3442 115.711 33.5483C115.711 33.6694 115.686 33.7832 115.636 33.8896C115.587 33.9961 115.505 34.0825 115.389 34.1489C115.273 34.2144 115.116 34.2471 114.917 34.2471H114.735V35H114.27V32.9082ZM114.917 33.2539H114.735V33.8999H114.876C114.986 33.8999 115.075 33.8745 115.141 33.8237C115.208 33.7729 115.242 33.6855 115.242 33.5615C115.242 33.4629 115.216 33.3872 115.163 33.3345C115.11 33.2808 115.028 33.2539 114.917 33.2539Z" fill="#13594E"/>
<path d="M114.27 34.9082H114.932C115.196 34.9082 115.392 34.9639 115.519 35.0752C115.647 35.1865 115.711 35.3442 115.711 35.5483C115.711 35.6694 115.686 35.7832 115.636 35.8896C115.587 35.9961 115.505 36.0825 115.389 36.1489C115.273 36.2144 115.116 36.2471 114.917 36.2471H114.735V37H114.27V34.9082ZM114.917 35.2539H114.735V35.8999H114.876C114.986 35.8999 115.075 35.8745 115.141 35.8237C115.208 35.7729 115.242 35.6855 115.242 35.5615C115.242 35.4629 115.216 35.3872 115.163 35.3345C115.11 35.2808 115.028 35.2539 114.917 35.2539Z" fill="#13594E"/>
<path d="M114.27 36.9082H114.932C115.196 36.9082 115.392 36.9639 115.519 37.0752C115.647 37.1865 115.711 37.3442 115.711 37.5483C115.711 37.6694 115.686 37.7832 115.636 37.8896C115.587 37.9961 115.505 38.0825 115.389 38.1489C115.273 38.2144 115.116 38.2471 114.917 38.2471H114.735V39H114.27V36.9082ZM114.917 37.2539H114.735V37.8999H114.876C114.986 37.8999 115.075 37.8745 115.141 37.8237C115.208 37.7729 115.242 37.6855 115.242 37.5615C115.242 37.4629 115.216 37.3872 115.163 37.3345C115.11 37.2808 115.028 37.2539 114.917 37.2539Z" fill="#13594E"/>
<path d="M116.27 10.9082H116.932C117.196 10.9082 117.392 10.9639 117.519 11.0752C117.647 11.1865 117.711 11.3442 117.711 11.5483C117.711 11.6694 117.686 11.7832 117.636 11.8896C117.587 11.9961 117.505 12.0825 117.389 12.1489C117.273 12.2144 117.116 12.2471 116.917 12.2471H116.735V13H116.27V10.9082ZM116.917 11.2539H116.735V11.8999H116.876C116.986 11.8999 117.075 11.8745 117.141 11.8237C117.208 11.7729 117.242 11.6855 117.242 11.5615C117.242 11.4629 117.216 11.3872 117.163 11.3345C117.11 11.2808 117.028 11.2539 116.917 11.2539Z" fill="#13594E"/>
<path d="M116.27 12.9082H116.932C117.196 12.9082 117.392 12.9639 117.519 13.0752C117.647 13.1865 117.711 13.3442 117.711 13.5483C117.711 13.6694 117.686 13.7832 117.636 13.8896C117.587 13.9961 117.505 14.0825 117.389 14.1489C117.273 14.2144 117.116 14.2471 116.917 14.2471H116.735V15H116.27V12.9082ZM116.917 13.2539H116.735V13.8999H116.876C116.986 13.8999 117.075 13.8745 117.141 13.8237C117.208 13.7729 117.242 13.6855 117.242 13.5615C117.242 13.4629 117.216 13.3872 117.163 13.3345C117.11 13.2808 117.028 13.2539 116.917 13.2539Z" fill="#13594E"/>
<path d="M116.27 14.9082H116.932C117.196 14.9082 117.392 14.9639 117.519 15.0752C117.647 15.1865 117.711 15.3442 117.711 15.5483C117.711 15.6694 117.686 15.7832 117.636 15.8896C117.587 15.9961 117.505 16.0825 117.389 16.1489C117.273 16.2144 117.116 16.2471 116.917 16.2471H116.735V17H116.27V14.9082ZM116.917 15.2539H116.735V15.8999H116.876C116.986 15.8999 117.075 15.8745 117.141 15.8237C117.208 15.7729 117.242 15.6855 117.242 15.5615C117.242 15.4629 117.216 15.3872 117.163 15.3345C117.11 15.2808 117.028 15.2539 116.917 15.2539Z" fill="#13594E"/>
<path d="M116.27 16.9082H116.932C117.196 16.9082 117.392 16.9639 117.519 17.0752C117.647 17.1865 117.711 17.3442 117.711 17.5483C117.711 17.6694 117.686 17.7832 117.636 17.8896C117.587 17.9961 117.505 18.0825 117.389 18.1489C117.273 18.2144 117.116 18.2471 116.917 18.2471H116.735V19H116.27V16.9082ZM116.917 17.2539H116.735V17.8999H116.876C116.986 17.8999 117.075 17.8745 117.141 17.8237C117.208 17.7729 117.242 17.6855 117.242 17.5615C117.242 17.4629 117.216 17.3872 117.163 17.3345C117.11 17.2808 117.028 17.2539 116.917 17.2539Z" fill="#13594E"/>
<path d="M116.27 18.9082H116.932C117.196 18.9082 117.392 18.9639 117.519 19.0752C117.647 19.1865 117.711 19.3442 117.711 19.5483C117.711 19.6694 117.686 19.7832 117.636 19.8896C117.587 19.9961 117.505 20.0825 117.389 20.1489C117.273 20.2144 117.116 20.2471 116.917 20.2471H116.735V21H116.27V18.9082ZM116.917 19.2539H116.735V19.8999H116.876C116.986 19.8999 117.075 19.8745 117.141 19.8237C117.208 19.7729 117.242 19.6855 117.242 19.5615C117.242 19.4629 117.216 19.3872 117.163 19.3345C117.11 19.2808 117.028 19.2539 116.917 19.2539Z" fill="#13594E"/>
<path d="M116.27 20.9082H116.932C117.196 20.9082 117.392 20.9639 117.519 21.0752C117.647 21.1865 117.711 21.3442 117.711 21.5483C117.711 21.6694 117.686 21.7832 117.636 21.8896C117.587 21.9961 117.505 22.0825 117.389 22.1489C117.273 22.2144 117.116 22.2471 116.917 22.2471H116.735V23H116.27V20.9082ZM116.917 21.2539H116.735V21.8999H116.876C116.986 21.8999 117.075 21.8745 117.141 21.8237C117.208 21.7729 117.242 21.6855 117.242 21.5615C117.242 21.4629 117.216 21.3872 117.163 21.3345C117.11 21.2808 117.028 21.2539 116.917 21.2539Z" fill="#13594E"/>
<path d="M116.27 22.9082H116.932C117.196 22.9082 117.392 22.9639 117.519 23.0752C117.647 23.1865 117.711 23.3442 117.711 23.5483C117.711 23.6694 117.686 23.7832 117.636 23.8896C117.587 23.9961 117.505 24.0825 117.389 24.1489C117.273 24.2144 117.116 24.2471 116.917 24.2471H116.735V25H116.27V22.9082ZM116.917 23.2539H116.735V23.8999H116.876C116.986 23.8999 117.075 23.8745 117.141 23.8237C117.208 23.7729 117.242 23.6855 117.242 23.5615C117.242 23.4629 117.216 23.3872 117.163 23.3345C117.11 23.2808 117.028 23.2539 116.917 23.2539Z" fill="#13594E"/>
<path d="M116.27 24.9082H116.932C117.196 24.9082 117.392 24.9639 117.519 25.0752C117.647 25.1865 117.711 25.3442 117.711 25.5483C117.711 25.6694 117.686 25.7832 117.636 25.8896C117.587 25.9961 117.505 26.0825 117.389 26.1489C117.273 26.2144 117.116 26.2471 116.917 26.2471H116.735V27H116.27V24.9082ZM116.917 25.2539H116.735V25.8999H116.876C116.986 25.8999 117.075 25.8745 117.141 25.8237C117.208 25.7729 117.242 25.6855 117.242 25.5615C117.242 25.4629 117.216 25.3872 117.163 25.3345C117.11 25.2808 117.028 25.2539 116.917 25.2539Z" fill="#13594E"/>
<path d="M116.27 26.9082H116.932C117.196 26.9082 117.392 26.9639 117.519 27.0752C117.647 27.1865 117.711 27.3442 117.711 27.5483C117.711 27.6694 117.686 27.7832 117.636 27.8896C117.587 27.9961 117.505 28.0825 117.389 28.1489C117.273 28.2144 117.116 28.2471 116.917 28.2471H116.735V29H116.27V26.9082ZM116.917 27.2539H116.735V27.8999H116.876C116.986 27.8999 117.075 27.8745 117.141 27.8237C117.208 27.7729 117.242 27.6855 117.242 27.5615C117.242 27.4629 117.216 27.3872 117.163 27.3345C117.11 27.2808 117.028 27.2539 116.917 27.2539Z" fill="#13594E"/>
<path d="M116.27 28.9082H116.932C117.196 28.9082 117.392 28.9639 117.519 29.0752C117.647 29.1865 117.711 29.3442 117.711 29.5483C117.711 29.6694 117.686 29.7832 117.636 29.8896C117.587 29.9961 117.505 30.0825 117.389 30.1489C117.273 30.2144 117.116 30.2471 116.917 30.2471H116.735V31H116.27V28.9082ZM116.917 29.2539H116.735V29.8999H116.876C116.986 29.8999 117.075 29.8745 117.141 29.8237C117.208 29.7729 117.242 29.6855 117.242 29.5615C117.242 29.4629 117.216 29.3872 117.163 29.3345C117.11 29.2808 117.028 29.2539 116.917 29.2539Z" fill="#13594E"/>
<path d="M116.27 30.9082H116.932C117.196 30.9082 117.392 30.9639 117.519 31.0752C117.647 31.1865 117.711 31.3442 117.711 31.5483C117.711 31.6694 117.686 31.7832 117.636 31.8896C117.587 31.9961 117.505 32.0825 117.389 32.1489C117.273 32.2144 117.116 32.2471 116.917 32.2471H116.735V33H116.27V30.9082ZM116.917 31.2539H116.735V31.8999H116.876C116.986 31.8999 117.075 31.8745 117.141 31.8237C117.208 31.7729 117.242 31.6855 117.242 31.5615C117.242 31.4629 117.216 31.3872 117.163 31.3345C117.11 31.2808 117.028 31.2539 116.917 31.2539Z" fill="#13594E"/>
<path d="M116.27 32.9082H116.932C117.196 32.9082 117.392 32.9639 117.519 33.0752C117.647 33.1865 117.711 33.3442 117.711 33.5483C117.711 33.6694 117.686 33.7832 117.636 33.8896C117.587 33.9961 117.505 34.0825 117.389 34.1489C117.273 34.2144 117.116 34.2471 116.917 34.2471H116.735V35H116.27V32.9082ZM116.917 33.2539H116.735V33.8999H116.876C116.986 33.8999 117.075 33.8745 117.141 33.8237C117.208 33.7729 117.242 33.6855 117.242 33.5615C117.242 33.4629 117.216 33.3872 117.163 33.3345C117.11 33.2808 117.028 33.2539 116.917 33.2539Z" fill="#13594E"/>
<path d="M116.27 34.9082H116.932C117.196 34.9082 117.392 34.9639 117.519 35.0752C117.647 35.1865 117.711 35.3442 117.711 35.5483C117.711 35.6694 117.686 35.7832 117.636 35.8896C117.587 35.9961 117.505 36.0825 117.389 36.1489C117.273 36.2144 117.116 36.2471 116.917 36.2471H116.735V37H116.27V34.9082ZM116.917 35.2539H116.735V35.8999H116.876C116.986 35.8999 117.075 35.8745 117.141 35.8237C117.208 35.7729 117.242 35.6855 117.242 35.5615C117.242 35.4629 117.216 35.3872 117.163 35.3345C117.11 35.2808 117.028 35.2539 116.917 35.2539Z" fill="#13594E"/>
<path d="M116.27 36.9082H116.932C117.196 36.9082 117.392 36.9639 117.519 37.0752C117.647 37.1865 117.711 37.3442 117.711 37.5483C117.711 37.6694 117.686 37.7832 117.636 37.8896C117.587 37.9961 117.505 38.0825 117.389 38.1489C117.273 38.2144 117.116 38.2471 116.917 38.2471H116.735V39H116.27V36.9082ZM116.917 37.2539H116.735V37.8999H116.876C116.986 37.8999 117.075 37.8745 117.141 37.8237C117.208 37.7729 117.242 37.6855 117.242 37.5615C117.242 37.4629 117.216 37.3872 117.163 37.3345C117.11 37.2808 117.028 37.2539 116.917 37.2539Z" fill="#13594E"/>
<path d="M118.27 10.9082H118.932C119.196 10.9082 119.392 10.9639 119.519 11.0752C119.647 11.1865 119.711 11.3442 119.711 11.5483C119.711 11.6694 119.686 11.7832 119.636 11.8896C119.587 11.9961 119.505 12.0825 119.389 12.1489C119.273 12.2144 119.116 12.2471 118.917 12.2471H118.735V13H118.27V10.9082ZM118.917 11.2539H118.735V11.8999H118.876C118.986 11.8999 119.075 11.8745 119.141 11.8237C119.208 11.7729 119.242 11.6855 119.242 11.5615C119.242 11.4629 119.216 11.3872 119.163 11.3345C119.11 11.2808 119.028 11.2539 118.917 11.2539Z" fill="#13594E"/>
<path d="M118.27 12.9082H118.932C119.196 12.9082 119.392 12.9639 119.519 13.0752C119.647 13.1865 119.711 13.3442 119.711 13.5483C119.711 13.6694 119.686 13.7832 119.636 13.8896C119.587 13.9961 119.505 14.0825 119.389 14.1489C119.273 14.2144 119.116 14.2471 118.917 14.2471H118.735V15H118.27V12.9082ZM118.917 13.2539H118.735V13.8999H118.876C118.986 13.8999 119.075 13.8745 119.141 13.8237C119.208 13.7729 119.242 13.6855 119.242 13.5615C119.242 13.4629 119.216 13.3872 119.163 13.3345C119.11 13.2808 119.028 13.2539 118.917 13.2539Z" fill="#13594E"/>
<path d="M118.27 14.9082H118.932C119.196 14.9082 119.392 14.9639 119.519 15.0752C119.647 15.1865 119.711 15.3442 119.711 15.5483C119.711 15.6694 119.686 15.7832 119.636 15.8896C119.587 15.9961 119.505 16.0825 119.389 16.1489C119.273 16.2144 119.116 16.2471 118.917 16.2471H118.735V17H118.27V14.9082ZM118.917 15.2539H118.735V15.8999H118.876C118.986 15.8999 119.075 15.8745 119.141 15.8237C119.208 15.7729 119.242 15.6855 119.242 15.5615C119.242 15.4629 119.216 15.3872 119.163 15.3345C119.11 15.2808 119.028 15.2539 118.917 15.2539Z" fill="#13594E"/>
<path d="M118.27 16.9082H118.932C119.196 16.9082 119.392 16.9639 119.519 17.0752C119.647 17.1865 119.711 17.3442 119.711 17.5483C119.711 17.6694 119.686 17.7832 119.636 17.8896C119.587 17.9961 119.505 18.0825 119.389 18.1489C119.273 18.2144 119.116 18.2471 118.917 18.2471H118.735V19H118.27V16.9082ZM118.917 17.2539H118.735V17.8999H118.876C118.986 17.8999 119.075 17.8745 119.141 17.8237C119.208 17.7729 119.242 17.6855 119.242 17.5615C119.242 17.4629 119.216 17.3872 119.163 17.3345C119.11 17.2808 119.028 17.2539 118.917 17.2539Z" fill="#13594E"/>
<path d="M118.27 18.9082H118.932C119.196 18.9082 119.392 18.9639 119.519 19.0752C119.647 19.1865 119.711 19.3442 119.711 19.5483C119.711 19.6694 119.686 19.7832 119.636 19.8896C119.587 19.9961 119.505 20.0825 119.389 20.1489C119.273 20.2144 119.116 20.2471 118.917 20.2471H118.735V21H118.27V18.9082ZM118.917 19.2539H118.735V19.8999H118.876C118.986 19.8999 119.075 19.8745 119.141 19.8237C119.208 19.7729 119.242 19.6855 119.242 19.5615C119.242 19.4629 119.216 19.3872 119.163 19.3345C119.11 19.2808 119.028 19.2539 118.917 19.2539Z" fill="#13594E"/>
<path d="M118.27 20.9082H118.932C119.196 20.9082 119.392 20.9639 119.519 21.0752C119.647 21.1865 119.711 21.3442 119.711 21.5483C119.711 21.6694 119.686 21.7832 119.636 21.8896C119.587 21.9961 119.505 22.0825 119.389 22.1489C119.273 22.2144 119.116 22.2471 118.917 22.2471H118.735V23H118.27V20.9082ZM118.917 21.2539H118.735V21.8999H118.876C118.986 21.8999 119.075 21.8745 119.141 21.8237C119.208 21.7729 119.242 21.6855 119.242 21.5615C119.242 21.4629 119.216 21.3872 119.163 21.3345C119.11 21.2808 119.028 21.2539 118.917 21.2539Z" fill="#13594E"/>
<path d="M118.27 22.9082H118.932C119.196 22.9082 119.392 22.9639 119.519 23.0752C119.647 23.1865 119.711 23.3442 119.711 23.5483C119.711 23.6694 119.686 23.7832 119.636 23.8896C119.587 23.9961 119.505 24.0825 119.389 24.1489C119.273 24.2144 119.116 24.2471 118.917 24.2471H118.735V25H118.27V22.9082ZM118.917 23.2539H118.735V23.8999H118.876C118.986 23.8999 119.075 23.8745 119.141 23.8237C119.208 23.7729 119.242 23.6855 119.242 23.5615C119.242 23.4629 119.216 23.3872 119.163 23.3345C119.11 23.2808 119.028 23.2539 118.917 23.2539Z" fill="#13594E"/>
<path d="M118.27 24.9082H118.932C119.196 24.9082 119.392 24.9639 119.519 25.0752C119.647 25.1865 119.711 25.3442 119.711 25.5483C119.711 25.6694 119.686 25.7832 119.636 25.8896C119.587 25.9961 119.505 26.0825 119.389 26.1489C119.273 26.2144 119.116 26.2471 118.917 26.2471H118.735V27H118.27V24.9082ZM118.917 25.2539H118.735V25.8999H118.876C118.986 25.8999 119.075 25.8745 119.141 25.8237C119.208 25.7729 119.242 25.6855 119.242 25.5615C119.242 25.4629 119.216 25.3872 119.163 25.3345C119.11 25.2808 119.028 25.2539 118.917 25.2539Z" fill="#13594E"/>
<path d="M118.27 26.9082H118.932C119.196 26.9082 119.392 26.9639 119.519 27.0752C119.647 27.1865 119.711 27.3442 119.711 27.5483C119.711 27.6694 119.686 27.7832 119.636 27.8896C119.587 27.9961 119.505 28.0825 119.389 28.1489C119.273 28.2144 119.116 28.2471 118.917 28.2471H118.735V29H118.27V26.9082ZM118.917 27.2539H118.735V27.8999H118.876C118.986 27.8999 119.075 27.8745 119.141 27.8237C119.208 27.7729 119.242 27.6855 119.242 27.5615C119.242 27.4629 119.216 27.3872 119.163 27.3345C119.11 27.2808 119.028 27.2539 118.917 27.2539Z" fill="#13594E"/>
<path d="M118.27 28.9082H118.932C119.196 28.9082 119.392 28.9639 119.519 29.0752C119.647 29.1865 119.711 29.3442 119.711 29.5483C119.711 29.6694 119.686 29.7832 119.636 29.8896C119.587 29.9961 119.505 30.0825 119.389 30.1489C119.273 30.2144 119.116 30.2471 118.917 30.2471H118.735V31H118.27V28.9082ZM118.917 29.2539H118.735V29.8999H118.876C118.986 29.8999 119.075 29.8745 119.141 29.8237C119.208 29.7729 119.242 29.6855 119.242 29.5615C119.242 29.4629 119.216 29.3872 119.163 29.3345C119.11 29.2808 119.028 29.2539 118.917 29.2539Z" fill="#13594E"/>
<path d="M118.27 30.9082H118.932C119.196 30.9082 119.392 30.9639 119.519 31.0752C119.647 31.1865 119.711 31.3442 119.711 31.5483C119.711 31.6694 119.686 31.7832 119.636 31.8896C119.587 31.9961 119.505 32.0825 119.389 32.1489C119.273 32.2144 119.116 32.2471 118.917 32.2471H118.735V33H118.27V30.9082ZM118.917 31.2539H118.735V31.8999H118.876C118.986 31.8999 119.075 31.8745 119.141 31.8237C119.208 31.7729 119.242 31.6855 119.242 31.5615C119.242 31.4629 119.216 31.3872 119.163 31.3345C119.11 31.2808 119.028 31.2539 118.917 31.2539Z" fill="#13594E"/>
<path d="M118.27 32.9082H118.932C119.196 32.9082 119.392 32.9639 119.519 33.0752C119.647 33.1865 119.711 33.3442 119.711 33.5483C119.711 33.6694 119.686 33.7832 119.636 33.8896C119.587 33.9961 119.505 34.0825 119.389 34.1489C119.273 34.2144 119.116 34.2471 118.917 34.2471H118.735V35H118.27V32.9082ZM118.917 33.2539H118.735V33.8999H118.876C118.986 33.8999 119.075 33.8745 119.141 33.8237C119.208 33.7729 119.242 33.6855 119.242 33.5615C119.242 33.4629 119.216 33.3872 119.163 33.3345C119.11 33.2808 119.028 33.2539 118.917 33.2539Z" fill="#13594E"/>
<path d="M118.27 34.9082H118.932C119.196 34.9082 119.392 34.9639 119.519 35.0752C119.647 35.1865 119.711 35.3442 119.711 35.5483C119.711 35.6694 119.686 35.7832 119.636 35.8896C119.587 35.9961 119.505 36.0825 119.389 36.1489C119.273 36.2144 119.116 36.2471 118.917 36.2471H118.735V37H118.27V34.9082ZM118.917 35.2539H118.735V35.8999H118.876C118.986 35.8999 119.075 35.8745 119.141 35.8237C119.208 35.7729 119.242 35.6855 119.242 35.5615C119.242 35.4629 119.216 35.3872 119.163 35.3345C119.11 35.2808 119.028 35.2539 118.917 35.2539Z" fill="#13594E"/>
<path d="M118.27 36.9082H118.932C119.196 36.9082 119.392 36.9639 119.519 37.0752C119.647 37.1865 119.711 37.3442 119.711 37.5483C119.711 37.6694 119.686 37.7832 119.636 37.8896C119.587 37.9961 119.505 38.0825 119.389 38.1489C119.273 38.2144 119.116 38.2471 118.917 38.2471H118.735V39H118.27V36.9082ZM118.917 37.2539H118.735V37.8999H118.876C118.986 37.8999 119.075 37.8745 119.141 37.8237C119.208 37.7729 119.242 37.6855 119.242 37.5615C119.242 37.4629 119.216 37.3872 119.163 37.3345C119.11 37.2808 119.028 37.2539 118.917 37.2539Z" fill="#13594E"/>
<path d="M120.27 10.9082H120.932C121.196 10.9082 121.392 10.9639 121.519 11.0752C121.647 11.1865 121.711 11.3442 121.711 11.5483C121.711 11.6694 121.686 11.7832 121.636 11.8896C121.587 11.9961 121.505 12.0825 121.389 12.1489C121.273 12.2144 121.116 12.2471 120.917 12.2471H120.735V13H120.27V10.9082ZM120.917 11.2539H120.735V11.8999H120.876C120.986 11.8999 121.075 11.8745 121.141 11.8237C121.208 11.7729 121.242 11.6855 121.242 11.5615C121.242 11.4629 121.216 11.3872 121.163 11.3345C121.11 11.2808 121.028 11.2539 120.917 11.2539Z" fill="#13594E"/>
<path d="M120.27 12.9082H120.932C121.196 12.9082 121.392 12.9639 121.519 13.0752C121.647 13.1865 121.711 13.3442 121.711 13.5483C121.711 13.6694 121.686 13.7832 121.636 13.8896C121.587 13.9961 121.505 14.0825 121.389 14.1489C121.273 14.2144 121.116 14.2471 120.917 14.2471H120.735V15H120.27V12.9082ZM120.917 13.2539H120.735V13.8999H120.876C120.986 13.8999 121.075 13.8745 121.141 13.8237C121.208 13.7729 121.242 13.6855 121.242 13.5615C121.242 13.4629 121.216 13.3872 121.163 13.3345C121.11 13.2808 121.028 13.2539 120.917 13.2539Z" fill="#13594E"/>
<path d="M120.27 14.9082H120.932C121.196 14.9082 121.392 14.9639 121.519 15.0752C121.647 15.1865 121.711 15.3442 121.711 15.5483C121.711 15.6694 121.686 15.7832 121.636 15.8896C121.587 15.9961 121.505 16.0825 121.389 16.1489C121.273 16.2144 121.116 16.2471 120.917 16.2471H120.735V17H120.27V14.9082ZM120.917 15.2539H120.735V15.8999H120.876C120.986 15.8999 121.075 15.8745 121.141 15.8237C121.208 15.7729 121.242 15.6855 121.242 15.5615C121.242 15.4629 121.216 15.3872 121.163 15.3345C121.11 15.2808 121.028 15.2539 120.917 15.2539Z" fill="#13594E"/>
<path d="M120.27 16.9082H120.932C121.196 16.9082 121.392 16.9639 121.519 17.0752C121.647 17.1865 121.711 17.3442 121.711 17.5483C121.711 17.6694 121.686 17.7832 121.636 17.8896C121.587 17.9961 121.505 18.0825 121.389 18.1489C121.273 18.2144 121.116 18.2471 120.917 18.2471H120.735V19H120.27V16.9082ZM120.917 17.2539H120.735V17.8999H120.876C120.986 17.8999 121.075 17.8745 121.141 17.8237C121.208 17.7729 121.242 17.6855 121.242 17.5615C121.242 17.4629 121.216 17.3872 121.163 17.3345C121.11 17.2808 121.028 17.2539 120.917 17.2539Z" fill="#13594E"/>
<path d="M120.27 18.9082H120.932C121.196 18.9082 121.392 18.9639 121.519 19.0752C121.647 19.1865 121.711 19.3442 121.711 19.5483C121.711 19.6694 121.686 19.7832 121.636 19.8896C121.587 19.9961 121.505 20.0825 121.389 20.1489C121.273 20.2144 121.116 20.2471 120.917 20.2471H120.735V21H120.27V18.9082ZM120.917 19.2539H120.735V19.8999H120.876C120.986 19.8999 121.075 19.8745 121.141 19.8237C121.208 19.7729 121.242 19.6855 121.242 19.5615C121.242 19.4629 121.216 19.3872 121.163 19.3345C121.11 19.2808 121.028 19.2539 120.917 19.2539Z" fill="#13594E"/>
<path d="M120.27 20.9082H120.932C121.196 20.9082 121.392 20.9639 121.519 21.0752C121.647 21.1865 121.711 21.3442 121.711 21.5483C121.711 21.6694 121.686 21.7832 121.636 21.8896C121.587 21.9961 121.505 22.0825 121.389 22.1489C121.273 22.2144 121.116 22.2471 120.917 22.2471H120.735V23H120.27V20.9082ZM120.917 21.2539H120.735V21.8999H120.876C120.986 21.8999 121.075 21.8745 121.141 21.8237C121.208 21.7729 121.242 21.6855 121.242 21.5615C121.242 21.4629 121.216 21.3872 121.163 21.3345C121.11 21.2808 121.028 21.2539 120.917 21.2539Z" fill="#13594E"/>
<path d="M120.27 22.9082H120.932C121.196 22.9082 121.392 22.9639 121.519 23.0752C121.647 23.1865 121.711 23.3442 121.711 23.5483C121.711 23.6694 121.686 23.7832 121.636 23.8896C121.587 23.9961 121.505 24.0825 121.389 24.1489C121.273 24.2144 121.116 24.2471 120.917 24.2471H120.735V25H120.27V22.9082ZM120.917 23.2539H120.735V23.8999H120.876C120.986 23.8999 121.075 23.8745 121.141 23.8237C121.208 23.7729 121.242 23.6855 121.242 23.5615C121.242 23.4629 121.216 23.3872 121.163 23.3345C121.11 23.2808 121.028 23.2539 120.917 23.2539Z" fill="#13594E"/>
<path d="M120.27 24.9082H120.932C121.196 24.9082 121.392 24.9639 121.519 25.0752C121.647 25.1865 121.711 25.3442 121.711 25.5483C121.711 25.6694 121.686 25.7832 121.636 25.8896C121.587 25.9961 121.505 26.0825 121.389 26.1489C121.273 26.2144 121.116 26.2471 120.917 26.2471H120.735V27H120.27V24.9082ZM120.917 25.2539H120.735V25.8999H120.876C120.986 25.8999 121.075 25.8745 121.141 25.8237C121.208 25.7729 121.242 25.6855 121.242 25.5615C121.242 25.4629 121.216 25.3872 121.163 25.3345C121.11 25.2808 121.028 25.2539 120.917 25.2539Z" fill="#13594E"/>
<path d="M120.27 26.9082H120.932C121.196 26.9082 121.392 26.9639 121.519 27.0752C121.647 27.1865 121.711 27.3442 121.711 27.5483C121.711 27.6694 121.686 27.7832 121.636 27.8896C121.587 27.9961 121.505 28.0825 121.389 28.1489C121.273 28.2144 121.116 28.2471 120.917 28.2471H120.735V29H120.27V26.9082ZM120.917 27.2539H120.735V27.8999H120.876C120.986 27.8999 121.075 27.8745 121.141 27.8237C121.208 27.7729 121.242 27.6855 121.242 27.5615C121.242 27.4629 121.216 27.3872 121.163 27.3345C121.11 27.2808 121.028 27.2539 120.917 27.2539Z" fill="#13594E"/>
<path d="M120.27 28.9082H120.932C121.196 28.9082 121.392 28.9639 121.519 29.0752C121.647 29.1865 121.711 29.3442 121.711 29.5483C121.711 29.6694 121.686 29.7832 121.636 29.8896C121.587 29.9961 121.505 30.0825 121.389 30.1489C121.273 30.2144 121.116 30.2471 120.917 30.2471H120.735V31H120.27V28.9082ZM120.917 29.2539H120.735V29.8999H120.876C120.986 29.8999 121.075 29.8745 121.141 29.8237C121.208 29.7729 121.242 29.6855 121.242 29.5615C121.242 29.4629 121.216 29.3872 121.163 29.3345C121.11 29.2808 121.028 29.2539 120.917 29.2539Z" fill="#13594E"/>
<path d="M120.27 30.9082H120.932C121.196 30.9082 121.392 30.9639 121.519 31.0752C121.647 31.1865 121.711 31.3442 121.711 31.5483C121.711 31.6694 121.686 31.7832 121.636 31.8896C121.587 31.9961 121.505 32.0825 121.389 32.1489C121.273 32.2144 121.116 32.2471 120.917 32.2471H120.735V33H120.27V30.9082ZM120.917 31.2539H120.735V31.8999H120.876C120.986 31.8999 121.075 31.8745 121.141 31.8237C121.208 31.7729 121.242 31.6855 121.242 31.5615C121.242 31.4629 121.216 31.3872 121.163 31.3345C121.11 31.2808 121.028 31.2539 120.917 31.2539Z" fill="#13594E"/>
<path d="M120.27 32.9082H120.932C121.196 32.9082 121.392 32.9639 121.519 33.0752C121.647 33.1865 121.711 33.3442 121.711 33.5483C121.711 33.6694 121.686 33.7832 121.636 33.8896C121.587 33.9961 121.505 34.0825 121.389 34.1489C121.273 34.2144 121.116 34.2471 120.917 34.2471H120.735V35H120.27V32.9082ZM120.917 33.2539H120.735V33.8999H120.876C120.986 33.8999 121.075 33.8745 121.141 33.8237C121.208 33.7729 121.242 33.6855 121.242 33.5615C121.242 33.4629 121.216 33.3872 121.163 33.3345C121.11 33.2808 121.028 33.2539 120.917 33.2539Z" fill="#13594E"/>
<path d="M120.27 34.9082H120.932C121.196 34.9082 121.392 34.9639 121.519 35.0752C121.647 35.1865 121.711 35.3442 121.711 35.5483C121.711 35.6694 121.686 35.7832 121.636 35.8896C121.587 35.9961 121.505 36.0825 121.389 36.1489C121.273 36.2144 121.116 36.2471 120.917 36.2471H120.735V37H120.27V34.9082ZM120.917 35.2539H120.735V35.8999H120.876C120.986 35.8999 121.075 35.8745 121.141 35.8237C121.208 35.7729 121.242 35.6855 121.242 35.5615C121.242 35.4629 121.216 35.3872 121.163 35.3345C121.11 35.2808 121.028 35.2539 120.917 35.2539Z" fill="#13594E"/>
<path d="M120.27 36.9082H120.932C121.196 36.9082 121.392 36.9639 121.519 37.0752C121.647 37.1865 121.711 37.3442 121.711 37.5483C121.711 37.6694 121.686 37.7832 121.636 37.8896C121.587 37.9961 121.505 38.0825 121.389 38.1489C121.273 38.2144 121.116 38.2471 120.917 38.2471H120.735V39H120.27V36.9082ZM120.917 37.2539H120.735V37.8999H120.876C120.986 37.8999 121.075 37.8745 121.141 37.8237C121.208 37.7729 121.242 37.6855 121.242 37.5615C121.242 37.4629 121.216 37.3872 121.163 37.3345C121.11 37.2808 121.028 37.2539 120.917 37.2539Z" fill="#13594E"/>
<path d="M122.27 10.9082H122.932C123.196 10.9082 123.392 10.9639 123.519 11.0752C123.647 11.1865 123.711 11.3442 123.711 11.5483C123.711 11.6694 123.686 11.7832 123.636 11.8896C123.587 11.9961 123.505 12.0825 123.389 12.1489C123.273 12.2144 123.116 12.2471 122.917 12.2471H122.735V13H122.27V10.9082ZM122.917 11.2539H122.735V11.8999H122.876C122.986 11.8999 123.075 11.8745 123.141 11.8237C123.208 11.7729 123.242 11.6855 123.242 11.5615C123.242 11.4629 123.216 11.3872 123.163 11.3345C123.11 11.2808 123.028 11.2539 122.917 11.2539Z" fill="#13594E"/>
<path d="M122.27 12.9082H122.932C123.196 12.9082 123.392 12.9639 123.519 13.0752C123.647 13.1865 123.711 13.3442 123.711 13.5483C123.711 13.6694 123.686 13.7832 123.636 13.8896C123.587 13.9961 123.505 14.0825 123.389 14.1489C123.273 14.2144 123.116 14.2471 122.917 14.2471H122.735V15H122.27V12.9082ZM122.917 13.2539H122.735V13.8999H122.876C122.986 13.8999 123.075 13.8745 123.141 13.8237C123.208 13.7729 123.242 13.6855 123.242 13.5615C123.242 13.4629 123.216 13.3872 123.163 13.3345C123.11 13.2808 123.028 13.2539 122.917 13.2539Z" fill="#13594E"/>
<path d="M122.27 14.9082H122.932C123.196 14.9082 123.392 14.9639 123.519 15.0752C123.647 15.1865 123.711 15.3442 123.711 15.5483C123.711 15.6694 123.686 15.7832 123.636 15.8896C123.587 15.9961 123.505 16.0825 123.389 16.1489C123.273 16.2144 123.116 16.2471 122.917 16.2471H122.735V17H122.27V14.9082ZM122.917 15.2539H122.735V15.8999H122.876C122.986 15.8999 123.075 15.8745 123.141 15.8237C123.208 15.7729 123.242 15.6855 123.242 15.5615C123.242 15.4629 123.216 15.3872 123.163 15.3345C123.11 15.2808 123.028 15.2539 122.917 15.2539Z" fill="#13594E"/>
<path d="M122.27 16.9082H122.932C123.196 16.9082 123.392 16.9639 123.519 17.0752C123.647 17.1865 123.711 17.3442 123.711 17.5483C123.711 17.6694 123.686 17.7832 123.636 17.8896C123.587 17.9961 123.505 18.0825 123.389 18.1489C123.273 18.2144 123.116 18.2471 122.917 18.2471H122.735V19H122.27V16.9082ZM122.917 17.2539H122.735V17.8999H122.876C122.986 17.8999 123.075 17.8745 123.141 17.8237C123.208 17.7729 123.242 17.6855 123.242 17.5615C123.242 17.4629 123.216 17.3872 123.163 17.3345C123.11 17.2808 123.028 17.2539 122.917 17.2539Z" fill="#13594E"/>
<path d="M122.27 18.9082H122.932C123.196 18.9082 123.392 18.9639 123.519 19.0752C123.647 19.1865 123.711 19.3442 123.711 19.5483C123.711 19.6694 123.686 19.7832 123.636 19.8896C123.587 19.9961 123.505 20.0825 123.389 20.1489C123.273 20.2144 123.116 20.2471 122.917 20.2471H122.735V21H122.27V18.9082ZM122.917 19.2539H122.735V19.8999H122.876C122.986 19.8999 123.075 19.8745 123.141 19.8237C123.208 19.7729 123.242 19.6855 123.242 19.5615C123.242 19.4629 123.216 19.3872 123.163 19.3345C123.11 19.2808 123.028 19.2539 122.917 19.2539Z" fill="#13594E"/>
<path d="M122.27 20.9082H122.932C123.196 20.9082 123.392 20.9639 123.519 21.0752C123.647 21.1865 123.711 21.3442 123.711 21.5483C123.711 21.6694 123.686 21.7832 123.636 21.8896C123.587 21.9961 123.505 22.0825 123.389 22.1489C123.273 22.2144 123.116 22.2471 122.917 22.2471H122.735V23H122.27V20.9082ZM122.917 21.2539H122.735V21.8999H122.876C122.986 21.8999 123.075 21.8745 123.141 21.8237C123.208 21.7729 123.242 21.6855 123.242 21.5615C123.242 21.4629 123.216 21.3872 123.163 21.3345C123.11 21.2808 123.028 21.2539 122.917 21.2539Z" fill="#13594E"/>
<path d="M122.27 22.9082H122.932C123.196 22.9082 123.392 22.9639 123.519 23.0752C123.647 23.1865 123.711 23.3442 123.711 23.5483C123.711 23.6694 123.686 23.7832 123.636 23.8896C123.587 23.9961 123.505 24.0825 123.389 24.1489C123.273 24.2144 123.116 24.2471 122.917 24.2471H122.735V25H122.27V22.9082ZM122.917 23.2539H122.735V23.8999H122.876C122.986 23.8999 123.075 23.8745 123.141 23.8237C123.208 23.7729 123.242 23.6855 123.242 23.5615C123.242 23.4629 123.216 23.3872 123.163 23.3345C123.11 23.2808 123.028 23.2539 122.917 23.2539Z" fill="#13594E"/>
<path d="M122.27 24.9082H122.932C123.196 24.9082 123.392 24.9639 123.519 25.0752C123.647 25.1865 123.711 25.3442 123.711 25.5483C123.711 25.6694 123.686 25.7832 123.636 25.8896C123.587 25.9961 123.505 26.0825 123.389 26.1489C123.273 26.2144 123.116 26.2471 122.917 26.2471H122.735V27H122.27V24.9082ZM122.917 25.2539H122.735V25.8999H122.876C122.986 25.8999 123.075 25.8745 123.141 25.8237C123.208 25.7729 123.242 25.6855 123.242 25.5615C123.242 25.4629 123.216 25.3872 123.163 25.3345C123.11 25.2808 123.028 25.2539 122.917 25.2539Z" fill="#13594E"/>
<path d="M122.27 26.9082H122.932C123.196 26.9082 123.392 26.9639 123.519 27.0752C123.647 27.1865 123.711 27.3442 123.711 27.5483C123.711 27.6694 123.686 27.7832 123.636 27.8896C123.587 27.9961 123.505 28.0825 123.389 28.1489C123.273 28.2144 123.116 28.2471 122.917 28.2471H122.735V29H122.27V26.9082ZM122.917 27.2539H122.735V27.8999H122.876C122.986 27.8999 123.075 27.8745 123.141 27.8237C123.208 27.7729 123.242 27.6855 123.242 27.5615C123.242 27.4629 123.216 27.3872 123.163 27.3345C123.11 27.2808 123.028 27.2539 122.917 27.2539Z" fill="#13594E"/>
<path d="M122.27 28.9082H122.932C123.196 28.9082 123.392 28.9639 123.519 29.0752C123.647 29.1865 123.711 29.3442 123.711 29.5483C123.711 29.6694 123.686 29.7832 123.636 29.8896C123.587 29.9961 123.505 30.0825 123.389 30.1489C123.273 30.2144 123.116 30.2471 122.917 30.2471H122.735V31H122.27V28.9082ZM122.917 29.2539H122.735V29.8999H122.876C122.986 29.8999 123.075 29.8745 123.141 29.8237C123.208 29.7729 123.242 29.6855 123.242 29.5615C123.242 29.4629 123.216 29.3872 123.163 29.3345C123.11 29.2808 123.028 29.2539 122.917 29.2539Z" fill="#13594E"/>
<path d="M122.27 30.9082H122.932C123.196 30.9082 123.392 30.9639 123.519 31.0752C123.647 31.1865 123.711 31.3442 123.711 31.5483C123.711 31.6694 123.686 31.7832 123.636 31.8896C123.587 31.9961 123.505 32.0825 123.389 32.1489C123.273 32.2144 123.116 32.2471 122.917 32.2471H122.735V33H122.27V30.9082ZM122.917 31.2539H122.735V31.8999H122.876C122.986 31.8999 123.075 31.8745 123.141 31.8237C123.208 31.7729 123.242 31.6855 123.242 31.5615C123.242 31.4629 123.216 31.3872 123.163 31.3345C123.11 31.2808 123.028 31.2539 122.917 31.2539Z" fill="#13594E"/>
<path d="M122.27 32.9082H122.932C123.196 32.9082 123.392 32.9639 123.519 33.0752C123.647 33.1865 123.711 33.3442 123.711 33.5483C123.711 33.6694 123.686 33.7832 123.636 33.8896C123.587 33.9961 123.505 34.0825 123.389 34.1489C123.273 34.2144 123.116 34.2471 122.917 34.2471H122.735V35H122.27V32.9082ZM122.917 33.2539H122.735V33.8999H122.876C122.986 33.8999 123.075 33.8745 123.141 33.8237C123.208 33.7729 123.242 33.6855 123.242 33.5615C123.242 33.4629 123.216 33.3872 123.163 33.3345C123.11 33.2808 123.028 33.2539 122.917 33.2539Z" fill="#13594E"/>
<path d="M122.27 34.9082H122.932C123.196 34.9082 123.392 34.9639 123.519 35.0752C123.647 35.1865 123.711 35.3442 123.711 35.5483C123.711 35.6694 123.686 35.7832 123.636 35.8896C123.587 35.9961 123.505 36.0825 123.389 36.1489C123.273 36.2144 123.116 36.2471 122.917 36.2471H122.735V37H122.27V34.9082ZM122.917 35.2539H122.735V35.8999H122.876C122.986 35.8999 123.075 35.8745 123.141 35.8237C123.208 35.7729 123.242 35.6855 123.242 35.5615C123.242 35.4629 123.216 35.3872 123.163 35.3345C123.11 35.2808 123.028 35.2539 122.917 35.2539Z" fill="#13594E"/>
<path d="M122.27 36.9082H122.932C123.196 36.9082 123.392 36.9639 123.519 37.0752C123.647 37.1865 123.711 37.3442 123.711 37.5483C123.711 37.6694 123.686 37.7832 123.636 37.8896C123.587 37.9961 123.505 38.0825 123.389 38.1489C123.273 38.2144 123.116 38.2471 122.917 38.2471H122.735V39H122.27V36.9082ZM122.917 37.2539H122.735V37.8999H122.876C122.986 37.8999 123.075 37.8745 123.141 37.8237C123.208 37.7729 123.242 37.6855 123.242 37.5615C123.242 37.4629 123.216 37.3872 123.163 37.3345C123.11 37.2808 123.028 37.2539 122.917 37.2539Z" fill="#13594E"/>
<path d="M124.27 10.9082H124.932C125.196 10.9082 125.392 10.9639 125.519 11.0752C125.647 11.1865 125.711 11.3442 125.711 11.5483C125.711 11.6694 125.686 11.7832 125.636 11.8896C125.587 11.9961 125.505 12.0825 125.389 12.1489C125.273 12.2144 125.116 12.2471 124.917 12.2471H124.735V13H124.27V10.9082ZM124.917 11.2539H124.735V11.8999H124.876C124.986 11.8999 125.075 11.8745 125.141 11.8237C125.208 11.7729 125.242 11.6855 125.242 11.5615C125.242 11.4629 125.216 11.3872 125.163 11.3345C125.11 11.2808 125.028 11.2539 124.917 11.2539Z" fill="#13594E"/>
<path d="M124.27 12.9082H124.932C125.196 12.9082 125.392 12.9639 125.519 13.0752C125.647 13.1865 125.711 13.3442 125.711 13.5483C125.711 13.6694 125.686 13.7832 125.636 13.8896C125.587 13.9961 125.505 14.0825 125.389 14.1489C125.273 14.2144 125.116 14.2471 124.917 14.2471H124.735V15H124.27V12.9082ZM124.917 13.2539H124.735V13.8999H124.876C124.986 13.8999 125.075 13.8745 125.141 13.8237C125.208 13.7729 125.242 13.6855 125.242 13.5615C125.242 13.4629 125.216 13.3872 125.163 13.3345C125.11 13.2808 125.028 13.2539 124.917 13.2539Z" fill="#13594E"/>
<path d="M124.27 14.9082H124.932C125.196 14.9082 125.392 14.9639 125.519 15.0752C125.647 15.1865 125.711 15.3442 125.711 15.5483C125.711 15.6694 125.686 15.7832 125.636 15.8896C125.587 15.9961 125.505 16.0825 125.389 16.1489C125.273 16.2144 125.116 16.2471 124.917 16.2471H124.735V17H124.27V14.9082ZM124.917 15.2539H124.735V15.8999H124.876C124.986 15.8999 125.075 15.8745 125.141 15.8237C125.208 15.7729 125.242 15.6855 125.242 15.5615C125.242 15.4629 125.216 15.3872 125.163 15.3345C125.11 15.2808 125.028 15.2539 124.917 15.2539Z" fill="#13594E"/>
<path d="M124.27 16.9082H124.932C125.196 16.9082 125.392 16.9639 125.519 17.0752C125.647 17.1865 125.711 17.3442 125.711 17.5483C125.711 17.6694 125.686 17.7832 125.636 17.8896C125.587 17.9961 125.505 18.0825 125.389 18.1489C125.273 18.2144 125.116 18.2471 124.917 18.2471H124.735V19H124.27V16.9082ZM124.917 17.2539H124.735V17.8999H124.876C124.986 17.8999 125.075 17.8745 125.141 17.8237C125.208 17.7729 125.242 17.6855 125.242 17.5615C125.242 17.4629 125.216 17.3872 125.163 17.3345C125.11 17.2808 125.028 17.2539 124.917 17.2539Z" fill="#13594E"/>
<path d="M124.27 18.9082H124.932C125.196 18.9082 125.392 18.9639 125.519 19.0752C125.647 19.1865 125.711 19.3442 125.711 19.5483C125.711 19.6694 125.686 19.7832 125.636 19.8896C125.587 19.9961 125.505 20.0825 125.389 20.1489C125.273 20.2144 125.116 20.2471 124.917 20.2471H124.735V21H124.27V18.9082ZM124.917 19.2539H124.735V19.8999H124.876C124.986 19.8999 125.075 19.8745 125.141 19.8237C125.208 19.7729 125.242 19.6855 125.242 19.5615C125.242 19.4629 125.216 19.3872 125.163 19.3345C125.11 19.2808 125.028 19.2539 124.917 19.2539Z" fill="#13594E"/>
<path d="M124.27 20.9082H124.932C125.196 20.9082 125.392 20.9639 125.519 21.0752C125.647 21.1865 125.711 21.3442 125.711 21.5483C125.711 21.6694 125.686 21.7832 125.636 21.8896C125.587 21.9961 125.505 22.0825 125.389 22.1489C125.273 22.2144 125.116 22.2471 124.917 22.2471H124.735V23H124.27V20.9082ZM124.917 21.2539H124.735V21.8999H124.876C124.986 21.8999 125.075 21.8745 125.141 21.8237C125.208 21.7729 125.242 21.6855 125.242 21.5615C125.242 21.4629 125.216 21.3872 125.163 21.3345C125.11 21.2808 125.028 21.2539 124.917 21.2539Z" fill="#13594E"/>
<path d="M124.27 22.9082H124.932C125.196 22.9082 125.392 22.9639 125.519 23.0752C125.647 23.1865 125.711 23.3442 125.711 23.5483C125.711 23.6694 125.686 23.7832 125.636 23.8896C125.587 23.9961 125.505 24.0825 125.389 24.1489C125.273 24.2144 125.116 24.2471 124.917 24.2471H124.735V25H124.27V22.9082ZM124.917 23.2539H124.735V23.8999H124.876C124.986 23.8999 125.075 23.8745 125.141 23.8237C125.208 23.7729 125.242 23.6855 125.242 23.5615C125.242 23.4629 125.216 23.3872 125.163 23.3345C125.11 23.2808 125.028 23.2539 124.917 23.2539Z" fill="#13594E"/>
<path d="M124.27 24.9082H124.932C125.196 24.9082 125.392 24.9639 125.519 25.0752C125.647 25.1865 125.711 25.3442 125.711 25.5483C125.711 25.6694 125.686 25.7832 125.636 25.8896C125.587 25.9961 125.505 26.0825 125.389 26.1489C125.273 26.2144 125.116 26.2471 124.917 26.2471H124.735V27H124.27V24.9082ZM124.917 25.2539H124.735V25.8999H124.876C124.986 25.8999 125.075 25.8745 125.141 25.8237C125.208 25.7729 125.242 25.6855 125.242 25.5615C125.242 25.4629 125.216 25.3872 125.163 25.3345C125.11 25.2808 125.028 25.2539 124.917 25.2539Z" fill="#13594E"/>
<path d="M124.27 26.9082H124.932C125.196 26.9082 125.392 26.9639 125.519 27.0752C125.647 27.1865 125.711 27.3442 125.711 27.5483C125.711 27.6694 125.686 27.7832 125.636 27.8896C125.587 27.9961 125.505 28.0825 125.389 28.1489C125.273 28.2144 125.116 28.2471 124.917 28.2471H124.735V29H124.27V26.9082ZM124.917 27.2539H124.735V27.8999H124.876C124.986 27.8999 125.075 27.8745 125.141 27.8237C125.208 27.7729 125.242 27.6855 125.242 27.5615C125.242 27.4629 125.216 27.3872 125.163 27.3345C125.11 27.2808 125.028 27.2539 124.917 27.2539Z" fill="#13594E"/>
<path d="M124.27 28.9082H124.932C125.196 28.9082 125.392 28.9639 125.519 29.0752C125.647 29.1865 125.711 29.3442 125.711 29.5483C125.711 29.6694 125.686 29.7832 125.636 29.8896C125.587 29.9961 125.505 30.0825 125.389 30.1489C125.273 30.2144 125.116 30.2471 124.917 30.2471H124.735V31H124.27V28.9082ZM124.917 29.2539H124.735V29.8999H124.876C124.986 29.8999 125.075 29.8745 125.141 29.8237C125.208 29.7729 125.242 29.6855 125.242 29.5615C125.242 29.4629 125.216 29.3872 125.163 29.3345C125.11 29.2808 125.028 29.2539 124.917 29.2539Z" fill="#13594E"/>
<path d="M124.27 30.9082H124.932C125.196 30.9082 125.392 30.9639 125.519 31.0752C125.647 31.1865 125.711 31.3442 125.711 31.5483C125.711 31.6694 125.686 31.7832 125.636 31.8896C125.587 31.9961 125.505 32.0825 125.389 32.1489C125.273 32.2144 125.116 32.2471 124.917 32.2471H124.735V33H124.27V30.9082ZM124.917 31.2539H124.735V31.8999H124.876C124.986 31.8999 125.075 31.8745 125.141 31.8237C125.208 31.7729 125.242 31.6855 125.242 31.5615C125.242 31.4629 125.216 31.3872 125.163 31.3345C125.11 31.2808 125.028 31.2539 124.917 31.2539Z" fill="#13594E"/>
<path d="M124.27 32.9082H124.932C125.196 32.9082 125.392 32.9639 125.519 33.0752C125.647 33.1865 125.711 33.3442 125.711 33.5483C125.711 33.6694 125.686 33.7832 125.636 33.8896C125.587 33.9961 125.505 34.0825 125.389 34.1489C125.273 34.2144 125.116 34.2471 124.917 34.2471H124.735V35H124.27V32.9082ZM124.917 33.2539H124.735V33.8999H124.876C124.986 33.8999 125.075 33.8745 125.141 33.8237C125.208 33.7729 125.242 33.6855 125.242 33.5615C125.242 33.4629 125.216 33.3872 125.163 33.3345C125.11 33.2808 125.028 33.2539 124.917 33.2539Z" fill="#13594E"/>
<path d="M124.27 34.9082H124.932C125.196 34.9082 125.392 34.9639 125.519 35.0752C125.647 35.1865 125.711 35.3442 125.711 35.5483C125.711 35.6694 125.686 35.7832 125.636 35.8896C125.587 35.9961 125.505 36.0825 125.389 36.1489C125.273 36.2144 125.116 36.2471 124.917 36.2471H124.735V37H124.27V34.9082ZM124.917 35.2539H124.735V35.8999H124.876C124.986 35.8999 125.075 35.8745 125.141 35.8237C125.208 35.7729 125.242 35.6855 125.242 35.5615C125.242 35.4629 125.216 35.3872 125.163 35.3345C125.11 35.2808 125.028 35.2539 124.917 35.2539Z" fill="#13594E"/>
<path d="M124.27 36.9082H124.932C125.196 36.9082 125.392 36.9639 125.519 37.0752C125.647 37.1865 125.711 37.3442 125.711 37.5483C125.711 37.6694 125.686 37.7832 125.636 37.8896C125.587 37.9961 125.505 38.0825 125.389 38.1489C125.273 38.2144 125.116 38.2471 124.917 38.2471H124.735V39H124.27V36.9082ZM124.917 37.2539H124.735V37.8999H124.876C124.986 37.8999 125.075 37.8745 125.141 37.8237C125.208 37.7729 125.242 37.6855 125.242 37.5615C125.242 37.4629 125.216 37.3872 125.163 37.3345C125.11 37.2808 125.028 37.2539 124.917 37.2539Z" fill="#13594E"/>
<path d="M126.27 10.9082H126.932C127.196 10.9082 127.392 10.9639 127.519 11.0752C127.647 11.1865 127.711 11.3442 127.711 11.5483C127.711 11.6694 127.686 11.7832 127.636 11.8896C127.587 11.9961 127.505 12.0825 127.389 12.1489C127.273 12.2144 127.116 12.2471 126.917 12.2471H126.735V13H126.27V10.9082ZM126.917 11.2539H126.735V11.8999H126.876C126.986 11.8999 127.075 11.8745 127.141 11.8237C127.208 11.7729 127.242 11.6855 127.242 11.5615C127.242 11.4629 127.216 11.3872 127.163 11.3345C127.11 11.2808 127.028 11.2539 126.917 11.2539Z" fill="#13594E"/>
<path d="M126.27 12.9082H126.932C127.196 12.9082 127.392 12.9639 127.519 13.0752C127.647 13.1865 127.711 13.3442 127.711 13.5483C127.711 13.6694 127.686 13.7832 127.636 13.8896C127.587 13.9961 127.505 14.0825 127.389 14.1489C127.273 14.2144 127.116 14.2471 126.917 14.2471H126.735V15H126.27V12.9082ZM126.917 13.2539H126.735V13.8999H126.876C126.986 13.8999 127.075 13.8745 127.141 13.8237C127.208 13.7729 127.242 13.6855 127.242 13.5615C127.242 13.4629 127.216 13.3872 127.163 13.3345C127.11 13.2808 127.028 13.2539 126.917 13.2539Z" fill="#13594E"/>
<path d="M126.27 14.9082H126.932C127.196 14.9082 127.392 14.9639 127.519 15.0752C127.647 15.1865 127.711 15.3442 127.711 15.5483C127.711 15.6694 127.686 15.7832 127.636 15.8896C127.587 15.9961 127.505 16.0825 127.389 16.1489C127.273 16.2144 127.116 16.2471 126.917 16.2471H126.735V17H126.27V14.9082ZM126.917 15.2539H126.735V15.8999H126.876C126.986 15.8999 127.075 15.8745 127.141 15.8237C127.208 15.7729 127.242 15.6855 127.242 15.5615C127.242 15.4629 127.216 15.3872 127.163 15.3345C127.11 15.2808 127.028 15.2539 126.917 15.2539Z" fill="#13594E"/>
<path d="M126.27 16.9082H126.932C127.196 16.9082 127.392 16.9639 127.519 17.0752C127.647 17.1865 127.711 17.3442 127.711 17.5483C127.711 17.6694 127.686 17.7832 127.636 17.8896C127.587 17.9961 127.505 18.0825 127.389 18.1489C127.273 18.2144 127.116 18.2471 126.917 18.2471H126.735V19H126.27V16.9082ZM126.917 17.2539H126.735V17.8999H126.876C126.986 17.8999 127.075 17.8745 127.141 17.8237C127.208 17.7729 127.242 17.6855 127.242 17.5615C127.242 17.4629 127.216 17.3872 127.163 17.3345C127.11 17.2808 127.028 17.2539 126.917 17.2539Z" fill="#13594E"/>
<path d="M126.27 18.9082H126.932C127.196 18.9082 127.392 18.9639 127.519 19.0752C127.647 19.1865 127.711 19.3442 127.711 19.5483C127.711 19.6694 127.686 19.7832 127.636 19.8896C127.587 19.9961 127.505 20.0825 127.389 20.1489C127.273 20.2144 127.116 20.2471 126.917 20.2471H126.735V21H126.27V18.9082ZM126.917 19.2539H126.735V19.8999H126.876C126.986 19.8999 127.075 19.8745 127.141 19.8237C127.208 19.7729 127.242 19.6855 127.242 19.5615C127.242 19.4629 127.216 19.3872 127.163 19.3345C127.11 19.2808 127.028 19.2539 126.917 19.2539Z" fill="#13594E"/>
<path d="M126.27 20.9082H126.932C127.196 20.9082 127.392 20.9639 127.519 21.0752C127.647 21.1865 127.711 21.3442 127.711 21.5483C127.711 21.6694 127.686 21.7832 127.636 21.8896C127.587 21.9961 127.505 22.0825 127.389 22.1489C127.273 22.2144 127.116 22.2471 126.917 22.2471H126.735V23H126.27V20.9082ZM126.917 21.2539H126.735V21.8999H126.876C126.986 21.8999 127.075 21.8745 127.141 21.8237C127.208 21.7729 127.242 21.6855 127.242 21.5615C127.242 21.4629 127.216 21.3872 127.163 21.3345C127.11 21.2808 127.028 21.2539 126.917 21.2539Z" fill="#13594E"/>
<path d="M126.27 22.9082H126.932C127.196 22.9082 127.392 22.9639 127.519 23.0752C127.647 23.1865 127.711 23.3442 127.711 23.5483C127.711 23.6694 127.686 23.7832 127.636 23.8896C127.587 23.9961 127.505 24.0825 127.389 24.1489C127.273 24.2144 127.116 24.2471 126.917 24.2471H126.735V25H126.27V22.9082ZM126.917 23.2539H126.735V23.8999H126.876C126.986 23.8999 127.075 23.8745 127.141 23.8237C127.208 23.7729 127.242 23.6855 127.242 23.5615C127.242 23.4629 127.216 23.3872 127.163 23.3345C127.11 23.2808 127.028 23.2539 126.917 23.2539Z" fill="#13594E"/>
<path d="M126.27 24.9082H126.932C127.196 24.9082 127.392 24.9639 127.519 25.0752C127.647 25.1865 127.711 25.3442 127.711 25.5483C127.711 25.6694 127.686 25.7832 127.636 25.8896C127.587 25.9961 127.505 26.0825 127.389 26.1489C127.273 26.2144 127.116 26.2471 126.917 26.2471H126.735V27H126.27V24.9082ZM126.917 25.2539H126.735V25.8999H126.876C126.986 25.8999 127.075 25.8745 127.141 25.8237C127.208 25.7729 127.242 25.6855 127.242 25.5615C127.242 25.4629 127.216 25.3872 127.163 25.3345C127.11 25.2808 127.028 25.2539 126.917 25.2539Z" fill="#13594E"/>
<path d="M126.27 26.9082H126.932C127.196 26.9082 127.392 26.9639 127.519 27.0752C127.647 27.1865 127.711 27.3442 127.711 27.5483C127.711 27.6694 127.686 27.7832 127.636 27.8896C127.587 27.9961 127.505 28.0825 127.389 28.1489C127.273 28.2144 127.116 28.2471 126.917 28.2471H126.735V29H126.27V26.9082ZM126.917 27.2539H126.735V27.8999H126.876C126.986 27.8999 127.075 27.8745 127.141 27.8237C127.208 27.7729 127.242 27.6855 127.242 27.5615C127.242 27.4629 127.216 27.3872 127.163 27.3345C127.11 27.2808 127.028 27.2539 126.917 27.2539Z" fill="#13594E"/>
<path d="M126.27 28.9082H126.932C127.196 28.9082 127.392 28.9639 127.519 29.0752C127.647 29.1865 127.711 29.3442 127.711 29.5483C127.711 29.6694 127.686 29.7832 127.636 29.8896C127.587 29.9961 127.505 30.0825 127.389 30.1489C127.273 30.2144 127.116 30.2471 126.917 30.2471H126.735V31H126.27V28.9082ZM126.917 29.2539H126.735V29.8999H126.876C126.986 29.8999 127.075 29.8745 127.141 29.8237C127.208 29.7729 127.242 29.6855 127.242 29.5615C127.242 29.4629 127.216 29.3872 127.163 29.3345C127.11 29.2808 127.028 29.2539 126.917 29.2539Z" fill="#13594E"/>
<path d="M126.27 30.9082H126.932C127.196 30.9082 127.392 30.9639 127.519 31.0752C127.647 31.1865 127.711 31.3442 127.711 31.5483C127.711 31.6694 127.686 31.7832 127.636 31.8896C127.587 31.9961 127.505 32.0825 127.389 32.1489C127.273 32.2144 127.116 32.2471 126.917 32.2471H126.735V33H126.27V30.9082ZM126.917 31.2539H126.735V31.8999H126.876C126.986 31.8999 127.075 31.8745 127.141 31.8237C127.208 31.7729 127.242 31.6855 127.242 31.5615C127.242 31.4629 127.216 31.3872 127.163 31.3345C127.11 31.2808 127.028 31.2539 126.917 31.2539Z" fill="#13594E"/>
<path d="M126.27 32.9082H126.932C127.196 32.9082 127.392 32.9639 127.519 33.0752C127.647 33.1865 127.711 33.3442 127.711 33.5483C127.711 33.6694 127.686 33.7832 127.636 33.8896C127.587 33.9961 127.505 34.0825 127.389 34.1489C127.273 34.2144 127.116 34.2471 126.917 34.2471H126.735V35H126.27V32.9082ZM126.917 33.2539H126.735V33.8999H126.876C126.986 33.8999 127.075 33.8745 127.141 33.8237C127.208 33.7729 127.242 33.6855 127.242 33.5615C127.242 33.4629 127.216 33.3872 127.163 33.3345C127.11 33.2808 127.028 33.2539 126.917 33.2539Z" fill="#13594E"/>
<path d="M126.27 34.9082H126.932C127.196 34.9082 127.392 34.9639 127.519 35.0752C127.647 35.1865 127.711 35.3442 127.711 35.5483C127.711 35.6694 127.686 35.7832 127.636 35.8896C127.587 35.9961 127.505 36.0825 127.389 36.1489C127.273 36.2144 127.116 36.2471 126.917 36.2471H126.735V37H126.27V34.9082ZM126.917 35.2539H126.735V35.8999H126.876C126.986 35.8999 127.075 35.8745 127.141 35.8237C127.208 35.7729 127.242 35.6855 127.242 35.5615C127.242 35.4629 127.216 35.3872 127.163 35.3345C127.11 35.2808 127.028 35.2539 126.917 35.2539Z" fill="#13594E"/>
<path d="M126.27 36.9082H126.932C127.196 36.9082 127.392 36.9639 127.519 37.0752C127.647 37.1865 127.711 37.3442 127.711 37.5483C127.711 37.6694 127.686 37.7832 127.636 37.8896C127.587 37.9961 127.505 38.0825 127.389 38.1489C127.273 38.2144 127.116 38.2471 126.917 38.2471H126.735V39H126.27V36.9082ZM126.917 37.2539H126.735V37.8999H126.876C126.986 37.8999 127.075 37.8745 127.141 37.8237C127.208 37.7729 127.242 37.6855 127.242 37.5615C127.242 37.4629 127.216 37.3872 127.163 37.3345C127.11 37.2808 127.028 37.2539 126.917 37.2539Z" fill="#13594E"/>
</g>
<path d="M20.5625 70H17.0703L13.3672 56.6875H13.2734C13.3125 57.1641 13.3555 57.8398 13.4023 58.7148C13.457 59.5898 13.4844 60.4648 13.4844 61.3398V70H10.1562V53.2656H15.1953L18.875 66.0273H18.957L22.6016 53.2656H27.6289V70H24.1836V61.2344C24.1836 60.7031 24.1914 60.1523 24.207 59.582C24.2227 59.0039 24.2422 58.4609 24.2656 57.9531C24.2891 57.4453 24.3125 57.0312 24.3359 56.7109H24.2422L20.5625 70ZM47.4688 70H43.4492L41.9375 65.875H35.3281L33.8164 70H29.7969L36.3711 53.1953H40.8711L47.4688 70ZM41.0586 63.0508L39.6641 59.1953C39.6016 58.9766 39.5 58.6445 39.3594 58.1992C39.2266 57.7539 39.0898 57.293 38.9492 56.8164C38.8086 56.3398 38.7031 55.957 38.6328 55.668C38.5547 56.0195 38.4531 56.418 38.3281 56.8633C38.2109 57.3086 38.0898 57.7383 37.9648 58.1523C37.8477 58.5664 37.7461 58.9141 37.6602 59.1953L36.2539 63.0508H41.0586ZM60.2539 65.207C60.2539 66.1523 60.0156 67.0078 59.5391 67.7734C59.0625 68.5312 58.3438 69.1328 57.3828 69.5781C56.4219 70.0156 55.2148 70.2344 53.7617 70.2344C52.668 70.2344 51.7305 70.1562 50.9492 70C50.168 69.8438 49.418 69.6094 48.6992 69.2969V66.2383C49.5039 66.5977 50.3633 66.8906 51.2773 67.1172C52.1914 67.3359 53.0508 67.4453 53.8555 67.4453C54.7539 67.4453 55.4219 67.2695 55.8594 66.918C56.2969 66.5586 56.5156 66.0859 56.5156 65.5C56.5156 65.0859 56.4062 64.7383 56.1875 64.457C55.9766 64.1758 55.6211 63.9023 55.1211 63.6367C54.6211 63.3711 53.9492 63.0586 53.1055 62.6992C52.2148 62.3477 51.4531 61.9531 50.8203 61.5156C50.1875 61.0781 49.7031 60.5508 49.3672 59.9336C49.0312 59.3086 48.8633 58.5391 48.8633 57.625C48.8633 56.6406 49.1172 55.8086 49.625 55.1289C50.1406 54.4414 50.8555 53.9219 51.7695 53.5703C52.6914 53.2109 53.7539 53.0312 54.957 53.0312C56.0039 53.0312 56.9531 53.1367 57.8047 53.3477C58.6562 53.5508 59.4258 53.8008 60.1133 54.0977L58.9648 56.7812C58.2773 56.4844 57.582 56.2461 56.8789 56.0664C56.1836 55.8789 55.5039 55.7852 54.8398 55.7852C54.0742 55.7852 53.5039 55.9492 53.1289 56.2773C52.7539 56.5977 52.5664 57.0117 52.5664 57.5195C52.5664 57.9258 52.6758 58.2734 52.8945 58.5625C53.1133 58.8516 53.4766 59.1328 53.9844 59.4062C54.5 59.6719 55.1953 59.9805 56.0703 60.332C56.9609 60.6992 57.7188 61.0938 58.3438 61.5156C58.9688 61.9375 59.4414 62.4414 59.7617 63.0273C60.0898 63.6055 60.2539 64.332 60.2539 65.207ZM71.3398 56.0781V70H67.6016V56.0781H61.8828V53.2656H77.0352V56.0781H71.3398ZM90.8164 67.1992V70H79.9062V53.2656H90.8164V56.0312H83.6445V59.9102H90.3594V62.6758H83.6445V67.1992H90.8164ZM94.3203 53.2656H99.9805C104.809 53.2656 107.223 54.8828 107.223 58.1172C107.223 59.2891 106.887 60.2305 106.215 60.9414C105.551 61.6523 104.734 62.207 103.766 62.6055L109.062 70H104.785L100.543 63.5078H98.0586V70H94.3203V53.2656ZM99.8867 55.9141H98.0586V60.8828H99.9219C101.062 60.8828 101.93 60.6758 102.523 60.2617C103.125 59.8477 103.426 59.1836 103.426 58.2695C103.426 57.4648 103.141 56.8711 102.57 56.4883C102 56.1055 101.105 55.9141 99.8867 55.9141ZM121.52 65.207C121.52 66.1523 121.281 67.0078 120.805 67.7734C120.328 68.5312 119.609 69.1328 118.648 69.5781C117.688 70.0156 116.48 70.2344 115.027 70.2344C113.934 70.2344 112.996 70.1562 112.215 70C111.434 69.8438 110.684 69.6094 109.965 69.2969V66.2383C110.77 66.5977 111.629 66.8906 112.543 67.1172C113.457 67.3359 114.316 67.4453 115.121 67.4453C116.02 67.4453 116.688 67.2695 117.125 66.918C117.562 66.5586 117.781 66.0859 117.781 65.5C117.781 65.0859 117.672 64.7383 117.453 64.457C117.242 64.1758 116.887 63.9023 116.387 63.6367C115.887 63.3711 115.215 63.0586 114.371 62.6992C113.48 62.3477 112.719 61.9531 112.086 61.5156C111.453 61.0781 110.969 60.5508 110.633 59.9336C110.297 59.3086 110.129 58.5391 110.129 57.625C110.129 56.6406 110.383 55.8086 110.891 55.1289C111.406 54.4414 112.121 53.9219 113.035 53.5703C113.957 53.2109 115.02 53.0312 116.223 53.0312C117.27 53.0312 118.219 53.1367 119.07 53.3477C119.922 53.5508 120.691 53.8008 121.379 54.0977L120.23 56.7812C119.543 56.4844 118.848 56.2461 118.145 56.0664C117.449 55.8789 116.77 55.7852 116.105 55.7852C115.34 55.7852 114.77 55.9492 114.395 56.2773C114.02 56.5977 113.832 57.0117 113.832 57.5195C113.832 57.9258 113.941 58.2734 114.16 58.5625C114.379 58.8516 114.742 59.1328 115.25 59.4062C115.766 59.6719 116.461 59.9805 117.336 60.332C118.227 60.6992 118.984 61.0938 119.609 61.5156C120.234 61.9375 120.707 62.4414 121.027 63.0273C121.355 63.6055 121.52 64.332 121.52 65.207Z" fill="#13594E"/>
</svg>
