<svg width="146" height="146" viewBox="0 0 146 146" fill="none" xmlns="http://www.w3.org/2000/svg">
<circle cx="72.8135" cy="73" r="39.5808" fill="#83323F" stroke="#83323F"/>
<mask id="path-2-inside-1_198_2127" fill="white">
<path fill-rule="evenodd" clip-rule="evenodd" d="M35.4599 37.5401C31.5547 41.4453 31.5547 47.777 35.4599 51.6822L56.7777 73L35.4599 94.3178C31.5547 98.223 31.5547 104.555 35.4599 108.46L37.54 110.54C41.4453 114.445 47.7769 114.445 51.6822 110.54L73 89.2222L94.3178 110.54C98.223 114.445 104.555 114.445 108.46 110.54L110.54 108.46C114.445 104.555 114.445 98.2231 110.54 94.3178L89.2222 73L110.54 51.6822C114.445 47.7769 114.445 41.4453 110.54 37.54L108.46 35.4599C104.555 31.5547 98.223 31.5547 94.3178 35.4599L73 56.7778L51.6822 35.46C47.7769 31.5547 41.4453 31.5547 37.54 35.46L35.4599 37.5401Z"/>
</mask>
<path fill-rule="evenodd" clip-rule="evenodd" d="M35.4599 37.5401C31.5547 41.4453 31.5547 47.777 35.4599 51.6822L56.7777 73L35.4599 94.3178C31.5547 98.223 31.5547 104.555 35.4599 108.46L37.54 110.54C41.4453 114.445 47.7769 114.445 51.6822 110.54L73 89.2222L94.3178 110.54C98.223 114.445 104.555 114.445 108.46 110.54L110.54 108.46C114.445 104.555 114.445 98.2231 110.54 94.3178L89.2222 73L110.54 51.6822C114.445 47.7769 114.445 41.4453 110.54 37.54L108.46 35.4599C104.555 31.5547 98.223 31.5547 94.3178 35.4599L73 56.7778L51.6822 35.46C47.7769 31.5547 41.4453 31.5547 37.54 35.46L35.4599 37.5401Z" fill="white"/>
<path d="M56.7777 73L60.3133 76.5355L63.8488 73L60.3133 69.4645L56.7777 73ZM73 89.2222L76.5355 85.6867L73 82.1512L69.4644 85.6867L73 89.2222ZM89.2222 73L85.6867 69.4645L82.1511 73L85.6867 76.5355L89.2222 73ZM73 56.7778L69.4644 60.3133L73 63.8488L76.5355 60.3133L73 56.7778ZM38.9955 48.1467C37.0429 46.194 37.0429 43.0282 38.9955 41.0756L31.9244 34.0045C26.0665 39.8624 26.0665 49.3599 31.9244 55.2177L38.9955 48.1467ZM60.3133 69.4645L38.9955 48.1467L31.9244 55.2177L53.2422 76.5355L60.3133 69.4645ZM38.9955 97.8533L60.3133 76.5355L53.2422 69.4645L31.9244 90.7823L38.9955 97.8533ZM38.9955 104.924C37.0429 102.972 37.0429 99.806 38.9955 97.8533L31.9244 90.7823C26.0665 96.6401 26.0665 106.138 31.9244 111.995L38.9955 104.924ZM41.0756 107.004L38.9955 104.924L31.9244 111.995L34.0045 114.076L41.0756 107.004ZM48.1466 107.004C46.194 108.957 43.0282 108.957 41.0756 107.004L34.0045 114.076C39.8624 119.933 49.3598 119.933 55.2177 114.076L48.1466 107.004ZM69.4644 85.6867L48.1466 107.004L55.2177 114.076L76.5355 92.7578L69.4644 85.6867ZM97.8533 107.005L76.5355 85.6867L69.4644 92.7578L90.7823 114.076L97.8533 107.005ZM104.924 107.005C102.972 108.957 99.806 108.957 97.8533 107.005L90.7823 114.076C96.6401 119.933 106.138 119.933 111.995 114.076L104.924 107.005ZM107.004 104.924L104.924 107.005L111.995 114.076L114.076 111.996L107.004 104.924ZM107.004 97.8534C108.957 99.806 108.957 102.972 107.004 104.924L114.076 111.996C119.933 106.138 119.933 96.6402 114.076 90.7823L107.004 97.8534ZM85.6867 76.5355L107.004 97.8534L114.076 90.7823L92.7577 69.4645L85.6867 76.5355ZM107.004 48.1466L85.6867 69.4645L92.7577 76.5355L114.076 55.2177L107.004 48.1466ZM107.004 41.0756C108.957 43.0282 108.957 46.194 107.004 48.1466L114.076 55.2177C119.933 49.3598 119.933 39.8624 114.076 34.0045L107.004 41.0756ZM104.924 38.9955L107.004 41.0756L114.076 34.0045L111.995 31.9244L104.924 38.9955ZM97.8533 38.9955C99.806 37.0429 102.972 37.0429 104.924 38.9955L111.995 31.9244C106.138 26.0665 96.6401 26.0666 90.7823 31.9244L97.8533 38.9955ZM76.5355 60.3133L97.8533 38.9955L90.7823 31.9244L69.4644 53.2422L76.5355 60.3133ZM48.1466 38.9955L69.4644 60.3133L76.5355 53.2422L55.2177 31.9244L48.1466 38.9955ZM41.0756 38.9955C43.0282 37.0429 46.194 37.0429 48.1466 38.9955L55.2177 31.9244C49.3598 26.0666 39.8624 26.0666 34.0045 31.9244L41.0756 38.9955ZM38.9955 41.0756L41.0756 38.9955L34.0045 31.9244L31.9244 34.0045L38.9955 41.0756Z" fill="#83323F" mask="url(#path-2-inside-1_198_2127)"/>
</svg>
